%TF.GenerationSoftware,KiCad,Pcbnew,9.0.1*%
%TF.CreationDate,2025-04-30T22:07:06-06:00*%
%TF.ProjectId,v2board,7632626f-6172-4642-9e6b-696361645f70,v1.0.0*%
%TF.SameCoordinates,Original*%
%TF.FileFunction,Soldermask,Top*%
%TF.FilePolarity,Negative*%
%FSLAX46Y46*%
G04 Gerber Fmt 4.6, Leading zero omitted, Abs format (unit mm)*
G04 Created by KiCad (PCBNEW 9.0.1) date 2025-04-30 22:07:06*
%MOMM*%
%LPD*%
G01*
G04 APERTURE LIST*
G04 Aperture macros list*
%AMRoundRect*
0 Rectangle with rounded corners*
0 $1 Rounding radius*
0 $2 $3 $4 $5 $6 $7 $8 $9 X,Y pos of 4 corners*
0 Add a 4 corners polygon primitive as box body*
4,1,4,$2,$3,$4,$5,$6,$7,$8,$9,$2,$3,0*
0 Add four circle primitives for the rounded corners*
1,1,$1+$1,$2,$3*
1,1,$1+$1,$4,$5*
1,1,$1+$1,$6,$7*
1,1,$1+$1,$8,$9*
0 Add four rect primitives between the rounded corners*
20,1,$1+$1,$2,$3,$4,$5,0*
20,1,$1+$1,$4,$5,$6,$7,0*
20,1,$1+$1,$6,$7,$8,$9,0*
20,1,$1+$1,$8,$9,$2,$3,0*%
G04 Aperture macros list end*
%ADD10C,1.801800*%
%ADD11C,3.100000*%
%ADD12C,3.529000*%
%ADD13RoundRect,0.050000X1.300000X1.300000X-1.300000X1.300000X-1.300000X-1.300000X1.300000X-1.300000X0*%
%ADD14RoundRect,0.050000X0.889000X0.889000X-0.889000X0.889000X-0.889000X-0.889000X0.889000X-0.889000X0*%
%ADD15RoundRect,0.050000X0.450000X0.600000X-0.450000X0.600000X-0.450000X-0.600000X0.450000X-0.600000X0*%
%ADD16C,2.005000*%
%ADD17RoundRect,0.050000X1.001307X1.541877X-1.541877X1.001307X-1.001307X-1.541877X1.541877X-1.001307X0*%
%ADD18RoundRect,0.050000X1.181415X-0.430000X0.430000X1.181415X-1.181415X0.430000X-0.430000X-1.181415X0*%
%ADD19RoundRect,0.050000X0.733963X-0.154268X0.353606X0.661409X-0.733963X0.154268X-0.353606X-0.661409X0*%
%ADD20RoundRect,0.050000X-0.775000X-0.500000X0.775000X-0.500000X0.775000X0.500000X-0.775000X0.500000X0*%
%ADD21RoundRect,0.050000X1.029867X0.721121X-0.721121X1.029867X-1.029867X-0.721121X0.721121X-1.029867X0*%
%ADD22RoundRect,0.050000X0.547352X0.512743X-0.338975X0.669026X-0.547352X-0.512743X0.338975X-0.669026X0*%
%ADD23RoundRect,0.050000X0.684740X1.054407X-1.054407X0.684740X-0.684740X-1.054407X1.054407X-0.684740X0*%
%ADD24RoundRect,0.050000X0.315419X0.680449X-0.564913X0.493328X-0.315419X-0.680449X0.564913X-0.493328X0*%
%ADD25C,2.300000*%
%ADD26RoundRect,0.050000X0.808136X0.963099X-0.963099X0.808136X-0.808136X-0.963099X0.963099X-0.808136X0*%
%ADD27RoundRect,0.050000X0.395994X0.636937X-0.500581X0.558497X-0.395994X-0.636937X0.500581X-0.558497X0*%
%ADD28RoundRect,0.050000X1.181751X1.408356X-1.408356X1.181751X-1.181751X-1.408356X1.408356X-1.181751X0*%
%ADD29RoundRect,0.050000X1.505993X1.054507X-1.054507X1.505993X-1.505993X-1.054507X1.054507X-1.505993X0*%
%ADD30RoundRect,0.050000X1.727604X-0.628796X0.628796X1.727604X-1.727604X0.628796X-0.628796X-1.727604X0*%
%ADD31RoundRect,0.050000X1.810547X0.319248X-0.319248X1.810547X-1.810547X-0.319248X0.319248X-1.810547X0*%
%ADD32RoundRect,0.050000X1.238136X0.218317X-0.218317X1.238136X-1.238136X-0.218317X0.218317X-1.238136X0*%
%ADD33RoundRect,0.050000X0.712764X0.233382X-0.024473X0.749601X-0.712764X-0.233382X0.024473X-0.749601X0*%
%ADD34O,1.800000X1.800000*%
%ADD35C,1.800000*%
%ADD36RoundRect,0.050000X0.450000X0.450000X-0.450000X0.450000X-0.450000X-0.450000X0.450000X-0.450000X0*%
%ADD37C,1.100000*%
%ADD38RoundRect,0.050000X0.450000X0.625000X-0.450000X0.625000X-0.450000X-0.625000X0.450000X-0.625000X0*%
%ADD39RoundRect,0.050000X-0.600000X-0.850000X0.600000X-0.850000X0.600000X0.850000X-0.600000X0.850000X0*%
%ADD40O,1.300000X1.800000*%
G04 APERTURE END LIST*
D10*
%TO.C,S11*%
X63329429Y38251185D03*
D11*
X62829429Y34501185D03*
X57829429Y32301185D03*
X57829429Y32301185D03*
D12*
X57829429Y38251185D03*
D11*
X52829429Y34501185D03*
D10*
X52329429Y38251185D03*
D13*
X54554429Y32301185D03*
X66104429Y34501185D03*
%TD*%
D14*
%TO.C,D10*%
X61639429Y26251185D03*
D15*
X59479429Y26251185D03*
X56179429Y26251185D03*
D16*
X54019429Y26251185D03*
%TD*%
D10*
%TO.C,S16*%
X55245320Y-7919841D03*
D11*
X55535915Y-11691850D03*
X51102583Y-14883333D03*
X51102583Y-14883333D03*
D12*
X49865508Y-9063355D03*
D11*
X45754439Y-13770967D03*
D10*
X44485696Y-10206869D03*
D17*
X47899149Y-15564244D03*
X58739348Y-11010939D03*
%TD*%
D18*
%TO.C,D19*%
X111251785Y-34995732D03*
D19*
X110338929Y-33038107D03*
X108944289Y-30047291D03*
D16*
X108031433Y-28089666D03*
%TD*%
D20*
%TO.C,RST1*%
X105954429Y60101185D03*
X105954429Y58401185D03*
X100704429Y60101185D03*
X100704429Y58401185D03*
%TD*%
D21*
%TO.C,D17*%
X75640263Y-4383955D03*
D22*
X73513076Y-4008874D03*
X70263210Y-3435836D03*
D16*
X68136023Y-3060755D03*
%TD*%
D14*
%TO.C,D13*%
X79639429Y23251185D03*
D15*
X77479429Y23251185D03*
X74179429Y23251185D03*
D16*
X72019429Y23251185D03*
%TD*%
D23*
%TO.C,D2*%
X-847315Y22311392D03*
D24*
X-2960113Y21862301D03*
X-6188001Y21176193D03*
D16*
X-8300799Y20727102D03*
%TD*%
D25*
%TO.C,MH1*%
X35309090Y-5512204D03*
%TD*%
D26*
%TO.C,D5*%
X21048884Y42680677D03*
D27*
X18897103Y42492421D03*
X15609661Y42204807D03*
D16*
X13457880Y42016551D03*
%TD*%
D10*
%TO.C,S6*%
X21686584Y54782307D03*
D11*
X21515324Y51002999D03*
X16726090Y48375592D03*
X16726090Y48375592D03*
D12*
X16207513Y54302950D03*
D11*
X11553374Y50131441D03*
D10*
X10728442Y53823593D03*
D28*
X13463552Y48090156D03*
X24777858Y51288434D03*
%TD*%
D10*
%TO.C,S1*%
X5379812Y1143514D03*
D11*
X5670407Y-2628495D03*
X1237075Y-5819978D03*
X1237075Y-5819978D03*
D12*
X0Y0D03*
D11*
X-4111069Y-4707612D03*
D10*
X-5379812Y-1143514D03*
D17*
X-1966359Y-6500889D03*
X8873840Y-1947584D03*
%TD*%
D10*
%TO.C,S14*%
X81329429Y35251185D03*
D11*
X80829429Y31501185D03*
X75829429Y29301185D03*
X75829429Y29301185D03*
D12*
X75829429Y35251185D03*
D11*
X70829429Y31501185D03*
D10*
X70329429Y35251185D03*
D13*
X72554429Y29301185D03*
X84104429Y31501185D03*
%TD*%
D25*
%TO.C,MH2*%
X119829429Y-38498815D03*
%TD*%
D23*
%TO.C,D1*%
X2687183Y5682883D03*
D24*
X574385Y5233792D03*
X-2653503Y4547684D03*
D16*
X-4766301Y4098593D03*
%TD*%
D10*
%TO.C,S10*%
X63329429Y21251185D03*
D11*
X62829429Y17501185D03*
X57829429Y15301185D03*
X57829429Y15301185D03*
D12*
X57829429Y21251185D03*
D11*
X52829429Y17501185D03*
D10*
X52329429Y21251185D03*
D13*
X54554429Y15301185D03*
X66104429Y17501185D03*
%TD*%
D14*
%TO.C,D7*%
X43639429Y30251185D03*
D15*
X41479429Y30251185D03*
X38179429Y30251185D03*
D16*
X36019429Y30251185D03*
%TD*%
D10*
%TO.C,S4*%
X24649879Y20911688D03*
D11*
X24478619Y17132380D03*
X19689385Y14504973D03*
X19689385Y14504973D03*
D12*
X19170808Y20432331D03*
D11*
X14516669Y16260822D03*
D10*
X13691737Y19952974D03*
D28*
X16426847Y14219537D03*
X27741153Y17417815D03*
%TD*%
D26*
%TO.C,D4*%
X22530531Y25745367D03*
D27*
X20378750Y25557111D03*
X17091308Y25269497D03*
D16*
X14939527Y25081241D03*
%TD*%
D14*
%TO.C,D9*%
X43639429Y64251185D03*
D15*
X41479429Y64251185D03*
X38179429Y64251185D03*
D16*
X36019429Y64251185D03*
%TD*%
D14*
%TO.C,D8*%
X43639429Y47251185D03*
D15*
X41479429Y47251185D03*
X38179429Y47251185D03*
D16*
X36019429Y47251185D03*
%TD*%
D23*
%TO.C,D3*%
X-4381814Y38939901D03*
D24*
X-6494612Y38490810D03*
X-9722500Y37804702D03*
D16*
X-11835298Y37355611D03*
%TD*%
D14*
%TO.C,D14*%
X79639429Y40251185D03*
D15*
X77479429Y40251185D03*
X74179429Y40251185D03*
D16*
X72019429Y40251185D03*
%TD*%
D10*
%TO.C,S12*%
X63329429Y55251185D03*
D11*
X62829429Y51501185D03*
X57829429Y49301185D03*
X57829429Y49301185D03*
D12*
X57829429Y55251185D03*
D11*
X52829429Y51501185D03*
D10*
X52329429Y55251185D03*
D13*
X54554429Y49301185D03*
X66104429Y51501185D03*
%TD*%
D10*
%TO.C,S17*%
X76436345Y-9601459D03*
D11*
X75292760Y-13207664D03*
X69986695Y-14506000D03*
X69986695Y-14506000D03*
D12*
X71019902Y-8646394D03*
D11*
X65444683Y-11471182D03*
D10*
X65603459Y-7691329D03*
D29*
X66761450Y-13937302D03*
X78518005Y-13776362D03*
%TD*%
D10*
%TO.C,S2*%
X1845313Y17772023D03*
D11*
X2135908Y14000014D03*
X-2297424Y10808531D03*
X-2297424Y10808531D03*
D12*
X-3534499Y16628509D03*
D11*
X-7645568Y11920897D03*
D10*
X-8914311Y15484995D03*
D17*
X-5500858Y10127620D03*
X5339341Y14680925D03*
%TD*%
D10*
%TO.C,S5*%
X23168231Y37846997D03*
D11*
X22996971Y34067689D03*
X18207737Y31440282D03*
X18207737Y31440282D03*
D12*
X17689160Y37367640D03*
D11*
X13035021Y33196131D03*
D10*
X12210089Y36888283D03*
D28*
X14945199Y31154846D03*
X26259505Y34353124D03*
%TD*%
D26*
%TO.C,D6*%
X19567236Y59615987D03*
D27*
X17415455Y59427731D03*
X14128013Y59140117D03*
D16*
X11976232Y58951861D03*
%TD*%
D25*
%TO.C,MH4*%
X119829429Y58001185D03*
%TD*%
D10*
%TO.C,S3*%
X-1689185Y34400532D03*
D11*
X-1398590Y30628523D03*
X-5831922Y27437040D03*
X-5831922Y27437040D03*
D12*
X-7068997Y33257018D03*
D11*
X-11180066Y28549406D03*
D10*
X-12448809Y32113504D03*
D17*
X-9035356Y26756129D03*
X1804843Y31309434D03*
%TD*%
D14*
%TO.C,D12*%
X61639429Y60251185D03*
D15*
X59479429Y60251185D03*
X56179429Y60251185D03*
D16*
X54019429Y60251185D03*
%TD*%
D10*
%TO.C,S7*%
X45329429Y25251185D03*
D11*
X44829429Y21501185D03*
X39829429Y19301185D03*
X39829429Y19301185D03*
D12*
X39829429Y25251185D03*
D11*
X34829429Y21501185D03*
D10*
X34329429Y25251185D03*
D13*
X36554429Y19301185D03*
X48104429Y21501185D03*
%TD*%
D10*
%TO.C,S19*%
X107434470Y-38640484D03*
D11*
X103824507Y-39772148D03*
X99717539Y-36170370D03*
X99717539Y-36170370D03*
D12*
X105110070Y-33655791D03*
D11*
X99598324Y-30709071D03*
D10*
X102785670Y-28671098D03*
D30*
X98333464Y-33202212D03*
X105208582Y-42740306D03*
%TD*%
D10*
%TO.C,S18*%
X95406469Y-19977571D03*
D11*
X92845982Y-22762603D03*
X87488353Y-21696856D03*
X87488353Y-21696856D03*
D12*
X90901133Y-16822901D03*
D11*
X84654461Y-17026839D03*
D10*
X86395797Y-13668231D03*
D31*
X84805630Y-19818393D03*
X95528705Y-24641066D03*
%TD*%
D10*
%TO.C,S8*%
X45329429Y42251185D03*
D11*
X44829429Y38501185D03*
X39829429Y36301185D03*
X39829429Y36301185D03*
D12*
X39829429Y42251185D03*
D11*
X34829429Y38501185D03*
D10*
X34329429Y42251185D03*
D13*
X36554429Y36301185D03*
X48104429Y38501185D03*
%TD*%
D14*
%TO.C,D11*%
X61639429Y43251185D03*
D15*
X59479429Y43251185D03*
X56179429Y43251185D03*
D16*
X54019429Y43251185D03*
%TD*%
D23*
%TO.C,D16*%
X52552692Y-3380472D03*
D24*
X50439894Y-3829563D03*
X47212006Y-4515671D03*
D16*
X45099208Y-4964762D03*
%TD*%
D10*
%TO.C,S15*%
X81329429Y52251185D03*
D11*
X80829429Y48501185D03*
X75829429Y46301185D03*
X75829429Y46301185D03*
D12*
X75829429Y52251185D03*
D11*
X70829429Y48501185D03*
D10*
X70329429Y52251185D03*
D13*
X72554429Y46301185D03*
X84104429Y48501185D03*
%TD*%
D10*
%TO.C,S13*%
X81329429Y18251185D03*
D11*
X80829429Y14501185D03*
X75829429Y12301185D03*
X75829429Y12301185D03*
D12*
X75829429Y18251185D03*
D11*
X70829429Y14501185D03*
D10*
X70329429Y18251185D03*
D13*
X72554429Y12301185D03*
X84104429Y14501185D03*
%TD*%
D25*
%TO.C,MH3*%
X5361364Y46327296D03*
%TD*%
D32*
%TO.C,D18*%
X96889984Y-14912467D03*
D33*
X95120616Y-13673542D03*
X92417414Y-11780740D03*
D16*
X90648046Y-10541815D03*
%TD*%
D14*
%TO.C,D15*%
X79639429Y57251185D03*
D15*
X77479429Y57251185D03*
X74179429Y57251185D03*
D16*
X72019429Y57251185D03*
%TD*%
D10*
%TO.C,S9*%
X45329429Y59251185D03*
D11*
X44829429Y55501185D03*
X39829429Y53301185D03*
X39829429Y53301185D03*
D12*
X39829429Y59251185D03*
D11*
X34829429Y55501185D03*
D10*
X34329429Y59251185D03*
D13*
X36554429Y53301185D03*
X48104429Y55501185D03*
%TD*%
D34*
%TO.C,DISP1*%
X120529429Y52831185D03*
X120529429Y50291185D03*
X120529429Y47751185D03*
X120529429Y45211185D03*
D35*
X120529429Y42671185D03*
%TD*%
D36*
%TO.C,T1*%
X115029429Y58151185D03*
X115029429Y60351185D03*
D37*
X112829429Y59251185D03*
X109829429Y59251185D03*
D36*
X107629429Y58151185D03*
X107629429Y60351185D03*
D38*
X113579429Y57176185D03*
X110579429Y57176185D03*
X109079429Y57176185D03*
%TD*%
D39*
%TO.C,JST1*%
X115829429Y-28748815D03*
D40*
X117829429Y-28748815D03*
%TD*%
D35*
%TO.C,MCU1*%
X117829429Y39371185D03*
X115289429Y39371185D03*
X112749429Y39371185D03*
X110209429Y39371185D03*
X107669429Y39371185D03*
X105129429Y39371185D03*
X102589429Y39371185D03*
X100049429Y39371185D03*
X97509429Y39371185D03*
X94969429Y39371185D03*
X92429429Y39371185D03*
X89889429Y39371185D03*
X89889429Y24131185D03*
X92429429Y24131185D03*
X94969429Y24131185D03*
X97509429Y24131185D03*
X100049429Y24131185D03*
X102589429Y24131185D03*
X105129429Y24131185D03*
X107669429Y24131185D03*
X110209429Y24131185D03*
X112749429Y24131185D03*
X115289429Y24131185D03*
X117829429Y24131185D03*
%TD*%
M02*
