%TF.GenerationSoftware,KiCad,Pcbnew,9.0.1*%
%TF.CreationDate,2025-04-30T22:07:06-06:00*%
%TF.ProjectId,v2board,7632626f-6172-4642-9e6b-696361645f70,v1.0.0*%
%TF.SameCoordinates,Original*%
%TF.FileFunction,Legend,Bot*%
%TF.FilePolarity,Positive*%
%FSLAX46Y46*%
G04 Gerber Fmt 4.6, Leading zero omitted, Abs format (unit mm)*
G04 Created by KiCad (PCBNEW 9.0.1) date 2025-04-30 22:07:06*
%MOMM*%
%LPD*%
G01*
G04 APERTURE LIST*
%ADD10C,0.150000*%
%ADD11C,0.100000*%
%ADD12C,0.120000*%
G04 APERTURE END LIST*
D10*
X118150399Y42140419D02*
X118198018Y42092800D01*
X118198018Y42092800D02*
X118340875Y42045180D01*
X118340875Y42045180D02*
X118436113Y42045180D01*
X118436113Y42045180D02*
X118578970Y42092800D01*
X118578970Y42092800D02*
X118674208Y42188038D01*
X118674208Y42188038D02*
X118721827Y42283276D01*
X118721827Y42283276D02*
X118769446Y42473752D01*
X118769446Y42473752D02*
X118769446Y42616609D01*
X118769446Y42616609D02*
X118721827Y42807085D01*
X118721827Y42807085D02*
X118674208Y42902323D01*
X118674208Y42902323D02*
X118578970Y42997561D01*
X118578970Y42997561D02*
X118436113Y43045180D01*
X118436113Y43045180D02*
X118340875Y43045180D01*
X118340875Y43045180D02*
X118198018Y42997561D01*
X118198018Y42997561D02*
X118150399Y42949942D01*
X117769446Y42092800D02*
X117626589Y42045180D01*
X117626589Y42045180D02*
X117388494Y42045180D01*
X117388494Y42045180D02*
X117293256Y42092800D01*
X117293256Y42092800D02*
X117245637Y42140419D01*
X117245637Y42140419D02*
X117198018Y42235657D01*
X117198018Y42235657D02*
X117198018Y42330895D01*
X117198018Y42330895D02*
X117245637Y42426133D01*
X117245637Y42426133D02*
X117293256Y42473752D01*
X117293256Y42473752D02*
X117388494Y42521371D01*
X117388494Y42521371D02*
X117578970Y42568990D01*
X117578970Y42568990D02*
X117674208Y42616609D01*
X117674208Y42616609D02*
X117721827Y42664228D01*
X117721827Y42664228D02*
X117769446Y42759466D01*
X117769446Y42759466D02*
X117769446Y42854704D01*
X117769446Y42854704D02*
X117721827Y42949942D01*
X117721827Y42949942D02*
X117674208Y42997561D01*
X117674208Y42997561D02*
X117578970Y43045180D01*
X117578970Y43045180D02*
X117340875Y43045180D01*
X117340875Y43045180D02*
X117198018Y42997561D01*
X118888493Y52295180D02*
X118888493Y53295180D01*
X118888493Y53295180D02*
X118555160Y52580895D01*
X118555160Y52580895D02*
X118221827Y53295180D01*
X118221827Y53295180D02*
X118221827Y52295180D01*
X117555160Y53295180D02*
X117364684Y53295180D01*
X117364684Y53295180D02*
X117269446Y53247561D01*
X117269446Y53247561D02*
X117174208Y53152323D01*
X117174208Y53152323D02*
X117126589Y52961847D01*
X117126589Y52961847D02*
X117126589Y52628514D01*
X117126589Y52628514D02*
X117174208Y52438038D01*
X117174208Y52438038D02*
X117269446Y52342800D01*
X117269446Y52342800D02*
X117364684Y52295180D01*
X117364684Y52295180D02*
X117555160Y52295180D01*
X117555160Y52295180D02*
X117650398Y52342800D01*
X117650398Y52342800D02*
X117745636Y52438038D01*
X117745636Y52438038D02*
X117793255Y52628514D01*
X117793255Y52628514D02*
X117793255Y52961847D01*
X117793255Y52961847D02*
X117745636Y53152323D01*
X117745636Y53152323D02*
X117650398Y53247561D01*
X117650398Y53247561D02*
X117555160Y53295180D01*
X116745636Y52342800D02*
X116602779Y52295180D01*
X116602779Y52295180D02*
X116364684Y52295180D01*
X116364684Y52295180D02*
X116269446Y52342800D01*
X116269446Y52342800D02*
X116221827Y52390419D01*
X116221827Y52390419D02*
X116174208Y52485657D01*
X116174208Y52485657D02*
X116174208Y52580895D01*
X116174208Y52580895D02*
X116221827Y52676133D01*
X116221827Y52676133D02*
X116269446Y52723752D01*
X116269446Y52723752D02*
X116364684Y52771371D01*
X116364684Y52771371D02*
X116555160Y52818990D01*
X116555160Y52818990D02*
X116650398Y52866609D01*
X116650398Y52866609D02*
X116698017Y52914228D01*
X116698017Y52914228D02*
X116745636Y53009466D01*
X116745636Y53009466D02*
X116745636Y53104704D01*
X116745636Y53104704D02*
X116698017Y53199942D01*
X116698017Y53199942D02*
X116650398Y53247561D01*
X116650398Y53247561D02*
X116555160Y53295180D01*
X116555160Y53295180D02*
X116317065Y53295180D01*
X116317065Y53295180D02*
X116174208Y53247561D01*
X115745636Y52295180D02*
X115745636Y53295180D01*
X118293256Y45628746D02*
X118388494Y45676365D01*
X118388494Y45676365D02*
X118531351Y45676365D01*
X118531351Y45676365D02*
X118674208Y45628746D01*
X118674208Y45628746D02*
X118769446Y45533508D01*
X118769446Y45533508D02*
X118817065Y45438270D01*
X118817065Y45438270D02*
X118864684Y45247794D01*
X118864684Y45247794D02*
X118864684Y45104937D01*
X118864684Y45104937D02*
X118817065Y44914461D01*
X118817065Y44914461D02*
X118769446Y44819223D01*
X118769446Y44819223D02*
X118674208Y44723985D01*
X118674208Y44723985D02*
X118531351Y44676365D01*
X118531351Y44676365D02*
X118436113Y44676365D01*
X118436113Y44676365D02*
X118293256Y44723985D01*
X118293256Y44723985D02*
X118245637Y44771604D01*
X118245637Y44771604D02*
X118245637Y45104937D01*
X118245637Y45104937D02*
X118436113Y45104937D01*
X117817065Y44676365D02*
X117817065Y45676365D01*
X117817065Y45676365D02*
X117245637Y44676365D01*
X117245637Y44676365D02*
X117245637Y45676365D01*
X116769446Y44676365D02*
X116769446Y45676365D01*
X116769446Y45676365D02*
X116531351Y45676365D01*
X116531351Y45676365D02*
X116388494Y45628746D01*
X116388494Y45628746D02*
X116293256Y45533508D01*
X116293256Y45533508D02*
X116245637Y45438270D01*
X116245637Y45438270D02*
X116198018Y45247794D01*
X116198018Y45247794D02*
X116198018Y45104937D01*
X116198018Y45104937D02*
X116245637Y44914461D01*
X116245637Y44914461D02*
X116293256Y44819223D01*
X116293256Y44819223D02*
X116388494Y44723985D01*
X116388494Y44723985D02*
X116531351Y44676365D01*
X116531351Y44676365D02*
X116769446Y44676365D01*
X118769446Y48146365D02*
X118436113Y47146365D01*
X118436113Y47146365D02*
X118102780Y48146365D01*
X117198018Y47241604D02*
X117245637Y47193985D01*
X117245637Y47193985D02*
X117388494Y47146365D01*
X117388494Y47146365D02*
X117483732Y47146365D01*
X117483732Y47146365D02*
X117626589Y47193985D01*
X117626589Y47193985D02*
X117721827Y47289223D01*
X117721827Y47289223D02*
X117769446Y47384461D01*
X117769446Y47384461D02*
X117817065Y47574937D01*
X117817065Y47574937D02*
X117817065Y47717794D01*
X117817065Y47717794D02*
X117769446Y47908270D01*
X117769446Y47908270D02*
X117721827Y48003508D01*
X117721827Y48003508D02*
X117626589Y48098746D01*
X117626589Y48098746D02*
X117483732Y48146365D01*
X117483732Y48146365D02*
X117388494Y48146365D01*
X117388494Y48146365D02*
X117245637Y48098746D01*
X117245637Y48098746D02*
X117198018Y48051127D01*
X116198018Y47241604D02*
X116245637Y47193985D01*
X116245637Y47193985D02*
X116388494Y47146365D01*
X116388494Y47146365D02*
X116483732Y47146365D01*
X116483732Y47146365D02*
X116626589Y47193985D01*
X116626589Y47193985D02*
X116721827Y47289223D01*
X116721827Y47289223D02*
X116769446Y47384461D01*
X116769446Y47384461D02*
X116817065Y47574937D01*
X116817065Y47574937D02*
X116817065Y47717794D01*
X116817065Y47717794D02*
X116769446Y47908270D01*
X116769446Y47908270D02*
X116721827Y48003508D01*
X116721827Y48003508D02*
X116626589Y48098746D01*
X116626589Y48098746D02*
X116483732Y48146365D01*
X116483732Y48146365D02*
X116388494Y48146365D01*
X116388494Y48146365D02*
X116245637Y48098746D01*
X116245637Y48098746D02*
X116198018Y48051127D01*
X118769446Y49592800D02*
X118626589Y49545180D01*
X118626589Y49545180D02*
X118388494Y49545180D01*
X118388494Y49545180D02*
X118293256Y49592800D01*
X118293256Y49592800D02*
X118245637Y49640419D01*
X118245637Y49640419D02*
X118198018Y49735657D01*
X118198018Y49735657D02*
X118198018Y49830895D01*
X118198018Y49830895D02*
X118245637Y49926133D01*
X118245637Y49926133D02*
X118293256Y49973752D01*
X118293256Y49973752D02*
X118388494Y50021371D01*
X118388494Y50021371D02*
X118578970Y50068990D01*
X118578970Y50068990D02*
X118674208Y50116609D01*
X118674208Y50116609D02*
X118721827Y50164228D01*
X118721827Y50164228D02*
X118769446Y50259466D01*
X118769446Y50259466D02*
X118769446Y50354704D01*
X118769446Y50354704D02*
X118721827Y50449942D01*
X118721827Y50449942D02*
X118674208Y50497561D01*
X118674208Y50497561D02*
X118578970Y50545180D01*
X118578970Y50545180D02*
X118340875Y50545180D01*
X118340875Y50545180D02*
X118198018Y50497561D01*
X117198018Y49640419D02*
X117245637Y49592800D01*
X117245637Y49592800D02*
X117388494Y49545180D01*
X117388494Y49545180D02*
X117483732Y49545180D01*
X117483732Y49545180D02*
X117626589Y49592800D01*
X117626589Y49592800D02*
X117721827Y49688038D01*
X117721827Y49688038D02*
X117769446Y49783276D01*
X117769446Y49783276D02*
X117817065Y49973752D01*
X117817065Y49973752D02*
X117817065Y50116609D01*
X117817065Y50116609D02*
X117769446Y50307085D01*
X117769446Y50307085D02*
X117721827Y50402323D01*
X117721827Y50402323D02*
X117626589Y50497561D01*
X117626589Y50497561D02*
X117483732Y50545180D01*
X117483732Y50545180D02*
X117388494Y50545180D01*
X117388494Y50545180D02*
X117245637Y50497561D01*
X117245637Y50497561D02*
X117198018Y50449942D01*
X116769446Y49545180D02*
X116769446Y50545180D01*
X116198018Y49545180D02*
X116626589Y50116609D01*
X116198018Y50545180D02*
X116769446Y49973752D01*
X105584248Y28019279D02*
X104584248Y28019279D01*
X104584248Y28019279D02*
X104584248Y27638327D01*
X104584248Y27638327D02*
X104631867Y27543089D01*
X104631867Y27543089D02*
X104679486Y27495470D01*
X104679486Y27495470D02*
X104774724Y27447851D01*
X104774724Y27447851D02*
X104917581Y27447851D01*
X104917581Y27447851D02*
X105012819Y27495470D01*
X105012819Y27495470D02*
X105060438Y27543089D01*
X105060438Y27543089D02*
X105108057Y27638327D01*
X105108057Y27638327D02*
X105108057Y28019279D01*
X104584248Y27114517D02*
X104584248Y26495470D01*
X104584248Y26495470D02*
X104965200Y26828803D01*
X104965200Y26828803D02*
X104965200Y26685946D01*
X104965200Y26685946D02*
X105012819Y26590708D01*
X105012819Y26590708D02*
X105060438Y26543089D01*
X105060438Y26543089D02*
X105155676Y26495470D01*
X105155676Y26495470D02*
X105393771Y26495470D01*
X105393771Y26495470D02*
X105489009Y26543089D01*
X105489009Y26543089D02*
X105536629Y26590708D01*
X105536629Y26590708D02*
X105584248Y26685946D01*
X105584248Y26685946D02*
X105584248Y26971660D01*
X105584248Y26971660D02*
X105536629Y27066898D01*
X105536629Y27066898D02*
X105489009Y27114517D01*
X108124248Y37435470D02*
X107124248Y37435470D01*
X107124248Y37435470D02*
X107124248Y37054518D01*
X107124248Y37054518D02*
X107171867Y36959280D01*
X107171867Y36959280D02*
X107219486Y36911661D01*
X107219486Y36911661D02*
X107314724Y36864042D01*
X107314724Y36864042D02*
X107457581Y36864042D01*
X107457581Y36864042D02*
X107552819Y36911661D01*
X107552819Y36911661D02*
X107600438Y36959280D01*
X107600438Y36959280D02*
X107648057Y37054518D01*
X107648057Y37054518D02*
X107648057Y37435470D01*
X107219486Y36483089D02*
X107171867Y36435470D01*
X107171867Y36435470D02*
X107124248Y36340232D01*
X107124248Y36340232D02*
X107124248Y36102137D01*
X107124248Y36102137D02*
X107171867Y36006899D01*
X107171867Y36006899D02*
X107219486Y35959280D01*
X107219486Y35959280D02*
X107314724Y35911661D01*
X107314724Y35911661D02*
X107409962Y35911661D01*
X107409962Y35911661D02*
X107552819Y35959280D01*
X107552819Y35959280D02*
X108124248Y36530708D01*
X108124248Y36530708D02*
X108124248Y35911661D01*
X108124248Y34959280D02*
X108124248Y35530708D01*
X108124248Y35244994D02*
X107124248Y35244994D01*
X107124248Y35244994D02*
X107267105Y35340232D01*
X107267105Y35340232D02*
X107362343Y35435470D01*
X107362343Y35435470D02*
X107409962Y35530708D01*
X97964248Y28019279D02*
X96964248Y28019279D01*
X96964248Y28019279D02*
X96964248Y27638327D01*
X96964248Y27638327D02*
X97011867Y27543089D01*
X97011867Y27543089D02*
X97059486Y27495470D01*
X97059486Y27495470D02*
X97154724Y27447851D01*
X97154724Y27447851D02*
X97297581Y27447851D01*
X97297581Y27447851D02*
X97392819Y27495470D01*
X97392819Y27495470D02*
X97440438Y27543089D01*
X97440438Y27543089D02*
X97488057Y27638327D01*
X97488057Y27638327D02*
X97488057Y28019279D01*
X96964248Y26590708D02*
X96964248Y26781184D01*
X96964248Y26781184D02*
X97011867Y26876422D01*
X97011867Y26876422D02*
X97059486Y26924041D01*
X97059486Y26924041D02*
X97202343Y27019279D01*
X97202343Y27019279D02*
X97392819Y27066898D01*
X97392819Y27066898D02*
X97773771Y27066898D01*
X97773771Y27066898D02*
X97869009Y27019279D01*
X97869009Y27019279D02*
X97916629Y26971660D01*
X97916629Y26971660D02*
X97964248Y26876422D01*
X97964248Y26876422D02*
X97964248Y26685946D01*
X97964248Y26685946D02*
X97916629Y26590708D01*
X97916629Y26590708D02*
X97869009Y26543089D01*
X97869009Y26543089D02*
X97773771Y26495470D01*
X97773771Y26495470D02*
X97535676Y26495470D01*
X97535676Y26495470D02*
X97440438Y26543089D01*
X97440438Y26543089D02*
X97392819Y26590708D01*
X97392819Y26590708D02*
X97345200Y26685946D01*
X97345200Y26685946D02*
X97345200Y26876422D01*
X97345200Y26876422D02*
X97392819Y26971660D01*
X97392819Y26971660D02*
X97440438Y27019279D01*
X97440438Y27019279D02*
X97535676Y27066898D01*
X100504248Y28019279D02*
X99504248Y28019279D01*
X99504248Y28019279D02*
X99504248Y27638327D01*
X99504248Y27638327D02*
X99551867Y27543089D01*
X99551867Y27543089D02*
X99599486Y27495470D01*
X99599486Y27495470D02*
X99694724Y27447851D01*
X99694724Y27447851D02*
X99837581Y27447851D01*
X99837581Y27447851D02*
X99932819Y27495470D01*
X99932819Y27495470D02*
X99980438Y27543089D01*
X99980438Y27543089D02*
X100028057Y27638327D01*
X100028057Y27638327D02*
X100028057Y28019279D01*
X99504248Y26543089D02*
X99504248Y27019279D01*
X99504248Y27019279D02*
X99980438Y27066898D01*
X99980438Y27066898D02*
X99932819Y27019279D01*
X99932819Y27019279D02*
X99885200Y26924041D01*
X99885200Y26924041D02*
X99885200Y26685946D01*
X99885200Y26685946D02*
X99932819Y26590708D01*
X99932819Y26590708D02*
X99980438Y26543089D01*
X99980438Y26543089D02*
X100075676Y26495470D01*
X100075676Y26495470D02*
X100313771Y26495470D01*
X100313771Y26495470D02*
X100409009Y26543089D01*
X100409009Y26543089D02*
X100456629Y26590708D01*
X100456629Y26590708D02*
X100504248Y26685946D01*
X100504248Y26685946D02*
X100504248Y26924041D01*
X100504248Y26924041D02*
X100456629Y27019279D01*
X100456629Y27019279D02*
X100409009Y27066898D01*
X105584248Y37435470D02*
X104584248Y37435470D01*
X104584248Y37435470D02*
X104584248Y37054518D01*
X104584248Y37054518D02*
X104631867Y36959280D01*
X104631867Y36959280D02*
X104679486Y36911661D01*
X104679486Y36911661D02*
X104774724Y36864042D01*
X104774724Y36864042D02*
X104917581Y36864042D01*
X104917581Y36864042D02*
X105012819Y36911661D01*
X105012819Y36911661D02*
X105060438Y36959280D01*
X105060438Y36959280D02*
X105108057Y37054518D01*
X105108057Y37054518D02*
X105108057Y37435470D01*
X104679486Y36483089D02*
X104631867Y36435470D01*
X104631867Y36435470D02*
X104584248Y36340232D01*
X104584248Y36340232D02*
X104584248Y36102137D01*
X104584248Y36102137D02*
X104631867Y36006899D01*
X104631867Y36006899D02*
X104679486Y35959280D01*
X104679486Y35959280D02*
X104774724Y35911661D01*
X104774724Y35911661D02*
X104869962Y35911661D01*
X104869962Y35911661D02*
X105012819Y35959280D01*
X105012819Y35959280D02*
X105584248Y36530708D01*
X105584248Y36530708D02*
X105584248Y35911661D01*
X104584248Y35292613D02*
X104584248Y35197375D01*
X104584248Y35197375D02*
X104631867Y35102137D01*
X104631867Y35102137D02*
X104679486Y35054518D01*
X104679486Y35054518D02*
X104774724Y35006899D01*
X104774724Y35006899D02*
X104965200Y34959280D01*
X104965200Y34959280D02*
X105203295Y34959280D01*
X105203295Y34959280D02*
X105393771Y35006899D01*
X105393771Y35006899D02*
X105489009Y35054518D01*
X105489009Y35054518D02*
X105536629Y35102137D01*
X105536629Y35102137D02*
X105584248Y35197375D01*
X105584248Y35197375D02*
X105584248Y35292613D01*
X105584248Y35292613D02*
X105536629Y35387851D01*
X105536629Y35387851D02*
X105489009Y35435470D01*
X105489009Y35435470D02*
X105393771Y35483089D01*
X105393771Y35483089D02*
X105203295Y35530708D01*
X105203295Y35530708D02*
X104965200Y35530708D01*
X104965200Y35530708D02*
X104774724Y35483089D01*
X104774724Y35483089D02*
X104679486Y35435470D01*
X104679486Y35435470D02*
X104631867Y35387851D01*
X104631867Y35387851D02*
X104584248Y35292613D01*
X114791867Y36983089D02*
X114744248Y37078327D01*
X114744248Y37078327D02*
X114744248Y37221184D01*
X114744248Y37221184D02*
X114791867Y37364041D01*
X114791867Y37364041D02*
X114887105Y37459279D01*
X114887105Y37459279D02*
X114982343Y37506898D01*
X114982343Y37506898D02*
X115172819Y37554517D01*
X115172819Y37554517D02*
X115315676Y37554517D01*
X115315676Y37554517D02*
X115506152Y37506898D01*
X115506152Y37506898D02*
X115601390Y37459279D01*
X115601390Y37459279D02*
X115696629Y37364041D01*
X115696629Y37364041D02*
X115744248Y37221184D01*
X115744248Y37221184D02*
X115744248Y37125946D01*
X115744248Y37125946D02*
X115696629Y36983089D01*
X115696629Y36983089D02*
X115649009Y36935470D01*
X115649009Y36935470D02*
X115315676Y36935470D01*
X115315676Y36935470D02*
X115315676Y37125946D01*
X115744248Y36506898D02*
X114744248Y36506898D01*
X114744248Y36506898D02*
X115744248Y35935470D01*
X115744248Y35935470D02*
X114744248Y35935470D01*
X115744248Y35459279D02*
X114744248Y35459279D01*
X114744248Y35459279D02*
X114744248Y35221184D01*
X114744248Y35221184D02*
X114791867Y35078327D01*
X114791867Y35078327D02*
X114887105Y34983089D01*
X114887105Y34983089D02*
X114982343Y34935470D01*
X114982343Y34935470D02*
X115172819Y34887851D01*
X115172819Y34887851D02*
X115315676Y34887851D01*
X115315676Y34887851D02*
X115506152Y34935470D01*
X115506152Y34935470D02*
X115601390Y34983089D01*
X115601390Y34983089D02*
X115696629Y35078327D01*
X115696629Y35078327D02*
X115744248Y35221184D01*
X115744248Y35221184D02*
X115744248Y35459279D01*
X92884248Y28019279D02*
X91884248Y28019279D01*
X91884248Y28019279D02*
X91884248Y27638327D01*
X91884248Y27638327D02*
X91931867Y27543089D01*
X91931867Y27543089D02*
X91979486Y27495470D01*
X91979486Y27495470D02*
X92074724Y27447851D01*
X92074724Y27447851D02*
X92217581Y27447851D01*
X92217581Y27447851D02*
X92312819Y27495470D01*
X92312819Y27495470D02*
X92360438Y27543089D01*
X92360438Y27543089D02*
X92408057Y27638327D01*
X92408057Y27638327D02*
X92408057Y28019279D01*
X92312819Y26876422D02*
X92265200Y26971660D01*
X92265200Y26971660D02*
X92217581Y27019279D01*
X92217581Y27019279D02*
X92122343Y27066898D01*
X92122343Y27066898D02*
X92074724Y27066898D01*
X92074724Y27066898D02*
X91979486Y27019279D01*
X91979486Y27019279D02*
X91931867Y26971660D01*
X91931867Y26971660D02*
X91884248Y26876422D01*
X91884248Y26876422D02*
X91884248Y26685946D01*
X91884248Y26685946D02*
X91931867Y26590708D01*
X91931867Y26590708D02*
X91979486Y26543089D01*
X91979486Y26543089D02*
X92074724Y26495470D01*
X92074724Y26495470D02*
X92122343Y26495470D01*
X92122343Y26495470D02*
X92217581Y26543089D01*
X92217581Y26543089D02*
X92265200Y26590708D01*
X92265200Y26590708D02*
X92312819Y26685946D01*
X92312819Y26685946D02*
X92312819Y26876422D01*
X92312819Y26876422D02*
X92360438Y26971660D01*
X92360438Y26971660D02*
X92408057Y27019279D01*
X92408057Y27019279D02*
X92503295Y27066898D01*
X92503295Y27066898D02*
X92693771Y27066898D01*
X92693771Y27066898D02*
X92789009Y27019279D01*
X92789009Y27019279D02*
X92836629Y26971660D01*
X92836629Y26971660D02*
X92884248Y26876422D01*
X92884248Y26876422D02*
X92884248Y26685946D01*
X92884248Y26685946D02*
X92836629Y26590708D01*
X92836629Y26590708D02*
X92789009Y26543089D01*
X92789009Y26543089D02*
X92693771Y26495470D01*
X92693771Y26495470D02*
X92503295Y26495470D01*
X92503295Y26495470D02*
X92408057Y26543089D01*
X92408057Y26543089D02*
X92360438Y26590708D01*
X92360438Y26590708D02*
X92312819Y26685946D01*
X109711867Y28043089D02*
X109664248Y28138327D01*
X109664248Y28138327D02*
X109664248Y28281184D01*
X109664248Y28281184D02*
X109711867Y28424041D01*
X109711867Y28424041D02*
X109807105Y28519279D01*
X109807105Y28519279D02*
X109902343Y28566898D01*
X109902343Y28566898D02*
X110092819Y28614517D01*
X110092819Y28614517D02*
X110235676Y28614517D01*
X110235676Y28614517D02*
X110426152Y28566898D01*
X110426152Y28566898D02*
X110521390Y28519279D01*
X110521390Y28519279D02*
X110616629Y28424041D01*
X110616629Y28424041D02*
X110664248Y28281184D01*
X110664248Y28281184D02*
X110664248Y28185946D01*
X110664248Y28185946D02*
X110616629Y28043089D01*
X110616629Y28043089D02*
X110569009Y27995470D01*
X110569009Y27995470D02*
X110235676Y27995470D01*
X110235676Y27995470D02*
X110235676Y28185946D01*
X110664248Y27566898D02*
X109664248Y27566898D01*
X109664248Y27566898D02*
X110664248Y26995470D01*
X110664248Y26995470D02*
X109664248Y26995470D01*
X110664248Y26519279D02*
X109664248Y26519279D01*
X109664248Y26519279D02*
X109664248Y26281184D01*
X109664248Y26281184D02*
X109711867Y26138327D01*
X109711867Y26138327D02*
X109807105Y26043089D01*
X109807105Y26043089D02*
X109902343Y25995470D01*
X109902343Y25995470D02*
X110092819Y25947851D01*
X110092819Y25947851D02*
X110235676Y25947851D01*
X110235676Y25947851D02*
X110426152Y25995470D01*
X110426152Y25995470D02*
X110521390Y26043089D01*
X110521390Y26043089D02*
X110616629Y26138327D01*
X110616629Y26138327D02*
X110664248Y26281184D01*
X110664248Y26281184D02*
X110664248Y26519279D01*
X118284248Y28019279D02*
X117284248Y28019279D01*
X117284248Y28019279D02*
X117284248Y27638327D01*
X117284248Y27638327D02*
X117331867Y27543089D01*
X117331867Y27543089D02*
X117379486Y27495470D01*
X117379486Y27495470D02*
X117474724Y27447851D01*
X117474724Y27447851D02*
X117617581Y27447851D01*
X117617581Y27447851D02*
X117712819Y27495470D01*
X117712819Y27495470D02*
X117760438Y27543089D01*
X117760438Y27543089D02*
X117808057Y27638327D01*
X117808057Y27638327D02*
X117808057Y28019279D01*
X118284248Y26495470D02*
X118284248Y27066898D01*
X118284248Y26781184D02*
X117284248Y26781184D01*
X117284248Y26781184D02*
X117427105Y26876422D01*
X117427105Y26876422D02*
X117522343Y26971660D01*
X117522343Y26971660D02*
X117569962Y27066898D01*
X92884248Y37435470D02*
X91884248Y37435470D01*
X91884248Y37435470D02*
X91884248Y37054518D01*
X91884248Y37054518D02*
X91931867Y36959280D01*
X91931867Y36959280D02*
X91979486Y36911661D01*
X91979486Y36911661D02*
X92074724Y36864042D01*
X92074724Y36864042D02*
X92217581Y36864042D01*
X92217581Y36864042D02*
X92312819Y36911661D01*
X92312819Y36911661D02*
X92360438Y36959280D01*
X92360438Y36959280D02*
X92408057Y37054518D01*
X92408057Y37054518D02*
X92408057Y37435470D01*
X92884248Y35911661D02*
X92884248Y36483089D01*
X92884248Y36197375D02*
X91884248Y36197375D01*
X91884248Y36197375D02*
X92027105Y36292613D01*
X92027105Y36292613D02*
X92122343Y36387851D01*
X92122343Y36387851D02*
X92169962Y36483089D01*
X91884248Y35054518D02*
X91884248Y35244994D01*
X91884248Y35244994D02*
X91931867Y35340232D01*
X91931867Y35340232D02*
X91979486Y35387851D01*
X91979486Y35387851D02*
X92122343Y35483089D01*
X92122343Y35483089D02*
X92312819Y35530708D01*
X92312819Y35530708D02*
X92693771Y35530708D01*
X92693771Y35530708D02*
X92789009Y35483089D01*
X92789009Y35483089D02*
X92836629Y35435470D01*
X92836629Y35435470D02*
X92884248Y35340232D01*
X92884248Y35340232D02*
X92884248Y35149756D01*
X92884248Y35149756D02*
X92836629Y35054518D01*
X92836629Y35054518D02*
X92789009Y35006899D01*
X92789009Y35006899D02*
X92693771Y34959280D01*
X92693771Y34959280D02*
X92455676Y34959280D01*
X92455676Y34959280D02*
X92360438Y35006899D01*
X92360438Y35006899D02*
X92312819Y35054518D01*
X92312819Y35054518D02*
X92265200Y35149756D01*
X92265200Y35149756D02*
X92265200Y35340232D01*
X92265200Y35340232D02*
X92312819Y35435470D01*
X92312819Y35435470D02*
X92360438Y35483089D01*
X92360438Y35483089D02*
X92455676Y35530708D01*
X100504248Y37435470D02*
X99504248Y37435470D01*
X99504248Y37435470D02*
X99504248Y37054518D01*
X99504248Y37054518D02*
X99551867Y36959280D01*
X99551867Y36959280D02*
X99599486Y36911661D01*
X99599486Y36911661D02*
X99694724Y36864042D01*
X99694724Y36864042D02*
X99837581Y36864042D01*
X99837581Y36864042D02*
X99932819Y36911661D01*
X99932819Y36911661D02*
X99980438Y36959280D01*
X99980438Y36959280D02*
X100028057Y37054518D01*
X100028057Y37054518D02*
X100028057Y37435470D01*
X100504248Y35911661D02*
X100504248Y36483089D01*
X100504248Y36197375D02*
X99504248Y36197375D01*
X99504248Y36197375D02*
X99647105Y36292613D01*
X99647105Y36292613D02*
X99742343Y36387851D01*
X99742343Y36387851D02*
X99789962Y36483089D01*
X99932819Y35340232D02*
X99885200Y35435470D01*
X99885200Y35435470D02*
X99837581Y35483089D01*
X99837581Y35483089D02*
X99742343Y35530708D01*
X99742343Y35530708D02*
X99694724Y35530708D01*
X99694724Y35530708D02*
X99599486Y35483089D01*
X99599486Y35483089D02*
X99551867Y35435470D01*
X99551867Y35435470D02*
X99504248Y35340232D01*
X99504248Y35340232D02*
X99504248Y35149756D01*
X99504248Y35149756D02*
X99551867Y35054518D01*
X99551867Y35054518D02*
X99599486Y35006899D01*
X99599486Y35006899D02*
X99694724Y34959280D01*
X99694724Y34959280D02*
X99742343Y34959280D01*
X99742343Y34959280D02*
X99837581Y35006899D01*
X99837581Y35006899D02*
X99885200Y35054518D01*
X99885200Y35054518D02*
X99932819Y35149756D01*
X99932819Y35149756D02*
X99932819Y35340232D01*
X99932819Y35340232D02*
X99980438Y35435470D01*
X99980438Y35435470D02*
X100028057Y35483089D01*
X100028057Y35483089D02*
X100123295Y35530708D01*
X100123295Y35530708D02*
X100313771Y35530708D01*
X100313771Y35530708D02*
X100409009Y35483089D01*
X100409009Y35483089D02*
X100456629Y35435470D01*
X100456629Y35435470D02*
X100504248Y35340232D01*
X100504248Y35340232D02*
X100504248Y35149756D01*
X100504248Y35149756D02*
X100456629Y35054518D01*
X100456629Y35054518D02*
X100409009Y35006899D01*
X100409009Y35006899D02*
X100313771Y34959280D01*
X100313771Y34959280D02*
X100123295Y34959280D01*
X100123295Y34959280D02*
X100028057Y35006899D01*
X100028057Y35006899D02*
X99980438Y35054518D01*
X99980438Y35054518D02*
X99932819Y35149756D01*
X108124248Y28019279D02*
X107124248Y28019279D01*
X107124248Y28019279D02*
X107124248Y27638327D01*
X107124248Y27638327D02*
X107171867Y27543089D01*
X107171867Y27543089D02*
X107219486Y27495470D01*
X107219486Y27495470D02*
X107314724Y27447851D01*
X107314724Y27447851D02*
X107457581Y27447851D01*
X107457581Y27447851D02*
X107552819Y27495470D01*
X107552819Y27495470D02*
X107600438Y27543089D01*
X107600438Y27543089D02*
X107648057Y27638327D01*
X107648057Y27638327D02*
X107648057Y28019279D01*
X107219486Y27066898D02*
X107171867Y27019279D01*
X107171867Y27019279D02*
X107124248Y26924041D01*
X107124248Y26924041D02*
X107124248Y26685946D01*
X107124248Y26685946D02*
X107171867Y26590708D01*
X107171867Y26590708D02*
X107219486Y26543089D01*
X107219486Y26543089D02*
X107314724Y26495470D01*
X107314724Y26495470D02*
X107409962Y26495470D01*
X107409962Y26495470D02*
X107552819Y26543089D01*
X107552819Y26543089D02*
X108124248Y27114517D01*
X108124248Y27114517D02*
X108124248Y26495470D01*
X113204248Y36768804D02*
X112728057Y37102137D01*
X113204248Y37340232D02*
X112204248Y37340232D01*
X112204248Y37340232D02*
X112204248Y36959280D01*
X112204248Y36959280D02*
X112251867Y36864042D01*
X112251867Y36864042D02*
X112299486Y36816423D01*
X112299486Y36816423D02*
X112394724Y36768804D01*
X112394724Y36768804D02*
X112537581Y36768804D01*
X112537581Y36768804D02*
X112632819Y36816423D01*
X112632819Y36816423D02*
X112680438Y36864042D01*
X112680438Y36864042D02*
X112728057Y36959280D01*
X112728057Y36959280D02*
X112728057Y37340232D01*
X113156629Y36387851D02*
X113204248Y36244994D01*
X113204248Y36244994D02*
X113204248Y36006899D01*
X113204248Y36006899D02*
X113156629Y35911661D01*
X113156629Y35911661D02*
X113109009Y35864042D01*
X113109009Y35864042D02*
X113013771Y35816423D01*
X113013771Y35816423D02*
X112918533Y35816423D01*
X112918533Y35816423D02*
X112823295Y35864042D01*
X112823295Y35864042D02*
X112775676Y35911661D01*
X112775676Y35911661D02*
X112728057Y36006899D01*
X112728057Y36006899D02*
X112680438Y36197375D01*
X112680438Y36197375D02*
X112632819Y36292613D01*
X112632819Y36292613D02*
X112585200Y36340232D01*
X112585200Y36340232D02*
X112489962Y36387851D01*
X112489962Y36387851D02*
X112394724Y36387851D01*
X112394724Y36387851D02*
X112299486Y36340232D01*
X112299486Y36340232D02*
X112251867Y36292613D01*
X112251867Y36292613D02*
X112204248Y36197375D01*
X112204248Y36197375D02*
X112204248Y35959280D01*
X112204248Y35959280D02*
X112251867Y35816423D01*
X112204248Y35530708D02*
X112204248Y34959280D01*
X113204248Y35244994D02*
X112204248Y35244994D01*
X109664248Y37554517D02*
X110664248Y37221184D01*
X110664248Y37221184D02*
X109664248Y36887851D01*
X110569009Y35983089D02*
X110616629Y36030708D01*
X110616629Y36030708D02*
X110664248Y36173565D01*
X110664248Y36173565D02*
X110664248Y36268803D01*
X110664248Y36268803D02*
X110616629Y36411660D01*
X110616629Y36411660D02*
X110521390Y36506898D01*
X110521390Y36506898D02*
X110426152Y36554517D01*
X110426152Y36554517D02*
X110235676Y36602136D01*
X110235676Y36602136D02*
X110092819Y36602136D01*
X110092819Y36602136D02*
X109902343Y36554517D01*
X109902343Y36554517D02*
X109807105Y36506898D01*
X109807105Y36506898D02*
X109711867Y36411660D01*
X109711867Y36411660D02*
X109664248Y36268803D01*
X109664248Y36268803D02*
X109664248Y36173565D01*
X109664248Y36173565D02*
X109711867Y36030708D01*
X109711867Y36030708D02*
X109759486Y35983089D01*
X110569009Y34983089D02*
X110616629Y35030708D01*
X110616629Y35030708D02*
X110664248Y35173565D01*
X110664248Y35173565D02*
X110664248Y35268803D01*
X110664248Y35268803D02*
X110616629Y35411660D01*
X110616629Y35411660D02*
X110521390Y35506898D01*
X110521390Y35506898D02*
X110426152Y35554517D01*
X110426152Y35554517D02*
X110235676Y35602136D01*
X110235676Y35602136D02*
X110092819Y35602136D01*
X110092819Y35602136D02*
X109902343Y35554517D01*
X109902343Y35554517D02*
X109807105Y35506898D01*
X109807105Y35506898D02*
X109711867Y35411660D01*
X109711867Y35411660D02*
X109664248Y35268803D01*
X109664248Y35268803D02*
X109664248Y35173565D01*
X109664248Y35173565D02*
X109711867Y35030708D01*
X109711867Y35030708D02*
X109759486Y34983089D01*
X95424248Y28019279D02*
X94424248Y28019279D01*
X94424248Y28019279D02*
X94424248Y27638327D01*
X94424248Y27638327D02*
X94471867Y27543089D01*
X94471867Y27543089D02*
X94519486Y27495470D01*
X94519486Y27495470D02*
X94614724Y27447851D01*
X94614724Y27447851D02*
X94757581Y27447851D01*
X94757581Y27447851D02*
X94852819Y27495470D01*
X94852819Y27495470D02*
X94900438Y27543089D01*
X94900438Y27543089D02*
X94948057Y27638327D01*
X94948057Y27638327D02*
X94948057Y28019279D01*
X94424248Y27114517D02*
X94424248Y26447851D01*
X94424248Y26447851D02*
X95424248Y26876422D01*
X97964248Y37435470D02*
X96964248Y37435470D01*
X96964248Y37435470D02*
X96964248Y37054518D01*
X96964248Y37054518D02*
X97011867Y36959280D01*
X97011867Y36959280D02*
X97059486Y36911661D01*
X97059486Y36911661D02*
X97154724Y36864042D01*
X97154724Y36864042D02*
X97297581Y36864042D01*
X97297581Y36864042D02*
X97392819Y36911661D01*
X97392819Y36911661D02*
X97440438Y36959280D01*
X97440438Y36959280D02*
X97488057Y37054518D01*
X97488057Y37054518D02*
X97488057Y37435470D01*
X97964248Y35911661D02*
X97964248Y36483089D01*
X97964248Y36197375D02*
X96964248Y36197375D01*
X96964248Y36197375D02*
X97107105Y36292613D01*
X97107105Y36292613D02*
X97202343Y36387851D01*
X97202343Y36387851D02*
X97249962Y36483089D01*
X96964248Y35006899D02*
X96964248Y35483089D01*
X96964248Y35483089D02*
X97440438Y35530708D01*
X97440438Y35530708D02*
X97392819Y35483089D01*
X97392819Y35483089D02*
X97345200Y35387851D01*
X97345200Y35387851D02*
X97345200Y35149756D01*
X97345200Y35149756D02*
X97392819Y35054518D01*
X97392819Y35054518D02*
X97440438Y35006899D01*
X97440438Y35006899D02*
X97535676Y34959280D01*
X97535676Y34959280D02*
X97773771Y34959280D01*
X97773771Y34959280D02*
X97869009Y35006899D01*
X97869009Y35006899D02*
X97916629Y35054518D01*
X97916629Y35054518D02*
X97964248Y35149756D01*
X97964248Y35149756D02*
X97964248Y35387851D01*
X97964248Y35387851D02*
X97916629Y35483089D01*
X97916629Y35483089D02*
X97869009Y35530708D01*
X95424248Y37435470D02*
X94424248Y37435470D01*
X94424248Y37435470D02*
X94424248Y37054518D01*
X94424248Y37054518D02*
X94471867Y36959280D01*
X94471867Y36959280D02*
X94519486Y36911661D01*
X94519486Y36911661D02*
X94614724Y36864042D01*
X94614724Y36864042D02*
X94757581Y36864042D01*
X94757581Y36864042D02*
X94852819Y36911661D01*
X94852819Y36911661D02*
X94900438Y36959280D01*
X94900438Y36959280D02*
X94948057Y37054518D01*
X94948057Y37054518D02*
X94948057Y37435470D01*
X95424248Y35911661D02*
X95424248Y36483089D01*
X95424248Y36197375D02*
X94424248Y36197375D01*
X94424248Y36197375D02*
X94567105Y36292613D01*
X94567105Y36292613D02*
X94662343Y36387851D01*
X94662343Y36387851D02*
X94709962Y36483089D01*
X94757581Y35054518D02*
X95424248Y35054518D01*
X94376629Y35292613D02*
X95090914Y35530708D01*
X95090914Y35530708D02*
X95090914Y34911661D01*
X103044248Y37435470D02*
X102044248Y37435470D01*
X102044248Y37435470D02*
X102044248Y37054518D01*
X102044248Y37054518D02*
X102091867Y36959280D01*
X102091867Y36959280D02*
X102139486Y36911661D01*
X102139486Y36911661D02*
X102234724Y36864042D01*
X102234724Y36864042D02*
X102377581Y36864042D01*
X102377581Y36864042D02*
X102472819Y36911661D01*
X102472819Y36911661D02*
X102520438Y36959280D01*
X102520438Y36959280D02*
X102568057Y37054518D01*
X102568057Y37054518D02*
X102568057Y37435470D01*
X103044248Y35911661D02*
X103044248Y36483089D01*
X103044248Y36197375D02*
X102044248Y36197375D01*
X102044248Y36197375D02*
X102187105Y36292613D01*
X102187105Y36292613D02*
X102282343Y36387851D01*
X102282343Y36387851D02*
X102329962Y36483089D01*
X103044248Y35435470D02*
X103044248Y35244994D01*
X103044248Y35244994D02*
X102996629Y35149756D01*
X102996629Y35149756D02*
X102949009Y35102137D01*
X102949009Y35102137D02*
X102806152Y35006899D01*
X102806152Y35006899D02*
X102615676Y34959280D01*
X102615676Y34959280D02*
X102234724Y34959280D01*
X102234724Y34959280D02*
X102139486Y35006899D01*
X102139486Y35006899D02*
X102091867Y35054518D01*
X102091867Y35054518D02*
X102044248Y35149756D01*
X102044248Y35149756D02*
X102044248Y35340232D01*
X102044248Y35340232D02*
X102091867Y35435470D01*
X102091867Y35435470D02*
X102139486Y35483089D01*
X102139486Y35483089D02*
X102234724Y35530708D01*
X102234724Y35530708D02*
X102472819Y35530708D01*
X102472819Y35530708D02*
X102568057Y35483089D01*
X102568057Y35483089D02*
X102615676Y35435470D01*
X102615676Y35435470D02*
X102663295Y35340232D01*
X102663295Y35340232D02*
X102663295Y35149756D01*
X102663295Y35149756D02*
X102615676Y35054518D01*
X102615676Y35054518D02*
X102568057Y35006899D01*
X102568057Y35006899D02*
X102472819Y34959280D01*
X103044248Y28019279D02*
X102044248Y28019279D01*
X102044248Y28019279D02*
X102044248Y27638327D01*
X102044248Y27638327D02*
X102091867Y27543089D01*
X102091867Y27543089D02*
X102139486Y27495470D01*
X102139486Y27495470D02*
X102234724Y27447851D01*
X102234724Y27447851D02*
X102377581Y27447851D01*
X102377581Y27447851D02*
X102472819Y27495470D01*
X102472819Y27495470D02*
X102520438Y27543089D01*
X102520438Y27543089D02*
X102568057Y27638327D01*
X102568057Y27638327D02*
X102568057Y28019279D01*
X102377581Y26590708D02*
X103044248Y26590708D01*
X101996629Y26828803D02*
X102710914Y27066898D01*
X102710914Y27066898D02*
X102710914Y26447851D01*
X118284248Y36911661D02*
X117808057Y37244994D01*
X118284248Y37483089D02*
X117284248Y37483089D01*
X117284248Y37483089D02*
X117284248Y37102137D01*
X117284248Y37102137D02*
X117331867Y37006899D01*
X117331867Y37006899D02*
X117379486Y36959280D01*
X117379486Y36959280D02*
X117474724Y36911661D01*
X117474724Y36911661D02*
X117617581Y36911661D01*
X117617581Y36911661D02*
X117712819Y36959280D01*
X117712819Y36959280D02*
X117760438Y37006899D01*
X117760438Y37006899D02*
X117808057Y37102137D01*
X117808057Y37102137D02*
X117808057Y37483089D01*
X117998533Y36530708D02*
X117998533Y36054518D01*
X118284248Y36625946D02*
X117284248Y36292613D01*
X117284248Y36292613D02*
X118284248Y35959280D01*
X117284248Y35721184D02*
X118284248Y35483089D01*
X118284248Y35483089D02*
X117569962Y35292613D01*
X117569962Y35292613D02*
X118284248Y35102137D01*
X118284248Y35102137D02*
X117284248Y34864042D01*
X112251867Y28043089D02*
X112204248Y28138327D01*
X112204248Y28138327D02*
X112204248Y28281184D01*
X112204248Y28281184D02*
X112251867Y28424041D01*
X112251867Y28424041D02*
X112347105Y28519279D01*
X112347105Y28519279D02*
X112442343Y28566898D01*
X112442343Y28566898D02*
X112632819Y28614517D01*
X112632819Y28614517D02*
X112775676Y28614517D01*
X112775676Y28614517D02*
X112966152Y28566898D01*
X112966152Y28566898D02*
X113061390Y28519279D01*
X113061390Y28519279D02*
X113156629Y28424041D01*
X113156629Y28424041D02*
X113204248Y28281184D01*
X113204248Y28281184D02*
X113204248Y28185946D01*
X113204248Y28185946D02*
X113156629Y28043089D01*
X113156629Y28043089D02*
X113109009Y27995470D01*
X113109009Y27995470D02*
X112775676Y27995470D01*
X112775676Y27995470D02*
X112775676Y28185946D01*
X113204248Y27566898D02*
X112204248Y27566898D01*
X112204248Y27566898D02*
X113204248Y26995470D01*
X113204248Y26995470D02*
X112204248Y26995470D01*
X113204248Y26519279D02*
X112204248Y26519279D01*
X112204248Y26519279D02*
X112204248Y26281184D01*
X112204248Y26281184D02*
X112251867Y26138327D01*
X112251867Y26138327D02*
X112347105Y26043089D01*
X112347105Y26043089D02*
X112442343Y25995470D01*
X112442343Y25995470D02*
X112632819Y25947851D01*
X112632819Y25947851D02*
X112775676Y25947851D01*
X112775676Y25947851D02*
X112966152Y25995470D01*
X112966152Y25995470D02*
X113061390Y26043089D01*
X113061390Y26043089D02*
X113156629Y26138327D01*
X113156629Y26138327D02*
X113204248Y26281184D01*
X113204248Y26281184D02*
X113204248Y26519279D01*
X90344248Y37435470D02*
X89344248Y37435470D01*
X89344248Y37435470D02*
X89344248Y37054518D01*
X89344248Y37054518D02*
X89391867Y36959280D01*
X89391867Y36959280D02*
X89439486Y36911661D01*
X89439486Y36911661D02*
X89534724Y36864042D01*
X89534724Y36864042D02*
X89677581Y36864042D01*
X89677581Y36864042D02*
X89772819Y36911661D01*
X89772819Y36911661D02*
X89820438Y36959280D01*
X89820438Y36959280D02*
X89868057Y37054518D01*
X89868057Y37054518D02*
X89868057Y37435470D01*
X90344248Y35911661D02*
X90344248Y36483089D01*
X90344248Y36197375D02*
X89344248Y36197375D01*
X89344248Y36197375D02*
X89487105Y36292613D01*
X89487105Y36292613D02*
X89582343Y36387851D01*
X89582343Y36387851D02*
X89629962Y36483089D01*
X89344248Y35292613D02*
X89344248Y35197375D01*
X89344248Y35197375D02*
X89391867Y35102137D01*
X89391867Y35102137D02*
X89439486Y35054518D01*
X89439486Y35054518D02*
X89534724Y35006899D01*
X89534724Y35006899D02*
X89725200Y34959280D01*
X89725200Y34959280D02*
X89963295Y34959280D01*
X89963295Y34959280D02*
X90153771Y35006899D01*
X90153771Y35006899D02*
X90249009Y35054518D01*
X90249009Y35054518D02*
X90296629Y35102137D01*
X90296629Y35102137D02*
X90344248Y35197375D01*
X90344248Y35197375D02*
X90344248Y35292613D01*
X90344248Y35292613D02*
X90296629Y35387851D01*
X90296629Y35387851D02*
X90249009Y35435470D01*
X90249009Y35435470D02*
X90153771Y35483089D01*
X90153771Y35483089D02*
X89963295Y35530708D01*
X89963295Y35530708D02*
X89725200Y35530708D01*
X89725200Y35530708D02*
X89534724Y35483089D01*
X89534724Y35483089D02*
X89439486Y35435470D01*
X89439486Y35435470D02*
X89391867Y35387851D01*
X89391867Y35387851D02*
X89344248Y35292613D01*
X90344248Y28019279D02*
X89344248Y28019279D01*
X89344248Y28019279D02*
X89344248Y27638327D01*
X89344248Y27638327D02*
X89391867Y27543089D01*
X89391867Y27543089D02*
X89439486Y27495470D01*
X89439486Y27495470D02*
X89534724Y27447851D01*
X89534724Y27447851D02*
X89677581Y27447851D01*
X89677581Y27447851D02*
X89772819Y27495470D01*
X89772819Y27495470D02*
X89820438Y27543089D01*
X89820438Y27543089D02*
X89868057Y27638327D01*
X89868057Y27638327D02*
X89868057Y28019279D01*
X90344248Y26971660D02*
X90344248Y26781184D01*
X90344248Y26781184D02*
X90296629Y26685946D01*
X90296629Y26685946D02*
X90249009Y26638327D01*
X90249009Y26638327D02*
X90106152Y26543089D01*
X90106152Y26543089D02*
X89915676Y26495470D01*
X89915676Y26495470D02*
X89534724Y26495470D01*
X89534724Y26495470D02*
X89439486Y26543089D01*
X89439486Y26543089D02*
X89391867Y26590708D01*
X89391867Y26590708D02*
X89344248Y26685946D01*
X89344248Y26685946D02*
X89344248Y26876422D01*
X89344248Y26876422D02*
X89391867Y26971660D01*
X89391867Y26971660D02*
X89439486Y27019279D01*
X89439486Y27019279D02*
X89534724Y27066898D01*
X89534724Y27066898D02*
X89772819Y27066898D01*
X89772819Y27066898D02*
X89868057Y27019279D01*
X89868057Y27019279D02*
X89915676Y26971660D01*
X89915676Y26971660D02*
X89963295Y26876422D01*
X89963295Y26876422D02*
X89963295Y26685946D01*
X89963295Y26685946D02*
X89915676Y26590708D01*
X89915676Y26590708D02*
X89868057Y26543089D01*
X89868057Y26543089D02*
X89772819Y26495470D01*
X115744248Y28019279D02*
X114744248Y28019279D01*
X114744248Y28019279D02*
X114744248Y27638327D01*
X114744248Y27638327D02*
X114791867Y27543089D01*
X114791867Y27543089D02*
X114839486Y27495470D01*
X114839486Y27495470D02*
X114934724Y27447851D01*
X114934724Y27447851D02*
X115077581Y27447851D01*
X115077581Y27447851D02*
X115172819Y27495470D01*
X115172819Y27495470D02*
X115220438Y27543089D01*
X115220438Y27543089D02*
X115268057Y27638327D01*
X115268057Y27638327D02*
X115268057Y28019279D01*
X114744248Y26828803D02*
X114744248Y26733565D01*
X114744248Y26733565D02*
X114791867Y26638327D01*
X114791867Y26638327D02*
X114839486Y26590708D01*
X114839486Y26590708D02*
X114934724Y26543089D01*
X114934724Y26543089D02*
X115125200Y26495470D01*
X115125200Y26495470D02*
X115363295Y26495470D01*
X115363295Y26495470D02*
X115553771Y26543089D01*
X115553771Y26543089D02*
X115649009Y26590708D01*
X115649009Y26590708D02*
X115696629Y26638327D01*
X115696629Y26638327D02*
X115744248Y26733565D01*
X115744248Y26733565D02*
X115744248Y26828803D01*
X115744248Y26828803D02*
X115696629Y26924041D01*
X115696629Y26924041D02*
X115649009Y26971660D01*
X115649009Y26971660D02*
X115553771Y27019279D01*
X115553771Y27019279D02*
X115363295Y27066898D01*
X115363295Y27066898D02*
X115125200Y27066898D01*
X115125200Y27066898D02*
X114934724Y27019279D01*
X114934724Y27019279D02*
X114839486Y26971660D01*
X114839486Y26971660D02*
X114791867Y26924041D01*
X114791867Y26924041D02*
X114744248Y26828803D01*
D11*
%TO.C,D10*%
X57579429Y26651185D02*
X58179429Y26251185D01*
X57579429Y26251185D02*
X57079429Y26251185D01*
X57579429Y25851185D02*
X57579429Y26651185D01*
X58179429Y26251185D02*
X57579429Y25851185D01*
X58179429Y26251185D02*
X58179429Y26801185D01*
X58179429Y26251185D02*
X58179429Y25701185D01*
X58579429Y26251185D02*
X58179429Y26251185D01*
%TO.C,D19*%
X109173431Y-31485169D02*
X109898478Y-31147075D01*
X109535954Y-31316122D02*
X109324645Y-30862968D01*
X109789525Y-31859907D02*
X109173431Y-31485169D01*
X109789525Y-31859907D02*
X109291056Y-32092347D01*
X109789525Y-31859907D02*
X110287995Y-31627467D01*
X109898478Y-31147075D02*
X109789525Y-31859907D01*
X109958573Y-32222430D02*
X109789525Y-31859907D01*
%TO.C,D17*%
X71572482Y-4072866D02*
X71711400Y-3285020D01*
X71641941Y-3678943D02*
X71149537Y-3592119D01*
X71711400Y-3285020D02*
X72232826Y-3783132D01*
X72232826Y-3783132D02*
X71572482Y-4072866D01*
X72232826Y-3783132D02*
X72137319Y-4324776D01*
X72232826Y-3783132D02*
X72328332Y-3241488D01*
X72626749Y-3852591D02*
X72232826Y-3783132D01*
%TO.C,D13*%
X75579429Y23651185D02*
X76179429Y23251185D01*
X75579429Y23251185D02*
X75079429Y23251185D01*
X75579429Y22851185D02*
X75579429Y23651185D01*
X76179429Y23251185D02*
X75579429Y22851185D01*
X76179429Y23251185D02*
X76179429Y23801185D01*
X76179429Y23251185D02*
X76179429Y22701185D01*
X76579429Y23251185D02*
X76179429Y23251185D01*
%TO.C,D2*%
X-4901759Y21858528D02*
X-4231705Y21592016D01*
X-4818594Y21467269D02*
X-5307668Y21363313D01*
X-4735429Y21076010D02*
X-4901759Y21858528D01*
X-4231705Y21592016D02*
X-4735429Y21076010D01*
X-4231705Y21592016D02*
X-4346057Y22129997D01*
X-4231705Y21592016D02*
X-4117354Y21054035D01*
X-3840446Y21675181D02*
X-4231705Y21592016D01*
%TO.C,D5*%
X16969471Y42725303D02*
X17602050Y42379120D01*
X17004333Y42326825D02*
X16506236Y42283247D01*
X17039196Y41928347D02*
X16969471Y42725303D01*
X17602050Y42379120D02*
X17039196Y41928347D01*
X17602050Y42379120D02*
X17554114Y42927026D01*
X17602050Y42379120D02*
X17649986Y41831211D01*
X18000528Y42413981D02*
X17602050Y42379120D01*
%TO.C,D1*%
X-1367261Y5230019D02*
X-697207Y4963507D01*
X-1284096Y4838760D02*
X-1773170Y4734804D01*
X-1200931Y4447501D02*
X-1367261Y5230019D01*
X-697207Y4963507D02*
X-1200931Y4447501D01*
X-697207Y4963507D02*
X-811559Y5501488D01*
X-697207Y4963507D02*
X-582856Y4425526D01*
X-305948Y5046672D02*
X-697207Y4963507D01*
%TO.C,D7*%
X39579429Y30651185D02*
X40179429Y30251185D01*
X39579429Y30251185D02*
X39079429Y30251185D01*
X39579429Y29851185D02*
X39579429Y30651185D01*
X40179429Y30251185D02*
X39579429Y29851185D01*
X40179429Y30251185D02*
X40179429Y30801185D01*
X40179429Y30251185D02*
X40179429Y29701185D01*
X40579429Y30251185D02*
X40179429Y30251185D01*
%TO.C,D4*%
X18451118Y25789993D02*
X19083697Y25443810D01*
X18485980Y25391515D02*
X17987883Y25347937D01*
X18520843Y24993037D02*
X18451118Y25789993D01*
X19083697Y25443810D02*
X18520843Y24993037D01*
X19083697Y25443810D02*
X19035761Y25991716D01*
X19083697Y25443810D02*
X19131633Y24895901D01*
X19482175Y25478671D02*
X19083697Y25443810D01*
%TO.C,D9*%
X39579429Y64651185D02*
X40179429Y64251185D01*
X39579429Y64251185D02*
X39079429Y64251185D01*
X39579429Y63851185D02*
X39579429Y64651185D01*
X40179429Y64251185D02*
X39579429Y63851185D01*
X40179429Y64251185D02*
X40179429Y64801185D01*
X40179429Y64251185D02*
X40179429Y63701185D01*
X40579429Y64251185D02*
X40179429Y64251185D01*
%TO.C,D8*%
X39579429Y47651185D02*
X40179429Y47251185D01*
X39579429Y47251185D02*
X39079429Y47251185D01*
X39579429Y46851185D02*
X39579429Y47651185D01*
X40179429Y47251185D02*
X39579429Y46851185D01*
X40179429Y47251185D02*
X40179429Y47801185D01*
X40179429Y47251185D02*
X40179429Y46701185D01*
X40579429Y47251185D02*
X40179429Y47251185D01*
%TO.C,D3*%
X-8436258Y38487037D02*
X-7766204Y38220525D01*
X-8353093Y38095778D02*
X-8842167Y37991822D01*
X-8269928Y37704519D02*
X-8436258Y38487037D01*
X-7766204Y38220525D02*
X-8269928Y37704519D01*
X-7766204Y38220525D02*
X-7880556Y38758506D01*
X-7766204Y38220525D02*
X-7651853Y37682544D01*
X-7374945Y38303690D02*
X-7766204Y38220525D01*
%TO.C,D14*%
X75579429Y40651185D02*
X76179429Y40251185D01*
X75579429Y40251185D02*
X75079429Y40251185D01*
X75579429Y39851185D02*
X75579429Y40651185D01*
X76179429Y40251185D02*
X75579429Y39851185D01*
X76179429Y40251185D02*
X76179429Y40801185D01*
X76179429Y40251185D02*
X76179429Y39701185D01*
X76579429Y40251185D02*
X76179429Y40251185D01*
%TO.C,D6*%
X15487823Y59660613D02*
X16120402Y59314430D01*
X15522685Y59262135D02*
X15024588Y59218557D01*
X15557548Y58863657D02*
X15487823Y59660613D01*
X16120402Y59314430D02*
X15557548Y58863657D01*
X16120402Y59314430D02*
X16072466Y59862336D01*
X16120402Y59314430D02*
X16168338Y58766521D01*
X16518880Y59349291D02*
X16120402Y59314430D01*
%TO.C,D12*%
X57579429Y60651185D02*
X58179429Y60251185D01*
X57579429Y60251185D02*
X57079429Y60251185D01*
X57579429Y59851185D02*
X57579429Y60651185D01*
X58179429Y60251185D02*
X57579429Y59851185D01*
X58179429Y60251185D02*
X58179429Y60801185D01*
X58179429Y60251185D02*
X58179429Y59701185D01*
X58579429Y60251185D02*
X58179429Y60251185D01*
%TO.C,D11*%
X57579429Y43651185D02*
X58179429Y43251185D01*
X57579429Y43251185D02*
X57079429Y43251185D01*
X57579429Y42851185D02*
X57579429Y43651185D01*
X58179429Y43251185D02*
X57579429Y42851185D01*
X58179429Y43251185D02*
X58179429Y43801185D01*
X58179429Y43251185D02*
X58179429Y42701185D01*
X58579429Y43251185D02*
X58179429Y43251185D01*
%TO.C,D16*%
X48498248Y-3833336D02*
X49168302Y-4099848D01*
X48581413Y-4224595D02*
X48092339Y-4328551D01*
X48664578Y-4615854D02*
X48498248Y-3833336D01*
X49168302Y-4099848D02*
X48664578Y-4615854D01*
X49168302Y-4099848D02*
X49053950Y-3561867D01*
X49168302Y-4099848D02*
X49282653Y-4637829D01*
X49559561Y-4016683D02*
X49168302Y-4099848D01*
%TO.C,D18*%
X93334796Y-12911408D02*
X93793658Y-12256086D01*
X93564227Y-12583747D02*
X93154651Y-12296959D01*
X93793658Y-12256086D02*
X94055718Y-12927893D01*
X94055718Y-12927893D02*
X93334796Y-12911408D01*
X94055718Y-12927893D02*
X93740251Y-13378426D01*
X94055718Y-12927893D02*
X94371185Y-12477359D01*
X94383379Y-13157323D02*
X94055718Y-12927893D01*
%TO.C,D15*%
X75579429Y57651185D02*
X76179429Y57251185D01*
X75579429Y57251185D02*
X75079429Y57251185D01*
X75579429Y56851185D02*
X75579429Y57651185D01*
X76179429Y57251185D02*
X75579429Y56851185D01*
X76179429Y57251185D02*
X76179429Y57801185D01*
X76179429Y57251185D02*
X76179429Y56701185D01*
X76579429Y57251185D02*
X76179429Y57251185D01*
D12*
%TO.C,DISP1*%
X119199429Y54161185D02*
X121859429Y54161185D01*
X119199429Y41341185D02*
X119199429Y54161185D01*
X119199429Y41341185D02*
X121859429Y41341185D01*
X121859429Y41341185D02*
X121859429Y54161185D01*
%TO.C,MCU1*%
X88559429Y38041185D02*
X88559429Y40701185D01*
X88559429Y22801185D02*
X88559429Y25461185D01*
X116559429Y25461185D02*
X116559429Y22801185D01*
X119159429Y40701185D02*
X88559429Y40701185D01*
X119159429Y38041185D02*
X88559429Y38041185D01*
X119159429Y38041185D02*
X119159429Y40701185D01*
X119159429Y25461185D02*
X88559429Y25461185D01*
X119159429Y22801185D02*
X88559429Y22801185D01*
X119159429Y22801185D02*
X119159429Y25461185D01*
%TD*%
M02*
