%TF.GenerationSoftware,KiCad,Pcbnew,9.0.1*%
%TF.CreationDate,2025-04-13T19:36:13-06:00*%
%TF.ProjectId,v2board,7632626f-6172-4642-9e6b-696361645f70,v1.0.0*%
%TF.SameCoordinates,Original*%
%TF.FileFunction,Paste,Top*%
%TF.FilePolarity,Positive*%
%FSLAX46Y46*%
G04 Gerber Fmt 4.6, Leading zero omitted, Abs format (unit mm)*
G04 Created by KiCad (PCBNEW 9.0.1) date 2025-04-13 19:36:13*
%MOMM*%
%LPD*%
G01*
G04 APERTURE LIST*
G04 Aperture macros list*
%AMRotRect*
0 Rectangle, with rotation*
0 The origin of the aperture is its center*
0 $1 length*
0 $2 width*
0 $3 Rotation angle, in degrees counterclockwise*
0 Add horizontal line*
21,1,$1,$2,0,0,$3*%
G04 Aperture macros list end*
%ADD10R,1.550000X1.000000*%
%ADD11R,2.600000X2.600000*%
%ADD12R,0.900000X1.200000*%
%ADD13RotRect,2.600000X2.600000X192.000000*%
%ADD14RotRect,0.900000X1.200000X115.000000*%
%ADD15RotRect,0.900000X1.200000X170.000000*%
%ADD16RotRect,0.900000X1.200000X192.000000*%
%ADD17RotRect,0.900000X1.200000X185.000000*%
%ADD18RotRect,2.600000X2.600000X185.000000*%
%ADD19RotRect,2.600000X2.600000X170.000000*%
%ADD20RotRect,2.600000X2.600000X115.000000*%
%ADD21RotRect,2.600000X2.600000X145.000000*%
%ADD22RotRect,0.900000X1.200000X145.000000*%
%ADD23R,0.900000X0.900000*%
%ADD24R,0.900000X1.250000*%
G04 APERTURE END LIST*
D10*
%TO.C,RST1*%
X100704429Y58401185D03*
X100704429Y60101185D03*
X105954429Y58401185D03*
X105954429Y60101185D03*
%TD*%
D11*
%TO.C,S11*%
X54554429Y32301185D03*
X66104429Y34501185D03*
%TD*%
D12*
%TO.C,D10*%
X59479429Y26251185D03*
X56179429Y26251185D03*
%TD*%
D13*
%TO.C,S16*%
X47899149Y-15564244D03*
X58739348Y-11010939D03*
%TD*%
D14*
%TO.C,D19*%
X110338929Y-33038107D03*
X108944289Y-30047291D03*
%TD*%
D15*
%TO.C,D17*%
X73513076Y-4008874D03*
X70263210Y-3435836D03*
%TD*%
D12*
%TO.C,D13*%
X77479429Y23251185D03*
X74179429Y23251185D03*
%TD*%
D16*
%TO.C,D2*%
X-2960113Y21862301D03*
X-6188001Y21176193D03*
%TD*%
D17*
%TO.C,D5*%
X18897103Y42492421D03*
X15609661Y42204807D03*
%TD*%
D18*
%TO.C,S6*%
X13463552Y48090156D03*
X24777858Y51288434D03*
%TD*%
D13*
%TO.C,S1*%
X-1966359Y-6500889D03*
X8873840Y-1947584D03*
%TD*%
D11*
%TO.C,S14*%
X72554429Y29301185D03*
X84104429Y31501185D03*
%TD*%
D16*
%TO.C,D1*%
X574385Y5233792D03*
X-2653503Y4547684D03*
%TD*%
D11*
%TO.C,S10*%
X54554429Y15301185D03*
X66104429Y17501185D03*
%TD*%
D12*
%TO.C,D7*%
X41479429Y30251185D03*
X38179429Y30251185D03*
%TD*%
D18*
%TO.C,S4*%
X16426847Y14219537D03*
X27741153Y17417815D03*
%TD*%
D17*
%TO.C,D4*%
X20378750Y25557111D03*
X17091308Y25269497D03*
%TD*%
D12*
%TO.C,D9*%
X41479429Y64251185D03*
X38179429Y64251185D03*
%TD*%
%TO.C,D8*%
X41479429Y47251185D03*
X38179429Y47251185D03*
%TD*%
D16*
%TO.C,D3*%
X-6494612Y38490810D03*
X-9722500Y37804702D03*
%TD*%
D12*
%TO.C,D14*%
X77479429Y40251185D03*
X74179429Y40251185D03*
%TD*%
D11*
%TO.C,S12*%
X54554429Y49301185D03*
X66104429Y51501185D03*
%TD*%
D19*
%TO.C,S17*%
X66761450Y-13937302D03*
X78518005Y-13776362D03*
%TD*%
D13*
%TO.C,S2*%
X-5500858Y10127620D03*
X5339341Y14680925D03*
%TD*%
D18*
%TO.C,S5*%
X14945199Y31154846D03*
X26259505Y34353124D03*
%TD*%
D17*
%TO.C,D6*%
X17415455Y59427731D03*
X14128013Y59140117D03*
%TD*%
D13*
%TO.C,S3*%
X-9035356Y26756129D03*
X1804843Y31309434D03*
%TD*%
D12*
%TO.C,D12*%
X59479429Y60251185D03*
X56179429Y60251185D03*
%TD*%
D11*
%TO.C,S7*%
X36554429Y19301185D03*
X48104429Y21501185D03*
%TD*%
D20*
%TO.C,S19*%
X98333464Y-33202212D03*
X105208582Y-42740306D03*
%TD*%
D21*
%TO.C,S18*%
X84805630Y-19818393D03*
X95528705Y-24641066D03*
%TD*%
D11*
%TO.C,S8*%
X36554429Y36301185D03*
X48104429Y38501185D03*
%TD*%
D12*
%TO.C,D11*%
X59479429Y43251185D03*
X56179429Y43251185D03*
%TD*%
D16*
%TO.C,D16*%
X50439894Y-3829563D03*
X47212006Y-4515671D03*
%TD*%
D11*
%TO.C,S15*%
X72554429Y46301185D03*
X84104429Y48501185D03*
%TD*%
%TO.C,S13*%
X72554429Y12301185D03*
X84104429Y14501185D03*
%TD*%
D22*
%TO.C,D18*%
X95120616Y-13673542D03*
X92417414Y-11780740D03*
%TD*%
D12*
%TO.C,D15*%
X77479429Y57251185D03*
X74179429Y57251185D03*
%TD*%
D11*
%TO.C,S9*%
X36554429Y53301185D03*
X48104429Y55501185D03*
%TD*%
D23*
%TO.C,T1*%
X115029429Y60351185D03*
X115029429Y58151185D03*
X107629429Y60351185D03*
X107629429Y58151185D03*
D24*
X113579429Y57176185D03*
X110579429Y57176185D03*
X109079429Y57176185D03*
%TD*%
M02*
