M48
; DRILL file {KiCad 9.0.1} date 2025-04-13T19:36:11-0600
; FORMAT={-:-/ absolute / metric / decimal}
; #@! TF.CreationDate,2025-04-13T19:36:11-06:00
; #@! TF.GenerationSoftware,Kicad,Pcbnew,9.0.1
; #@! TF.FileFunction,Plated,1,2,PTH
FMAT,2
METRIC
; #@! TA.AperFunction,Plated,PTH,ViaDrill
T1C0.300
; #@! TA.AperFunction,Plated,PTH,ViaDrill
T2C0.400
; #@! TA.AperFunction,Plated,PTH,ComponentDrill
T3C0.750
; #@! TA.AperFunction,Plated,PTH,ComponentDrill
T4C0.991
; #@! TA.AperFunction,Plated,PTH,ComponentDrill
T5C1.000
%
G90
G05
T1
X0.5Y-3.25
X51.956Y-11.75
X71.5Y37.0
X73.212Y-12.25
X91.955Y-20.205
X94.5Y2.75
X101.5Y55.75
X109.75Y2.75
X115.75Y53.5
X120.25Y49.25
X122.772Y54.986
T2
X18.071Y45.75
X39.75Y22.0
X59.014Y42.014
X79.097Y26.251
X79.25Y38.0
X80.854Y42.0
X104.25Y-35.75
T3
X115.829Y-28.749
X117.829Y-28.749
T4
X-11.835Y37.356
X-8.301Y20.727
X-4.766Y4.099
X-4.382Y38.94
X-0.847Y22.311
X2.687Y5.683
X11.976Y58.952
X13.458Y42.017
X14.94Y25.081
X19.567Y59.616
X21.049Y42.681
X22.531Y25.745
X36.019Y64.251
X36.019Y47.251
X36.019Y30.251
X43.639Y64.251
X43.639Y47.251
X43.639Y30.251
X45.099Y-4.965
X52.553Y-3.38
X54.019Y60.251
X54.019Y43.251
X54.019Y26.251
X61.639Y60.251
X61.639Y43.251
X61.639Y26.251
X68.136Y-3.061
X72.019Y57.251
X72.019Y40.251
X72.019Y23.251
X75.64Y-4.384
X79.639Y57.251
X79.639Y40.251
X79.639Y23.251
X90.648Y-10.542
X96.89Y-14.912
X108.031Y-28.09
X111.252Y-34.996
T5
X87.129Y52.831
X87.129Y50.291
X87.129Y47.751
X87.129Y45.211
X87.129Y42.671
X89.889Y39.371
X89.889Y24.131
X92.429Y39.371
X92.429Y24.131
X94.969Y39.371
X94.969Y24.131
X97.509Y39.371
X97.509Y24.131
X100.049Y39.371
X100.049Y24.131
X102.589Y39.371
X102.589Y24.131
X105.129Y39.371
X105.129Y24.131
X107.669Y39.371
X107.669Y24.131
X110.209Y39.371
X110.209Y24.131
X112.749Y39.371
X112.749Y24.131
X115.289Y39.371
X115.289Y24.131
X117.829Y39.371
X117.829Y24.131
M30
