M48
; DRILL file {KiCad 9.0.1} date 2025-04-13T19:36:11-0600
; FORMAT={-:-/ absolute / metric / decimal}
; #@! TF.CreationDate,2025-04-13T19:36:11-06:00
; #@! TF.GenerationSoftware,Kicad,Pcbnew,9.0.1
; #@! TF.FileFunction,NonPlated,1,2,NPTH
FMAT,2
METRIC
; #@! TA.AperFunction,NonPlated,NPTH,ComponentDrill
T1C0.900
; #@! TA.AperFunction,NonPlated,NPTH,ComponentDrill
T2C1.702
; #@! TA.AperFunction,NonPlated,NPTH,ComponentDrill
T3C2.200
; #@! TA.AperFunction,NonPlated,NPTH,ComponentDrill
T4C3.000
; #@! TA.AperFunction,NonPlated,NPTH,ComponentDrill
T5C3.429
%
G90
G05
T1
X109.829Y59.251
X109.829Y59.251
X112.829Y59.251
X112.829Y59.251
T2
X-12.449Y32.114
X-8.914Y15.485
X-5.38Y-1.144
X-1.689Y34.401
X1.845Y17.772
X5.38Y1.144
X10.728Y53.824
X12.21Y36.888
X13.692Y19.953
X21.687Y54.782
X23.168Y37.847
X24.65Y20.912
X34.329Y59.251
X34.329Y42.251
X34.329Y25.251
X44.486Y-10.207
X45.329Y59.251
X45.329Y42.251
X45.329Y25.251
X52.329Y55.251
X52.329Y38.251
X52.329Y21.251
X55.245Y-7.92
X63.329Y55.251
X63.329Y38.251
X63.329Y21.251
X65.603Y-7.691
X70.329Y52.251
X70.329Y35.251
X70.329Y18.251
X76.436Y-9.601
X81.329Y52.251
X81.329Y35.251
X81.329Y18.251
X86.396Y-13.668
X95.406Y-19.978
X102.786Y-28.671
X107.434Y-38.64
T3
X5.361Y46.327
X35.309Y-5.512
X119.829Y58.001
X119.829Y-38.499
T4
X-11.18Y28.549
X-7.646Y11.921
X-5.832Y27.437
X-5.832Y27.437
X-4.111Y-4.708
X-2.297Y10.809
X-2.297Y10.809
X-1.399Y30.629
X1.237Y-5.82
X1.237Y-5.82
X2.136Y14.0
X5.67Y-2.628
X11.553Y50.131
X13.035Y33.196
X14.517Y16.261
X16.726Y48.376
X16.726Y48.376
X18.208Y31.44
X18.208Y31.44
X19.689Y14.505
X19.689Y14.505
X21.515Y51.003
X22.997Y34.068
X24.479Y17.132
X34.829Y55.501
X34.829Y38.501
X34.829Y21.501
X39.829Y53.301
X39.829Y53.301
X39.829Y36.301
X39.829Y36.301
X39.829Y19.301
X39.829Y19.301
X44.829Y55.501
X44.829Y38.501
X44.829Y21.501
X45.754Y-13.771
X51.103Y-14.883
X51.103Y-14.883
X52.829Y51.501
X52.829Y34.501
X52.829Y17.501
X55.536Y-11.692
X57.829Y49.301
X57.829Y49.301
X57.829Y32.301
X57.829Y32.301
X57.829Y15.301
X57.829Y15.301
X62.829Y51.501
X62.829Y34.501
X62.829Y17.501
X65.445Y-11.471
X69.987Y-14.506
X69.987Y-14.506
X70.829Y48.501
X70.829Y31.501
X70.829Y14.501
X75.293Y-13.208
X75.829Y46.301
X75.829Y46.301
X75.829Y29.301
X75.829Y29.301
X75.829Y12.301
X75.829Y12.301
X80.829Y48.501
X80.829Y31.501
X80.829Y14.501
X84.654Y-17.027
X87.488Y-21.697
X87.488Y-21.697
X92.846Y-22.763
X99.598Y-30.709
X99.718Y-36.17
X99.718Y-36.17
X103.825Y-39.772
T5
X-7.069Y33.257
X-3.534Y16.629
X0.0Y0.0
X16.208Y54.303
X17.689Y37.368
X19.171Y20.432
X39.829Y59.251
X39.829Y42.251
X39.829Y25.251
X49.866Y-9.063
X57.829Y55.251
X57.829Y38.251
X57.829Y21.251
X71.02Y-8.646
X75.829Y52.251
X75.829Y35.251
X75.829Y18.251
X90.901Y-16.823
X105.11Y-33.656
M30
