%TF.GenerationSoftware,KiCad,Pcbnew,9.0.1*%
%TF.CreationDate,2025-04-13T19:36:13-06:00*%
%TF.ProjectId,v2board,7632626f-6172-4642-9e6b-696361645f70,v1.0.0*%
%TF.SameCoordinates,Original*%
%TF.FileFunction,Profile,NP*%
%FSLAX46Y46*%
G04 Gerber Fmt 4.6, Leading zero omitted, Abs format (unit mm)*
G04 Created by KiCad (PCBNEW 9.0.1) date 2025-04-13 19:36:13*
%MOMM*%
%LPD*%
G01*
G04 APERTURE LIST*
%TA.AperFunction,Profile*%
%ADD10C,0.150000*%
%TD*%
G04 APERTURE END LIST*
D10*
X29829429Y66073634D02*
G75*
G02*
X28922134Y65077880I-1000029J-34D01*
G01*
X29829429Y67751185D02*
X29829429Y66073634D01*
X122829429Y61751185D02*
G75*
G02*
X123829385Y60751185I-29J-999985D01*
G01*
X-18617723Y39492156D02*
X-8014227Y-10393372D01*
X28922128Y65077940D02*
X6408237Y62981898D01*
X48829429Y68751185D02*
G75*
G02*
X49829385Y67751185I-29J-999985D01*
G01*
X5504740Y61899047D02*
G75*
G02*
X6408237Y62981899I996200J87153D01*
G01*
X29829429Y67751185D02*
G75*
G02*
X30829429Y68751171I999971J15D01*
G01*
X43037341Y-20226963D02*
X60508269Y-16513402D01*
X5504742Y61899048D02*
X6288284Y52943118D01*
X66829429Y64751185D02*
X50829429Y64751185D01*
X-1777Y44471438D02*
X-17847487Y40678215D01*
X26411499Y-3831964D02*
G75*
G02*
X27188534Y-3981102I215401J-976536D01*
G01*
X48829429Y68751185D02*
X30829429Y68751185D01*
X110143363Y-42342507D02*
G75*
G02*
X110565981Y-42248805I422637J-906293D01*
G01*
X101632636Y-46311124D02*
X110143362Y-42342507D01*
X123829429Y60751185D02*
X123829429Y-41248815D01*
X68829429Y61751185D02*
X122829429Y61751185D01*
X60889829Y-16506742D02*
X78043063Y-19531320D01*
X6288284Y52943118D02*
G75*
G02*
X6094840Y52259645I-996194J-87158D01*
G01*
X92721371Y-29854194D02*
X100306632Y-45833643D01*
X66829429Y64751185D02*
G75*
G02*
X67829385Y63751185I-29J-999985D01*
G01*
X78442992Y-19696976D02*
X92391561Y-29463869D01*
X-6820686Y-11161988D02*
G75*
G02*
X-8014227Y-10393372I-215392J976530D01*
G01*
X49829429Y65751185D02*
X49829429Y67751185D01*
X123829429Y-41248815D02*
G75*
G02*
X122829429Y-42248829I-1000029J15D01*
G01*
X40146680Y-12777259D02*
G75*
G02*
X40563147Y-13396740I-561680J-827341D01*
G01*
X-18617722Y39492156D02*
G75*
G02*
X-17847487Y40678215I978148J207911D01*
G01*
X122829429Y-42248815D02*
X110565981Y-42248815D01*
X40563190Y-13396731D02*
X41851282Y-19456727D01*
X593061Y44853268D02*
G75*
G02*
X-1777Y44471438I-802744J596310D01*
G01*
X27188529Y-3981109D02*
X40146680Y-12777260D01*
X67829429Y62751185D02*
X67829429Y63751185D01*
X78043064Y-19531320D02*
G75*
G02*
X78442986Y-19696985I-173664J-984780D01*
G01*
X101632636Y-46311123D02*
G75*
G02*
X100306604Y-45833656I-422636J906323D01*
G01*
X-6820686Y-11161987D02*
X26411499Y-3831964D01*
X92391561Y-29463869D02*
G75*
G02*
X92721368Y-29854195I-573561J-819131D01*
G01*
X50829429Y64751185D02*
G75*
G02*
X49829385Y65751185I-29J1000015D01*
G01*
X60508269Y-16513402D02*
G75*
G02*
X60889830Y-16506735I207931J-978198D01*
G01*
X68829429Y61751185D02*
G75*
G02*
X67829385Y62751185I-29J1000015D01*
G01*
X6094839Y52259645D02*
X593061Y44853269D01*
X43037341Y-20226962D02*
G75*
G02*
X41851237Y-19456737I-207941J978162D01*
G01*
M02*
