%TF.GenerationSoftware,KiCad,Pcbnew,9.0.1*%
%TF.CreationDate,2025-04-13T19:36:13-06:00*%
%TF.ProjectId,v2board,7632626f-6172-4642-9e6b-696361645f70,v1.0.0*%
%TF.SameCoordinates,Original*%
%TF.FileFunction,Legend,Top*%
%TF.FilePolarity,Positive*%
%FSLAX46Y46*%
G04 Gerber Fmt 4.6, Leading zero omitted, Abs format (unit mm)*
G04 Created by KiCad (PCBNEW 9.0.1) date 2025-04-13 19:36:13*
%MOMM*%
%LPD*%
G01*
G04 APERTURE LIST*
%ADD10C,0.150000*%
%ADD11C,0.100000*%
%ADD12C,0.120000*%
G04 APERTURE END LIST*
D10*
X98705826Y21856371D02*
X98658207Y21903990D01*
X98658207Y21903990D02*
X98562969Y21951609D01*
X98562969Y21951609D02*
X98467731Y21951609D01*
X98467731Y21951609D02*
X98372493Y21903990D01*
X98372493Y21903990D02*
X98324874Y21856371D01*
X98324874Y21856371D02*
X98277255Y21761133D01*
X98277255Y21761133D02*
X98277255Y21665895D01*
X98277255Y21665895D02*
X98324874Y21570657D01*
X98324874Y21570657D02*
X98372493Y21523038D01*
X98372493Y21523038D02*
X98467731Y21475419D01*
X98467731Y21475419D02*
X98562969Y21475419D01*
X98562969Y21475419D02*
X98658207Y21523038D01*
X98658207Y21523038D02*
X98705826Y21570657D01*
X98705826Y21951609D02*
X98705826Y21570657D01*
X98705826Y21570657D02*
X98753445Y21523038D01*
X98753445Y21523038D02*
X98801064Y21523038D01*
X98801064Y21523038D02*
X98896303Y21570657D01*
X98896303Y21570657D02*
X98943922Y21665895D01*
X98943922Y21665895D02*
X98943922Y21903990D01*
X98943922Y21903990D02*
X98848684Y22046847D01*
X98848684Y22046847D02*
X98705826Y22142085D01*
X98705826Y22142085D02*
X98515350Y22189704D01*
X98515350Y22189704D02*
X98324874Y22142085D01*
X98324874Y22142085D02*
X98182017Y22046847D01*
X98182017Y22046847D02*
X98086779Y21903990D01*
X98086779Y21903990D02*
X98039160Y21713514D01*
X98039160Y21713514D02*
X98086779Y21523038D01*
X98086779Y21523038D02*
X98182017Y21380180D01*
X98182017Y21380180D02*
X98324874Y21284942D01*
X98324874Y21284942D02*
X98515350Y21237323D01*
X98515350Y21237323D02*
X98705826Y21284942D01*
X98705826Y21284942D02*
X98848684Y21380180D01*
X99372493Y21380180D02*
X99372493Y22380180D01*
X99801064Y21380180D02*
X99801064Y21903990D01*
X99801064Y21903990D02*
X99753445Y21999228D01*
X99753445Y21999228D02*
X99658207Y22046847D01*
X99658207Y22046847D02*
X99515350Y22046847D01*
X99515350Y22046847D02*
X99420112Y21999228D01*
X99420112Y21999228D02*
X99372493Y21951609D01*
X100420112Y21380180D02*
X100324874Y21427800D01*
X100324874Y21427800D02*
X100277255Y21475419D01*
X100277255Y21475419D02*
X100229636Y21570657D01*
X100229636Y21570657D02*
X100229636Y21856371D01*
X100229636Y21856371D02*
X100277255Y21951609D01*
X100277255Y21951609D02*
X100324874Y21999228D01*
X100324874Y21999228D02*
X100420112Y22046847D01*
X100420112Y22046847D02*
X100562969Y22046847D01*
X100562969Y22046847D02*
X100658207Y21999228D01*
X100658207Y21999228D02*
X100705826Y21951609D01*
X100705826Y21951609D02*
X100753445Y21856371D01*
X100753445Y21856371D02*
X100753445Y21570657D01*
X100753445Y21570657D02*
X100705826Y21475419D01*
X100705826Y21475419D02*
X100658207Y21427800D01*
X100658207Y21427800D02*
X100562969Y21380180D01*
X100562969Y21380180D02*
X100420112Y21380180D01*
X101182017Y21380180D02*
X101182017Y22046847D01*
X101182017Y21856371D02*
X101229636Y21951609D01*
X101229636Y21951609D02*
X101277255Y21999228D01*
X101277255Y21999228D02*
X101372493Y22046847D01*
X101372493Y22046847D02*
X101467731Y22046847D01*
X101753446Y21427800D02*
X101848684Y21380180D01*
X101848684Y21380180D02*
X102039160Y21380180D01*
X102039160Y21380180D02*
X102134398Y21427800D01*
X102134398Y21427800D02*
X102182017Y21523038D01*
X102182017Y21523038D02*
X102182017Y21570657D01*
X102182017Y21570657D02*
X102134398Y21665895D01*
X102134398Y21665895D02*
X102039160Y21713514D01*
X102039160Y21713514D02*
X101896303Y21713514D01*
X101896303Y21713514D02*
X101801065Y21761133D01*
X101801065Y21761133D02*
X101753446Y21856371D01*
X101753446Y21856371D02*
X101753446Y21903990D01*
X101753446Y21903990D02*
X101801065Y21999228D01*
X101801065Y21999228D02*
X101896303Y22046847D01*
X101896303Y22046847D02*
X102039160Y22046847D01*
X102039160Y22046847D02*
X102134398Y21999228D01*
X102991541Y21427800D02*
X102896303Y21380180D01*
X102896303Y21380180D02*
X102705827Y21380180D01*
X102705827Y21380180D02*
X102610589Y21427800D01*
X102610589Y21427800D02*
X102562970Y21523038D01*
X102562970Y21523038D02*
X102562970Y21903990D01*
X102562970Y21903990D02*
X102610589Y21999228D01*
X102610589Y21999228D02*
X102705827Y22046847D01*
X102705827Y22046847D02*
X102896303Y22046847D01*
X102896303Y22046847D02*
X102991541Y21999228D01*
X102991541Y21999228D02*
X103039160Y21903990D01*
X103039160Y21903990D02*
X103039160Y21808752D01*
X103039160Y21808752D02*
X102562970Y21713514D01*
X103467732Y21761133D02*
X104229637Y21761133D01*
X105182017Y22380180D02*
X104705827Y22380180D01*
X104705827Y22380180D02*
X104658208Y21903990D01*
X104658208Y21903990D02*
X104705827Y21951609D01*
X104705827Y21951609D02*
X104801065Y21999228D01*
X104801065Y21999228D02*
X105039160Y21999228D01*
X105039160Y21999228D02*
X105134398Y21951609D01*
X105134398Y21951609D02*
X105182017Y21903990D01*
X105182017Y21903990D02*
X105229636Y21808752D01*
X105229636Y21808752D02*
X105229636Y21570657D01*
X105229636Y21570657D02*
X105182017Y21475419D01*
X105182017Y21475419D02*
X105134398Y21427800D01*
X105134398Y21427800D02*
X105039160Y21380180D01*
X105039160Y21380180D02*
X104801065Y21380180D01*
X104801065Y21380180D02*
X104705827Y21427800D01*
X104705827Y21427800D02*
X104658208Y21475419D01*
X105658208Y21761133D02*
X106420113Y21761133D01*
X106801065Y22380180D02*
X107420112Y22380180D01*
X107420112Y22380180D02*
X107086779Y21999228D01*
X107086779Y21999228D02*
X107229636Y21999228D01*
X107229636Y21999228D02*
X107324874Y21951609D01*
X107324874Y21951609D02*
X107372493Y21903990D01*
X107372493Y21903990D02*
X107420112Y21808752D01*
X107420112Y21808752D02*
X107420112Y21570657D01*
X107420112Y21570657D02*
X107372493Y21475419D01*
X107372493Y21475419D02*
X107324874Y21427800D01*
X107324874Y21427800D02*
X107229636Y21380180D01*
X107229636Y21380180D02*
X106943922Y21380180D01*
X106943922Y21380180D02*
X106848684Y21427800D01*
X106848684Y21427800D02*
X106801065Y21475419D01*
X107753446Y22380180D02*
X108372493Y22380180D01*
X108372493Y22380180D02*
X108039160Y21999228D01*
X108039160Y21999228D02*
X108182017Y21999228D01*
X108182017Y21999228D02*
X108277255Y21951609D01*
X108277255Y21951609D02*
X108324874Y21903990D01*
X108324874Y21903990D02*
X108372493Y21808752D01*
X108372493Y21808752D02*
X108372493Y21570657D01*
X108372493Y21570657D02*
X108324874Y21475419D01*
X108324874Y21475419D02*
X108277255Y21427800D01*
X108277255Y21427800D02*
X108182017Y21380180D01*
X108182017Y21380180D02*
X107896303Y21380180D01*
X107896303Y21380180D02*
X107801065Y21427800D01*
X107801065Y21427800D02*
X107753446Y21475419D01*
X108705827Y22380180D02*
X109324874Y22380180D01*
X109324874Y22380180D02*
X108991541Y21999228D01*
X108991541Y21999228D02*
X109134398Y21999228D01*
X109134398Y21999228D02*
X109229636Y21951609D01*
X109229636Y21951609D02*
X109277255Y21903990D01*
X109277255Y21903990D02*
X109324874Y21808752D01*
X109324874Y21808752D02*
X109324874Y21570657D01*
X109324874Y21570657D02*
X109277255Y21475419D01*
X109277255Y21475419D02*
X109229636Y21427800D01*
X109229636Y21427800D02*
X109134398Y21380180D01*
X109134398Y21380180D02*
X108848684Y21380180D01*
X108848684Y21380180D02*
X108753446Y21427800D01*
X108753446Y21427800D02*
X108705827Y21475419D01*
X89508458Y42140419D02*
X89460839Y42092800D01*
X89460839Y42092800D02*
X89317982Y42045180D01*
X89317982Y42045180D02*
X89222744Y42045180D01*
X89222744Y42045180D02*
X89079887Y42092800D01*
X89079887Y42092800D02*
X88984649Y42188038D01*
X88984649Y42188038D02*
X88937030Y42283276D01*
X88937030Y42283276D02*
X88889411Y42473752D01*
X88889411Y42473752D02*
X88889411Y42616609D01*
X88889411Y42616609D02*
X88937030Y42807085D01*
X88937030Y42807085D02*
X88984649Y42902323D01*
X88984649Y42902323D02*
X89079887Y42997561D01*
X89079887Y42997561D02*
X89222744Y43045180D01*
X89222744Y43045180D02*
X89317982Y43045180D01*
X89317982Y43045180D02*
X89460839Y42997561D01*
X89460839Y42997561D02*
X89508458Y42949942D01*
X89889411Y42092800D02*
X90032268Y42045180D01*
X90032268Y42045180D02*
X90270363Y42045180D01*
X90270363Y42045180D02*
X90365601Y42092800D01*
X90365601Y42092800D02*
X90413220Y42140419D01*
X90413220Y42140419D02*
X90460839Y42235657D01*
X90460839Y42235657D02*
X90460839Y42330895D01*
X90460839Y42330895D02*
X90413220Y42426133D01*
X90413220Y42426133D02*
X90365601Y42473752D01*
X90365601Y42473752D02*
X90270363Y42521371D01*
X90270363Y42521371D02*
X90079887Y42568990D01*
X90079887Y42568990D02*
X89984649Y42616609D01*
X89984649Y42616609D02*
X89937030Y42664228D01*
X89937030Y42664228D02*
X89889411Y42759466D01*
X89889411Y42759466D02*
X89889411Y42854704D01*
X89889411Y42854704D02*
X89937030Y42949942D01*
X89937030Y42949942D02*
X89984649Y42997561D01*
X89984649Y42997561D02*
X90079887Y43045180D01*
X90079887Y43045180D02*
X90317982Y43045180D01*
X90317982Y43045180D02*
X90460839Y42997561D01*
X88770364Y52295180D02*
X88770364Y53295180D01*
X88770364Y53295180D02*
X89103697Y52580895D01*
X89103697Y52580895D02*
X89437030Y53295180D01*
X89437030Y53295180D02*
X89437030Y52295180D01*
X90103697Y53295180D02*
X90294173Y53295180D01*
X90294173Y53295180D02*
X90389411Y53247561D01*
X90389411Y53247561D02*
X90484649Y53152323D01*
X90484649Y53152323D02*
X90532268Y52961847D01*
X90532268Y52961847D02*
X90532268Y52628514D01*
X90532268Y52628514D02*
X90484649Y52438038D01*
X90484649Y52438038D02*
X90389411Y52342800D01*
X90389411Y52342800D02*
X90294173Y52295180D01*
X90294173Y52295180D02*
X90103697Y52295180D01*
X90103697Y52295180D02*
X90008459Y52342800D01*
X90008459Y52342800D02*
X89913221Y52438038D01*
X89913221Y52438038D02*
X89865602Y52628514D01*
X89865602Y52628514D02*
X89865602Y52961847D01*
X89865602Y52961847D02*
X89913221Y53152323D01*
X89913221Y53152323D02*
X90008459Y53247561D01*
X90008459Y53247561D02*
X90103697Y53295180D01*
X90913221Y52342800D02*
X91056078Y52295180D01*
X91056078Y52295180D02*
X91294173Y52295180D01*
X91294173Y52295180D02*
X91389411Y52342800D01*
X91389411Y52342800D02*
X91437030Y52390419D01*
X91437030Y52390419D02*
X91484649Y52485657D01*
X91484649Y52485657D02*
X91484649Y52580895D01*
X91484649Y52580895D02*
X91437030Y52676133D01*
X91437030Y52676133D02*
X91389411Y52723752D01*
X91389411Y52723752D02*
X91294173Y52771371D01*
X91294173Y52771371D02*
X91103697Y52818990D01*
X91103697Y52818990D02*
X91008459Y52866609D01*
X91008459Y52866609D02*
X90960840Y52914228D01*
X90960840Y52914228D02*
X90913221Y53009466D01*
X90913221Y53009466D02*
X90913221Y53104704D01*
X90913221Y53104704D02*
X90960840Y53199942D01*
X90960840Y53199942D02*
X91008459Y53247561D01*
X91008459Y53247561D02*
X91103697Y53295180D01*
X91103697Y53295180D02*
X91341792Y53295180D01*
X91341792Y53295180D02*
X91484649Y53247561D01*
X91913221Y52295180D02*
X91913221Y53295180D01*
X89365601Y45628746D02*
X89270363Y45676365D01*
X89270363Y45676365D02*
X89127506Y45676365D01*
X89127506Y45676365D02*
X88984649Y45628746D01*
X88984649Y45628746D02*
X88889411Y45533508D01*
X88889411Y45533508D02*
X88841792Y45438270D01*
X88841792Y45438270D02*
X88794173Y45247794D01*
X88794173Y45247794D02*
X88794173Y45104937D01*
X88794173Y45104937D02*
X88841792Y44914461D01*
X88841792Y44914461D02*
X88889411Y44819223D01*
X88889411Y44819223D02*
X88984649Y44723985D01*
X88984649Y44723985D02*
X89127506Y44676365D01*
X89127506Y44676365D02*
X89222744Y44676365D01*
X89222744Y44676365D02*
X89365601Y44723985D01*
X89365601Y44723985D02*
X89413220Y44771604D01*
X89413220Y44771604D02*
X89413220Y45104937D01*
X89413220Y45104937D02*
X89222744Y45104937D01*
X89841792Y44676365D02*
X89841792Y45676365D01*
X89841792Y45676365D02*
X90413220Y44676365D01*
X90413220Y44676365D02*
X90413220Y45676365D01*
X90889411Y44676365D02*
X90889411Y45676365D01*
X90889411Y45676365D02*
X91127506Y45676365D01*
X91127506Y45676365D02*
X91270363Y45628746D01*
X91270363Y45628746D02*
X91365601Y45533508D01*
X91365601Y45533508D02*
X91413220Y45438270D01*
X91413220Y45438270D02*
X91460839Y45247794D01*
X91460839Y45247794D02*
X91460839Y45104937D01*
X91460839Y45104937D02*
X91413220Y44914461D01*
X91413220Y44914461D02*
X91365601Y44819223D01*
X91365601Y44819223D02*
X91270363Y44723985D01*
X91270363Y44723985D02*
X91127506Y44676365D01*
X91127506Y44676365D02*
X90889411Y44676365D01*
X88889411Y48146365D02*
X89222744Y47146365D01*
X89222744Y47146365D02*
X89556077Y48146365D01*
X90460839Y47241604D02*
X90413220Y47193985D01*
X90413220Y47193985D02*
X90270363Y47146365D01*
X90270363Y47146365D02*
X90175125Y47146365D01*
X90175125Y47146365D02*
X90032268Y47193985D01*
X90032268Y47193985D02*
X89937030Y47289223D01*
X89937030Y47289223D02*
X89889411Y47384461D01*
X89889411Y47384461D02*
X89841792Y47574937D01*
X89841792Y47574937D02*
X89841792Y47717794D01*
X89841792Y47717794D02*
X89889411Y47908270D01*
X89889411Y47908270D02*
X89937030Y48003508D01*
X89937030Y48003508D02*
X90032268Y48098746D01*
X90032268Y48098746D02*
X90175125Y48146365D01*
X90175125Y48146365D02*
X90270363Y48146365D01*
X90270363Y48146365D02*
X90413220Y48098746D01*
X90413220Y48098746D02*
X90460839Y48051127D01*
X91460839Y47241604D02*
X91413220Y47193985D01*
X91413220Y47193985D02*
X91270363Y47146365D01*
X91270363Y47146365D02*
X91175125Y47146365D01*
X91175125Y47146365D02*
X91032268Y47193985D01*
X91032268Y47193985D02*
X90937030Y47289223D01*
X90937030Y47289223D02*
X90889411Y47384461D01*
X90889411Y47384461D02*
X90841792Y47574937D01*
X90841792Y47574937D02*
X90841792Y47717794D01*
X90841792Y47717794D02*
X90889411Y47908270D01*
X90889411Y47908270D02*
X90937030Y48003508D01*
X90937030Y48003508D02*
X91032268Y48098746D01*
X91032268Y48098746D02*
X91175125Y48146365D01*
X91175125Y48146365D02*
X91270363Y48146365D01*
X91270363Y48146365D02*
X91413220Y48098746D01*
X91413220Y48098746D02*
X91460839Y48051127D01*
X88889411Y49592800D02*
X89032268Y49545180D01*
X89032268Y49545180D02*
X89270363Y49545180D01*
X89270363Y49545180D02*
X89365601Y49592800D01*
X89365601Y49592800D02*
X89413220Y49640419D01*
X89413220Y49640419D02*
X89460839Y49735657D01*
X89460839Y49735657D02*
X89460839Y49830895D01*
X89460839Y49830895D02*
X89413220Y49926133D01*
X89413220Y49926133D02*
X89365601Y49973752D01*
X89365601Y49973752D02*
X89270363Y50021371D01*
X89270363Y50021371D02*
X89079887Y50068990D01*
X89079887Y50068990D02*
X88984649Y50116609D01*
X88984649Y50116609D02*
X88937030Y50164228D01*
X88937030Y50164228D02*
X88889411Y50259466D01*
X88889411Y50259466D02*
X88889411Y50354704D01*
X88889411Y50354704D02*
X88937030Y50449942D01*
X88937030Y50449942D02*
X88984649Y50497561D01*
X88984649Y50497561D02*
X89079887Y50545180D01*
X89079887Y50545180D02*
X89317982Y50545180D01*
X89317982Y50545180D02*
X89460839Y50497561D01*
X90460839Y49640419D02*
X90413220Y49592800D01*
X90413220Y49592800D02*
X90270363Y49545180D01*
X90270363Y49545180D02*
X90175125Y49545180D01*
X90175125Y49545180D02*
X90032268Y49592800D01*
X90032268Y49592800D02*
X89937030Y49688038D01*
X89937030Y49688038D02*
X89889411Y49783276D01*
X89889411Y49783276D02*
X89841792Y49973752D01*
X89841792Y49973752D02*
X89841792Y50116609D01*
X89841792Y50116609D02*
X89889411Y50307085D01*
X89889411Y50307085D02*
X89937030Y50402323D01*
X89937030Y50402323D02*
X90032268Y50497561D01*
X90032268Y50497561D02*
X90175125Y50545180D01*
X90175125Y50545180D02*
X90270363Y50545180D01*
X90270363Y50545180D02*
X90413220Y50497561D01*
X90413220Y50497561D02*
X90460839Y50449942D01*
X90889411Y49545180D02*
X90889411Y50545180D01*
X91460839Y49545180D02*
X91032268Y50116609D01*
X91460839Y50545180D02*
X90889411Y49973752D01*
X105584248Y35483090D02*
X104584248Y35483090D01*
X104584248Y35483090D02*
X104584248Y35864042D01*
X104584248Y35864042D02*
X104631867Y35959280D01*
X104631867Y35959280D02*
X104679486Y36006899D01*
X104679486Y36006899D02*
X104774724Y36054518D01*
X104774724Y36054518D02*
X104917581Y36054518D01*
X104917581Y36054518D02*
X105012819Y36006899D01*
X105012819Y36006899D02*
X105060438Y35959280D01*
X105060438Y35959280D02*
X105108057Y35864042D01*
X105108057Y35864042D02*
X105108057Y35483090D01*
X104584248Y36387852D02*
X104584248Y37006899D01*
X104584248Y37006899D02*
X104965200Y36673566D01*
X104965200Y36673566D02*
X104965200Y36816423D01*
X104965200Y36816423D02*
X105012819Y36911661D01*
X105012819Y36911661D02*
X105060438Y36959280D01*
X105060438Y36959280D02*
X105155676Y37006899D01*
X105155676Y37006899D02*
X105393771Y37006899D01*
X105393771Y37006899D02*
X105489009Y36959280D01*
X105489009Y36959280D02*
X105536629Y36911661D01*
X105536629Y36911661D02*
X105584248Y36816423D01*
X105584248Y36816423D02*
X105584248Y36530709D01*
X105584248Y36530709D02*
X105536629Y36435471D01*
X105536629Y36435471D02*
X105489009Y36387852D01*
X108124248Y26066899D02*
X107124248Y26066899D01*
X107124248Y26066899D02*
X107124248Y26447851D01*
X107124248Y26447851D02*
X107171867Y26543089D01*
X107171867Y26543089D02*
X107219486Y26590708D01*
X107219486Y26590708D02*
X107314724Y26638327D01*
X107314724Y26638327D02*
X107457581Y26638327D01*
X107457581Y26638327D02*
X107552819Y26590708D01*
X107552819Y26590708D02*
X107600438Y26543089D01*
X107600438Y26543089D02*
X107648057Y26447851D01*
X107648057Y26447851D02*
X107648057Y26066899D01*
X107219486Y27019280D02*
X107171867Y27066899D01*
X107171867Y27066899D02*
X107124248Y27162137D01*
X107124248Y27162137D02*
X107124248Y27400232D01*
X107124248Y27400232D02*
X107171867Y27495470D01*
X107171867Y27495470D02*
X107219486Y27543089D01*
X107219486Y27543089D02*
X107314724Y27590708D01*
X107314724Y27590708D02*
X107409962Y27590708D01*
X107409962Y27590708D02*
X107552819Y27543089D01*
X107552819Y27543089D02*
X108124248Y26971661D01*
X108124248Y26971661D02*
X108124248Y27590708D01*
X108124248Y28543089D02*
X108124248Y27971661D01*
X108124248Y28257375D02*
X107124248Y28257375D01*
X107124248Y28257375D02*
X107267105Y28162137D01*
X107267105Y28162137D02*
X107362343Y28066899D01*
X107362343Y28066899D02*
X107409962Y27971661D01*
X97964248Y35483090D02*
X96964248Y35483090D01*
X96964248Y35483090D02*
X96964248Y35864042D01*
X96964248Y35864042D02*
X97011867Y35959280D01*
X97011867Y35959280D02*
X97059486Y36006899D01*
X97059486Y36006899D02*
X97154724Y36054518D01*
X97154724Y36054518D02*
X97297581Y36054518D01*
X97297581Y36054518D02*
X97392819Y36006899D01*
X97392819Y36006899D02*
X97440438Y35959280D01*
X97440438Y35959280D02*
X97488057Y35864042D01*
X97488057Y35864042D02*
X97488057Y35483090D01*
X96964248Y36911661D02*
X96964248Y36721185D01*
X96964248Y36721185D02*
X97011867Y36625947D01*
X97011867Y36625947D02*
X97059486Y36578328D01*
X97059486Y36578328D02*
X97202343Y36483090D01*
X97202343Y36483090D02*
X97392819Y36435471D01*
X97392819Y36435471D02*
X97773771Y36435471D01*
X97773771Y36435471D02*
X97869009Y36483090D01*
X97869009Y36483090D02*
X97916629Y36530709D01*
X97916629Y36530709D02*
X97964248Y36625947D01*
X97964248Y36625947D02*
X97964248Y36816423D01*
X97964248Y36816423D02*
X97916629Y36911661D01*
X97916629Y36911661D02*
X97869009Y36959280D01*
X97869009Y36959280D02*
X97773771Y37006899D01*
X97773771Y37006899D02*
X97535676Y37006899D01*
X97535676Y37006899D02*
X97440438Y36959280D01*
X97440438Y36959280D02*
X97392819Y36911661D01*
X97392819Y36911661D02*
X97345200Y36816423D01*
X97345200Y36816423D02*
X97345200Y36625947D01*
X97345200Y36625947D02*
X97392819Y36530709D01*
X97392819Y36530709D02*
X97440438Y36483090D01*
X97440438Y36483090D02*
X97535676Y36435471D01*
X100504248Y35483090D02*
X99504248Y35483090D01*
X99504248Y35483090D02*
X99504248Y35864042D01*
X99504248Y35864042D02*
X99551867Y35959280D01*
X99551867Y35959280D02*
X99599486Y36006899D01*
X99599486Y36006899D02*
X99694724Y36054518D01*
X99694724Y36054518D02*
X99837581Y36054518D01*
X99837581Y36054518D02*
X99932819Y36006899D01*
X99932819Y36006899D02*
X99980438Y35959280D01*
X99980438Y35959280D02*
X100028057Y35864042D01*
X100028057Y35864042D02*
X100028057Y35483090D01*
X99504248Y36959280D02*
X99504248Y36483090D01*
X99504248Y36483090D02*
X99980438Y36435471D01*
X99980438Y36435471D02*
X99932819Y36483090D01*
X99932819Y36483090D02*
X99885200Y36578328D01*
X99885200Y36578328D02*
X99885200Y36816423D01*
X99885200Y36816423D02*
X99932819Y36911661D01*
X99932819Y36911661D02*
X99980438Y36959280D01*
X99980438Y36959280D02*
X100075676Y37006899D01*
X100075676Y37006899D02*
X100313771Y37006899D01*
X100313771Y37006899D02*
X100409009Y36959280D01*
X100409009Y36959280D02*
X100456629Y36911661D01*
X100456629Y36911661D02*
X100504248Y36816423D01*
X100504248Y36816423D02*
X100504248Y36578328D01*
X100504248Y36578328D02*
X100456629Y36483090D01*
X100456629Y36483090D02*
X100409009Y36435471D01*
X105584248Y26066899D02*
X104584248Y26066899D01*
X104584248Y26066899D02*
X104584248Y26447851D01*
X104584248Y26447851D02*
X104631867Y26543089D01*
X104631867Y26543089D02*
X104679486Y26590708D01*
X104679486Y26590708D02*
X104774724Y26638327D01*
X104774724Y26638327D02*
X104917581Y26638327D01*
X104917581Y26638327D02*
X105012819Y26590708D01*
X105012819Y26590708D02*
X105060438Y26543089D01*
X105060438Y26543089D02*
X105108057Y26447851D01*
X105108057Y26447851D02*
X105108057Y26066899D01*
X104679486Y27019280D02*
X104631867Y27066899D01*
X104631867Y27066899D02*
X104584248Y27162137D01*
X104584248Y27162137D02*
X104584248Y27400232D01*
X104584248Y27400232D02*
X104631867Y27495470D01*
X104631867Y27495470D02*
X104679486Y27543089D01*
X104679486Y27543089D02*
X104774724Y27590708D01*
X104774724Y27590708D02*
X104869962Y27590708D01*
X104869962Y27590708D02*
X105012819Y27543089D01*
X105012819Y27543089D02*
X105584248Y26971661D01*
X105584248Y26971661D02*
X105584248Y27590708D01*
X104584248Y28209756D02*
X104584248Y28304994D01*
X104584248Y28304994D02*
X104631867Y28400232D01*
X104631867Y28400232D02*
X104679486Y28447851D01*
X104679486Y28447851D02*
X104774724Y28495470D01*
X104774724Y28495470D02*
X104965200Y28543089D01*
X104965200Y28543089D02*
X105203295Y28543089D01*
X105203295Y28543089D02*
X105393771Y28495470D01*
X105393771Y28495470D02*
X105489009Y28447851D01*
X105489009Y28447851D02*
X105536629Y28400232D01*
X105536629Y28400232D02*
X105584248Y28304994D01*
X105584248Y28304994D02*
X105584248Y28209756D01*
X105584248Y28209756D02*
X105536629Y28114518D01*
X105536629Y28114518D02*
X105489009Y28066899D01*
X105489009Y28066899D02*
X105393771Y28019280D01*
X105393771Y28019280D02*
X105203295Y27971661D01*
X105203295Y27971661D02*
X104965200Y27971661D01*
X104965200Y27971661D02*
X104774724Y28019280D01*
X104774724Y28019280D02*
X104679486Y28066899D01*
X104679486Y28066899D02*
X104631867Y28114518D01*
X104631867Y28114518D02*
X104584248Y28209756D01*
X114791867Y26519280D02*
X114744248Y26424042D01*
X114744248Y26424042D02*
X114744248Y26281185D01*
X114744248Y26281185D02*
X114791867Y26138328D01*
X114791867Y26138328D02*
X114887105Y26043090D01*
X114887105Y26043090D02*
X114982343Y25995471D01*
X114982343Y25995471D02*
X115172819Y25947852D01*
X115172819Y25947852D02*
X115315676Y25947852D01*
X115315676Y25947852D02*
X115506152Y25995471D01*
X115506152Y25995471D02*
X115601390Y26043090D01*
X115601390Y26043090D02*
X115696629Y26138328D01*
X115696629Y26138328D02*
X115744248Y26281185D01*
X115744248Y26281185D02*
X115744248Y26376423D01*
X115744248Y26376423D02*
X115696629Y26519280D01*
X115696629Y26519280D02*
X115649009Y26566899D01*
X115649009Y26566899D02*
X115315676Y26566899D01*
X115315676Y26566899D02*
X115315676Y26376423D01*
X115744248Y26995471D02*
X114744248Y26995471D01*
X114744248Y26995471D02*
X115744248Y27566899D01*
X115744248Y27566899D02*
X114744248Y27566899D01*
X115744248Y28043090D02*
X114744248Y28043090D01*
X114744248Y28043090D02*
X114744248Y28281185D01*
X114744248Y28281185D02*
X114791867Y28424042D01*
X114791867Y28424042D02*
X114887105Y28519280D01*
X114887105Y28519280D02*
X114982343Y28566899D01*
X114982343Y28566899D02*
X115172819Y28614518D01*
X115172819Y28614518D02*
X115315676Y28614518D01*
X115315676Y28614518D02*
X115506152Y28566899D01*
X115506152Y28566899D02*
X115601390Y28519280D01*
X115601390Y28519280D02*
X115696629Y28424042D01*
X115696629Y28424042D02*
X115744248Y28281185D01*
X115744248Y28281185D02*
X115744248Y28043090D01*
X92884248Y35483090D02*
X91884248Y35483090D01*
X91884248Y35483090D02*
X91884248Y35864042D01*
X91884248Y35864042D02*
X91931867Y35959280D01*
X91931867Y35959280D02*
X91979486Y36006899D01*
X91979486Y36006899D02*
X92074724Y36054518D01*
X92074724Y36054518D02*
X92217581Y36054518D01*
X92217581Y36054518D02*
X92312819Y36006899D01*
X92312819Y36006899D02*
X92360438Y35959280D01*
X92360438Y35959280D02*
X92408057Y35864042D01*
X92408057Y35864042D02*
X92408057Y35483090D01*
X92312819Y36625947D02*
X92265200Y36530709D01*
X92265200Y36530709D02*
X92217581Y36483090D01*
X92217581Y36483090D02*
X92122343Y36435471D01*
X92122343Y36435471D02*
X92074724Y36435471D01*
X92074724Y36435471D02*
X91979486Y36483090D01*
X91979486Y36483090D02*
X91931867Y36530709D01*
X91931867Y36530709D02*
X91884248Y36625947D01*
X91884248Y36625947D02*
X91884248Y36816423D01*
X91884248Y36816423D02*
X91931867Y36911661D01*
X91931867Y36911661D02*
X91979486Y36959280D01*
X91979486Y36959280D02*
X92074724Y37006899D01*
X92074724Y37006899D02*
X92122343Y37006899D01*
X92122343Y37006899D02*
X92217581Y36959280D01*
X92217581Y36959280D02*
X92265200Y36911661D01*
X92265200Y36911661D02*
X92312819Y36816423D01*
X92312819Y36816423D02*
X92312819Y36625947D01*
X92312819Y36625947D02*
X92360438Y36530709D01*
X92360438Y36530709D02*
X92408057Y36483090D01*
X92408057Y36483090D02*
X92503295Y36435471D01*
X92503295Y36435471D02*
X92693771Y36435471D01*
X92693771Y36435471D02*
X92789009Y36483090D01*
X92789009Y36483090D02*
X92836629Y36530709D01*
X92836629Y36530709D02*
X92884248Y36625947D01*
X92884248Y36625947D02*
X92884248Y36816423D01*
X92884248Y36816423D02*
X92836629Y36911661D01*
X92836629Y36911661D02*
X92789009Y36959280D01*
X92789009Y36959280D02*
X92693771Y37006899D01*
X92693771Y37006899D02*
X92503295Y37006899D01*
X92503295Y37006899D02*
X92408057Y36959280D01*
X92408057Y36959280D02*
X92360438Y36911661D01*
X92360438Y36911661D02*
X92312819Y36816423D01*
X109711867Y35459280D02*
X109664248Y35364042D01*
X109664248Y35364042D02*
X109664248Y35221185D01*
X109664248Y35221185D02*
X109711867Y35078328D01*
X109711867Y35078328D02*
X109807105Y34983090D01*
X109807105Y34983090D02*
X109902343Y34935471D01*
X109902343Y34935471D02*
X110092819Y34887852D01*
X110092819Y34887852D02*
X110235676Y34887852D01*
X110235676Y34887852D02*
X110426152Y34935471D01*
X110426152Y34935471D02*
X110521390Y34983090D01*
X110521390Y34983090D02*
X110616629Y35078328D01*
X110616629Y35078328D02*
X110664248Y35221185D01*
X110664248Y35221185D02*
X110664248Y35316423D01*
X110664248Y35316423D02*
X110616629Y35459280D01*
X110616629Y35459280D02*
X110569009Y35506899D01*
X110569009Y35506899D02*
X110235676Y35506899D01*
X110235676Y35506899D02*
X110235676Y35316423D01*
X110664248Y35935471D02*
X109664248Y35935471D01*
X109664248Y35935471D02*
X110664248Y36506899D01*
X110664248Y36506899D02*
X109664248Y36506899D01*
X110664248Y36983090D02*
X109664248Y36983090D01*
X109664248Y36983090D02*
X109664248Y37221185D01*
X109664248Y37221185D02*
X109711867Y37364042D01*
X109711867Y37364042D02*
X109807105Y37459280D01*
X109807105Y37459280D02*
X109902343Y37506899D01*
X109902343Y37506899D02*
X110092819Y37554518D01*
X110092819Y37554518D02*
X110235676Y37554518D01*
X110235676Y37554518D02*
X110426152Y37506899D01*
X110426152Y37506899D02*
X110521390Y37459280D01*
X110521390Y37459280D02*
X110616629Y37364042D01*
X110616629Y37364042D02*
X110664248Y37221185D01*
X110664248Y37221185D02*
X110664248Y36983090D01*
X118284248Y35483090D02*
X117284248Y35483090D01*
X117284248Y35483090D02*
X117284248Y35864042D01*
X117284248Y35864042D02*
X117331867Y35959280D01*
X117331867Y35959280D02*
X117379486Y36006899D01*
X117379486Y36006899D02*
X117474724Y36054518D01*
X117474724Y36054518D02*
X117617581Y36054518D01*
X117617581Y36054518D02*
X117712819Y36006899D01*
X117712819Y36006899D02*
X117760438Y35959280D01*
X117760438Y35959280D02*
X117808057Y35864042D01*
X117808057Y35864042D02*
X117808057Y35483090D01*
X118284248Y37006899D02*
X118284248Y36435471D01*
X118284248Y36721185D02*
X117284248Y36721185D01*
X117284248Y36721185D02*
X117427105Y36625947D01*
X117427105Y36625947D02*
X117522343Y36530709D01*
X117522343Y36530709D02*
X117569962Y36435471D01*
X92884248Y26066899D02*
X91884248Y26066899D01*
X91884248Y26066899D02*
X91884248Y26447851D01*
X91884248Y26447851D02*
X91931867Y26543089D01*
X91931867Y26543089D02*
X91979486Y26590708D01*
X91979486Y26590708D02*
X92074724Y26638327D01*
X92074724Y26638327D02*
X92217581Y26638327D01*
X92217581Y26638327D02*
X92312819Y26590708D01*
X92312819Y26590708D02*
X92360438Y26543089D01*
X92360438Y26543089D02*
X92408057Y26447851D01*
X92408057Y26447851D02*
X92408057Y26066899D01*
X92884248Y27590708D02*
X92884248Y27019280D01*
X92884248Y27304994D02*
X91884248Y27304994D01*
X91884248Y27304994D02*
X92027105Y27209756D01*
X92027105Y27209756D02*
X92122343Y27114518D01*
X92122343Y27114518D02*
X92169962Y27019280D01*
X91884248Y28447851D02*
X91884248Y28257375D01*
X91884248Y28257375D02*
X91931867Y28162137D01*
X91931867Y28162137D02*
X91979486Y28114518D01*
X91979486Y28114518D02*
X92122343Y28019280D01*
X92122343Y28019280D02*
X92312819Y27971661D01*
X92312819Y27971661D02*
X92693771Y27971661D01*
X92693771Y27971661D02*
X92789009Y28019280D01*
X92789009Y28019280D02*
X92836629Y28066899D01*
X92836629Y28066899D02*
X92884248Y28162137D01*
X92884248Y28162137D02*
X92884248Y28352613D01*
X92884248Y28352613D02*
X92836629Y28447851D01*
X92836629Y28447851D02*
X92789009Y28495470D01*
X92789009Y28495470D02*
X92693771Y28543089D01*
X92693771Y28543089D02*
X92455676Y28543089D01*
X92455676Y28543089D02*
X92360438Y28495470D01*
X92360438Y28495470D02*
X92312819Y28447851D01*
X92312819Y28447851D02*
X92265200Y28352613D01*
X92265200Y28352613D02*
X92265200Y28162137D01*
X92265200Y28162137D02*
X92312819Y28066899D01*
X92312819Y28066899D02*
X92360438Y28019280D01*
X92360438Y28019280D02*
X92455676Y27971661D01*
X100504248Y26066899D02*
X99504248Y26066899D01*
X99504248Y26066899D02*
X99504248Y26447851D01*
X99504248Y26447851D02*
X99551867Y26543089D01*
X99551867Y26543089D02*
X99599486Y26590708D01*
X99599486Y26590708D02*
X99694724Y26638327D01*
X99694724Y26638327D02*
X99837581Y26638327D01*
X99837581Y26638327D02*
X99932819Y26590708D01*
X99932819Y26590708D02*
X99980438Y26543089D01*
X99980438Y26543089D02*
X100028057Y26447851D01*
X100028057Y26447851D02*
X100028057Y26066899D01*
X100504248Y27590708D02*
X100504248Y27019280D01*
X100504248Y27304994D02*
X99504248Y27304994D01*
X99504248Y27304994D02*
X99647105Y27209756D01*
X99647105Y27209756D02*
X99742343Y27114518D01*
X99742343Y27114518D02*
X99789962Y27019280D01*
X99932819Y28162137D02*
X99885200Y28066899D01*
X99885200Y28066899D02*
X99837581Y28019280D01*
X99837581Y28019280D02*
X99742343Y27971661D01*
X99742343Y27971661D02*
X99694724Y27971661D01*
X99694724Y27971661D02*
X99599486Y28019280D01*
X99599486Y28019280D02*
X99551867Y28066899D01*
X99551867Y28066899D02*
X99504248Y28162137D01*
X99504248Y28162137D02*
X99504248Y28352613D01*
X99504248Y28352613D02*
X99551867Y28447851D01*
X99551867Y28447851D02*
X99599486Y28495470D01*
X99599486Y28495470D02*
X99694724Y28543089D01*
X99694724Y28543089D02*
X99742343Y28543089D01*
X99742343Y28543089D02*
X99837581Y28495470D01*
X99837581Y28495470D02*
X99885200Y28447851D01*
X99885200Y28447851D02*
X99932819Y28352613D01*
X99932819Y28352613D02*
X99932819Y28162137D01*
X99932819Y28162137D02*
X99980438Y28066899D01*
X99980438Y28066899D02*
X100028057Y28019280D01*
X100028057Y28019280D02*
X100123295Y27971661D01*
X100123295Y27971661D02*
X100313771Y27971661D01*
X100313771Y27971661D02*
X100409009Y28019280D01*
X100409009Y28019280D02*
X100456629Y28066899D01*
X100456629Y28066899D02*
X100504248Y28162137D01*
X100504248Y28162137D02*
X100504248Y28352613D01*
X100504248Y28352613D02*
X100456629Y28447851D01*
X100456629Y28447851D02*
X100409009Y28495470D01*
X100409009Y28495470D02*
X100313771Y28543089D01*
X100313771Y28543089D02*
X100123295Y28543089D01*
X100123295Y28543089D02*
X100028057Y28495470D01*
X100028057Y28495470D02*
X99980438Y28447851D01*
X99980438Y28447851D02*
X99932819Y28352613D01*
X108124248Y35483090D02*
X107124248Y35483090D01*
X107124248Y35483090D02*
X107124248Y35864042D01*
X107124248Y35864042D02*
X107171867Y35959280D01*
X107171867Y35959280D02*
X107219486Y36006899D01*
X107219486Y36006899D02*
X107314724Y36054518D01*
X107314724Y36054518D02*
X107457581Y36054518D01*
X107457581Y36054518D02*
X107552819Y36006899D01*
X107552819Y36006899D02*
X107600438Y35959280D01*
X107600438Y35959280D02*
X107648057Y35864042D01*
X107648057Y35864042D02*
X107648057Y35483090D01*
X107219486Y36435471D02*
X107171867Y36483090D01*
X107171867Y36483090D02*
X107124248Y36578328D01*
X107124248Y36578328D02*
X107124248Y36816423D01*
X107124248Y36816423D02*
X107171867Y36911661D01*
X107171867Y36911661D02*
X107219486Y36959280D01*
X107219486Y36959280D02*
X107314724Y37006899D01*
X107314724Y37006899D02*
X107409962Y37006899D01*
X107409962Y37006899D02*
X107552819Y36959280D01*
X107552819Y36959280D02*
X108124248Y36387852D01*
X108124248Y36387852D02*
X108124248Y37006899D01*
X113204248Y26733565D02*
X112728057Y26400232D01*
X113204248Y26162137D02*
X112204248Y26162137D01*
X112204248Y26162137D02*
X112204248Y26543089D01*
X112204248Y26543089D02*
X112251867Y26638327D01*
X112251867Y26638327D02*
X112299486Y26685946D01*
X112299486Y26685946D02*
X112394724Y26733565D01*
X112394724Y26733565D02*
X112537581Y26733565D01*
X112537581Y26733565D02*
X112632819Y26685946D01*
X112632819Y26685946D02*
X112680438Y26638327D01*
X112680438Y26638327D02*
X112728057Y26543089D01*
X112728057Y26543089D02*
X112728057Y26162137D01*
X113156629Y27114518D02*
X113204248Y27257375D01*
X113204248Y27257375D02*
X113204248Y27495470D01*
X113204248Y27495470D02*
X113156629Y27590708D01*
X113156629Y27590708D02*
X113109009Y27638327D01*
X113109009Y27638327D02*
X113013771Y27685946D01*
X113013771Y27685946D02*
X112918533Y27685946D01*
X112918533Y27685946D02*
X112823295Y27638327D01*
X112823295Y27638327D02*
X112775676Y27590708D01*
X112775676Y27590708D02*
X112728057Y27495470D01*
X112728057Y27495470D02*
X112680438Y27304994D01*
X112680438Y27304994D02*
X112632819Y27209756D01*
X112632819Y27209756D02*
X112585200Y27162137D01*
X112585200Y27162137D02*
X112489962Y27114518D01*
X112489962Y27114518D02*
X112394724Y27114518D01*
X112394724Y27114518D02*
X112299486Y27162137D01*
X112299486Y27162137D02*
X112251867Y27209756D01*
X112251867Y27209756D02*
X112204248Y27304994D01*
X112204248Y27304994D02*
X112204248Y27543089D01*
X112204248Y27543089D02*
X112251867Y27685946D01*
X112204248Y27971661D02*
X112204248Y28543089D01*
X113204248Y28257375D02*
X112204248Y28257375D01*
X109664248Y25947852D02*
X110664248Y26281185D01*
X110664248Y26281185D02*
X109664248Y26614518D01*
X110569009Y27519280D02*
X110616629Y27471661D01*
X110616629Y27471661D02*
X110664248Y27328804D01*
X110664248Y27328804D02*
X110664248Y27233566D01*
X110664248Y27233566D02*
X110616629Y27090709D01*
X110616629Y27090709D02*
X110521390Y26995471D01*
X110521390Y26995471D02*
X110426152Y26947852D01*
X110426152Y26947852D02*
X110235676Y26900233D01*
X110235676Y26900233D02*
X110092819Y26900233D01*
X110092819Y26900233D02*
X109902343Y26947852D01*
X109902343Y26947852D02*
X109807105Y26995471D01*
X109807105Y26995471D02*
X109711867Y27090709D01*
X109711867Y27090709D02*
X109664248Y27233566D01*
X109664248Y27233566D02*
X109664248Y27328804D01*
X109664248Y27328804D02*
X109711867Y27471661D01*
X109711867Y27471661D02*
X109759486Y27519280D01*
X110569009Y28519280D02*
X110616629Y28471661D01*
X110616629Y28471661D02*
X110664248Y28328804D01*
X110664248Y28328804D02*
X110664248Y28233566D01*
X110664248Y28233566D02*
X110616629Y28090709D01*
X110616629Y28090709D02*
X110521390Y27995471D01*
X110521390Y27995471D02*
X110426152Y27947852D01*
X110426152Y27947852D02*
X110235676Y27900233D01*
X110235676Y27900233D02*
X110092819Y27900233D01*
X110092819Y27900233D02*
X109902343Y27947852D01*
X109902343Y27947852D02*
X109807105Y27995471D01*
X109807105Y27995471D02*
X109711867Y28090709D01*
X109711867Y28090709D02*
X109664248Y28233566D01*
X109664248Y28233566D02*
X109664248Y28328804D01*
X109664248Y28328804D02*
X109711867Y28471661D01*
X109711867Y28471661D02*
X109759486Y28519280D01*
X95424248Y35483090D02*
X94424248Y35483090D01*
X94424248Y35483090D02*
X94424248Y35864042D01*
X94424248Y35864042D02*
X94471867Y35959280D01*
X94471867Y35959280D02*
X94519486Y36006899D01*
X94519486Y36006899D02*
X94614724Y36054518D01*
X94614724Y36054518D02*
X94757581Y36054518D01*
X94757581Y36054518D02*
X94852819Y36006899D01*
X94852819Y36006899D02*
X94900438Y35959280D01*
X94900438Y35959280D02*
X94948057Y35864042D01*
X94948057Y35864042D02*
X94948057Y35483090D01*
X94424248Y36387852D02*
X94424248Y37054518D01*
X94424248Y37054518D02*
X95424248Y36625947D01*
X97964248Y26066899D02*
X96964248Y26066899D01*
X96964248Y26066899D02*
X96964248Y26447851D01*
X96964248Y26447851D02*
X97011867Y26543089D01*
X97011867Y26543089D02*
X97059486Y26590708D01*
X97059486Y26590708D02*
X97154724Y26638327D01*
X97154724Y26638327D02*
X97297581Y26638327D01*
X97297581Y26638327D02*
X97392819Y26590708D01*
X97392819Y26590708D02*
X97440438Y26543089D01*
X97440438Y26543089D02*
X97488057Y26447851D01*
X97488057Y26447851D02*
X97488057Y26066899D01*
X97964248Y27590708D02*
X97964248Y27019280D01*
X97964248Y27304994D02*
X96964248Y27304994D01*
X96964248Y27304994D02*
X97107105Y27209756D01*
X97107105Y27209756D02*
X97202343Y27114518D01*
X97202343Y27114518D02*
X97249962Y27019280D01*
X96964248Y28495470D02*
X96964248Y28019280D01*
X96964248Y28019280D02*
X97440438Y27971661D01*
X97440438Y27971661D02*
X97392819Y28019280D01*
X97392819Y28019280D02*
X97345200Y28114518D01*
X97345200Y28114518D02*
X97345200Y28352613D01*
X97345200Y28352613D02*
X97392819Y28447851D01*
X97392819Y28447851D02*
X97440438Y28495470D01*
X97440438Y28495470D02*
X97535676Y28543089D01*
X97535676Y28543089D02*
X97773771Y28543089D01*
X97773771Y28543089D02*
X97869009Y28495470D01*
X97869009Y28495470D02*
X97916629Y28447851D01*
X97916629Y28447851D02*
X97964248Y28352613D01*
X97964248Y28352613D02*
X97964248Y28114518D01*
X97964248Y28114518D02*
X97916629Y28019280D01*
X97916629Y28019280D02*
X97869009Y27971661D01*
X95424248Y26066899D02*
X94424248Y26066899D01*
X94424248Y26066899D02*
X94424248Y26447851D01*
X94424248Y26447851D02*
X94471867Y26543089D01*
X94471867Y26543089D02*
X94519486Y26590708D01*
X94519486Y26590708D02*
X94614724Y26638327D01*
X94614724Y26638327D02*
X94757581Y26638327D01*
X94757581Y26638327D02*
X94852819Y26590708D01*
X94852819Y26590708D02*
X94900438Y26543089D01*
X94900438Y26543089D02*
X94948057Y26447851D01*
X94948057Y26447851D02*
X94948057Y26066899D01*
X95424248Y27590708D02*
X95424248Y27019280D01*
X95424248Y27304994D02*
X94424248Y27304994D01*
X94424248Y27304994D02*
X94567105Y27209756D01*
X94567105Y27209756D02*
X94662343Y27114518D01*
X94662343Y27114518D02*
X94709962Y27019280D01*
X94757581Y28447851D02*
X95424248Y28447851D01*
X94376629Y28209756D02*
X95090914Y27971661D01*
X95090914Y27971661D02*
X95090914Y28590708D01*
X103044248Y26066899D02*
X102044248Y26066899D01*
X102044248Y26066899D02*
X102044248Y26447851D01*
X102044248Y26447851D02*
X102091867Y26543089D01*
X102091867Y26543089D02*
X102139486Y26590708D01*
X102139486Y26590708D02*
X102234724Y26638327D01*
X102234724Y26638327D02*
X102377581Y26638327D01*
X102377581Y26638327D02*
X102472819Y26590708D01*
X102472819Y26590708D02*
X102520438Y26543089D01*
X102520438Y26543089D02*
X102568057Y26447851D01*
X102568057Y26447851D02*
X102568057Y26066899D01*
X103044248Y27590708D02*
X103044248Y27019280D01*
X103044248Y27304994D02*
X102044248Y27304994D01*
X102044248Y27304994D02*
X102187105Y27209756D01*
X102187105Y27209756D02*
X102282343Y27114518D01*
X102282343Y27114518D02*
X102329962Y27019280D01*
X103044248Y28066899D02*
X103044248Y28257375D01*
X103044248Y28257375D02*
X102996629Y28352613D01*
X102996629Y28352613D02*
X102949009Y28400232D01*
X102949009Y28400232D02*
X102806152Y28495470D01*
X102806152Y28495470D02*
X102615676Y28543089D01*
X102615676Y28543089D02*
X102234724Y28543089D01*
X102234724Y28543089D02*
X102139486Y28495470D01*
X102139486Y28495470D02*
X102091867Y28447851D01*
X102091867Y28447851D02*
X102044248Y28352613D01*
X102044248Y28352613D02*
X102044248Y28162137D01*
X102044248Y28162137D02*
X102091867Y28066899D01*
X102091867Y28066899D02*
X102139486Y28019280D01*
X102139486Y28019280D02*
X102234724Y27971661D01*
X102234724Y27971661D02*
X102472819Y27971661D01*
X102472819Y27971661D02*
X102568057Y28019280D01*
X102568057Y28019280D02*
X102615676Y28066899D01*
X102615676Y28066899D02*
X102663295Y28162137D01*
X102663295Y28162137D02*
X102663295Y28352613D01*
X102663295Y28352613D02*
X102615676Y28447851D01*
X102615676Y28447851D02*
X102568057Y28495470D01*
X102568057Y28495470D02*
X102472819Y28543089D01*
X103044248Y35483090D02*
X102044248Y35483090D01*
X102044248Y35483090D02*
X102044248Y35864042D01*
X102044248Y35864042D02*
X102091867Y35959280D01*
X102091867Y35959280D02*
X102139486Y36006899D01*
X102139486Y36006899D02*
X102234724Y36054518D01*
X102234724Y36054518D02*
X102377581Y36054518D01*
X102377581Y36054518D02*
X102472819Y36006899D01*
X102472819Y36006899D02*
X102520438Y35959280D01*
X102520438Y35959280D02*
X102568057Y35864042D01*
X102568057Y35864042D02*
X102568057Y35483090D01*
X102377581Y36911661D02*
X103044248Y36911661D01*
X101996629Y36673566D02*
X102710914Y36435471D01*
X102710914Y36435471D02*
X102710914Y37054518D01*
X118284248Y26590708D02*
X117808057Y26257375D01*
X118284248Y26019280D02*
X117284248Y26019280D01*
X117284248Y26019280D02*
X117284248Y26400232D01*
X117284248Y26400232D02*
X117331867Y26495470D01*
X117331867Y26495470D02*
X117379486Y26543089D01*
X117379486Y26543089D02*
X117474724Y26590708D01*
X117474724Y26590708D02*
X117617581Y26590708D01*
X117617581Y26590708D02*
X117712819Y26543089D01*
X117712819Y26543089D02*
X117760438Y26495470D01*
X117760438Y26495470D02*
X117808057Y26400232D01*
X117808057Y26400232D02*
X117808057Y26019280D01*
X117998533Y26971661D02*
X117998533Y27447851D01*
X118284248Y26876423D02*
X117284248Y27209756D01*
X117284248Y27209756D02*
X118284248Y27543089D01*
X117284248Y27781185D02*
X118284248Y28019280D01*
X118284248Y28019280D02*
X117569962Y28209756D01*
X117569962Y28209756D02*
X118284248Y28400232D01*
X118284248Y28400232D02*
X117284248Y28638328D01*
X112251867Y35459280D02*
X112204248Y35364042D01*
X112204248Y35364042D02*
X112204248Y35221185D01*
X112204248Y35221185D02*
X112251867Y35078328D01*
X112251867Y35078328D02*
X112347105Y34983090D01*
X112347105Y34983090D02*
X112442343Y34935471D01*
X112442343Y34935471D02*
X112632819Y34887852D01*
X112632819Y34887852D02*
X112775676Y34887852D01*
X112775676Y34887852D02*
X112966152Y34935471D01*
X112966152Y34935471D02*
X113061390Y34983090D01*
X113061390Y34983090D02*
X113156629Y35078328D01*
X113156629Y35078328D02*
X113204248Y35221185D01*
X113204248Y35221185D02*
X113204248Y35316423D01*
X113204248Y35316423D02*
X113156629Y35459280D01*
X113156629Y35459280D02*
X113109009Y35506899D01*
X113109009Y35506899D02*
X112775676Y35506899D01*
X112775676Y35506899D02*
X112775676Y35316423D01*
X113204248Y35935471D02*
X112204248Y35935471D01*
X112204248Y35935471D02*
X113204248Y36506899D01*
X113204248Y36506899D02*
X112204248Y36506899D01*
X113204248Y36983090D02*
X112204248Y36983090D01*
X112204248Y36983090D02*
X112204248Y37221185D01*
X112204248Y37221185D02*
X112251867Y37364042D01*
X112251867Y37364042D02*
X112347105Y37459280D01*
X112347105Y37459280D02*
X112442343Y37506899D01*
X112442343Y37506899D02*
X112632819Y37554518D01*
X112632819Y37554518D02*
X112775676Y37554518D01*
X112775676Y37554518D02*
X112966152Y37506899D01*
X112966152Y37506899D02*
X113061390Y37459280D01*
X113061390Y37459280D02*
X113156629Y37364042D01*
X113156629Y37364042D02*
X113204248Y37221185D01*
X113204248Y37221185D02*
X113204248Y36983090D01*
X90344248Y26066899D02*
X89344248Y26066899D01*
X89344248Y26066899D02*
X89344248Y26447851D01*
X89344248Y26447851D02*
X89391867Y26543089D01*
X89391867Y26543089D02*
X89439486Y26590708D01*
X89439486Y26590708D02*
X89534724Y26638327D01*
X89534724Y26638327D02*
X89677581Y26638327D01*
X89677581Y26638327D02*
X89772819Y26590708D01*
X89772819Y26590708D02*
X89820438Y26543089D01*
X89820438Y26543089D02*
X89868057Y26447851D01*
X89868057Y26447851D02*
X89868057Y26066899D01*
X90344248Y27590708D02*
X90344248Y27019280D01*
X90344248Y27304994D02*
X89344248Y27304994D01*
X89344248Y27304994D02*
X89487105Y27209756D01*
X89487105Y27209756D02*
X89582343Y27114518D01*
X89582343Y27114518D02*
X89629962Y27019280D01*
X89344248Y28209756D02*
X89344248Y28304994D01*
X89344248Y28304994D02*
X89391867Y28400232D01*
X89391867Y28400232D02*
X89439486Y28447851D01*
X89439486Y28447851D02*
X89534724Y28495470D01*
X89534724Y28495470D02*
X89725200Y28543089D01*
X89725200Y28543089D02*
X89963295Y28543089D01*
X89963295Y28543089D02*
X90153771Y28495470D01*
X90153771Y28495470D02*
X90249009Y28447851D01*
X90249009Y28447851D02*
X90296629Y28400232D01*
X90296629Y28400232D02*
X90344248Y28304994D01*
X90344248Y28304994D02*
X90344248Y28209756D01*
X90344248Y28209756D02*
X90296629Y28114518D01*
X90296629Y28114518D02*
X90249009Y28066899D01*
X90249009Y28066899D02*
X90153771Y28019280D01*
X90153771Y28019280D02*
X89963295Y27971661D01*
X89963295Y27971661D02*
X89725200Y27971661D01*
X89725200Y27971661D02*
X89534724Y28019280D01*
X89534724Y28019280D02*
X89439486Y28066899D01*
X89439486Y28066899D02*
X89391867Y28114518D01*
X89391867Y28114518D02*
X89344248Y28209756D01*
X90344248Y35483090D02*
X89344248Y35483090D01*
X89344248Y35483090D02*
X89344248Y35864042D01*
X89344248Y35864042D02*
X89391867Y35959280D01*
X89391867Y35959280D02*
X89439486Y36006899D01*
X89439486Y36006899D02*
X89534724Y36054518D01*
X89534724Y36054518D02*
X89677581Y36054518D01*
X89677581Y36054518D02*
X89772819Y36006899D01*
X89772819Y36006899D02*
X89820438Y35959280D01*
X89820438Y35959280D02*
X89868057Y35864042D01*
X89868057Y35864042D02*
X89868057Y35483090D01*
X90344248Y36530709D02*
X90344248Y36721185D01*
X90344248Y36721185D02*
X90296629Y36816423D01*
X90296629Y36816423D02*
X90249009Y36864042D01*
X90249009Y36864042D02*
X90106152Y36959280D01*
X90106152Y36959280D02*
X89915676Y37006899D01*
X89915676Y37006899D02*
X89534724Y37006899D01*
X89534724Y37006899D02*
X89439486Y36959280D01*
X89439486Y36959280D02*
X89391867Y36911661D01*
X89391867Y36911661D02*
X89344248Y36816423D01*
X89344248Y36816423D02*
X89344248Y36625947D01*
X89344248Y36625947D02*
X89391867Y36530709D01*
X89391867Y36530709D02*
X89439486Y36483090D01*
X89439486Y36483090D02*
X89534724Y36435471D01*
X89534724Y36435471D02*
X89772819Y36435471D01*
X89772819Y36435471D02*
X89868057Y36483090D01*
X89868057Y36483090D02*
X89915676Y36530709D01*
X89915676Y36530709D02*
X89963295Y36625947D01*
X89963295Y36625947D02*
X89963295Y36816423D01*
X89963295Y36816423D02*
X89915676Y36911661D01*
X89915676Y36911661D02*
X89868057Y36959280D01*
X89868057Y36959280D02*
X89772819Y37006899D01*
X115744248Y35483090D02*
X114744248Y35483090D01*
X114744248Y35483090D02*
X114744248Y35864042D01*
X114744248Y35864042D02*
X114791867Y35959280D01*
X114791867Y35959280D02*
X114839486Y36006899D01*
X114839486Y36006899D02*
X114934724Y36054518D01*
X114934724Y36054518D02*
X115077581Y36054518D01*
X115077581Y36054518D02*
X115172819Y36006899D01*
X115172819Y36006899D02*
X115220438Y35959280D01*
X115220438Y35959280D02*
X115268057Y35864042D01*
X115268057Y35864042D02*
X115268057Y35483090D01*
X114744248Y36673566D02*
X114744248Y36768804D01*
X114744248Y36768804D02*
X114791867Y36864042D01*
X114791867Y36864042D02*
X114839486Y36911661D01*
X114839486Y36911661D02*
X114934724Y36959280D01*
X114934724Y36959280D02*
X115125200Y37006899D01*
X115125200Y37006899D02*
X115363295Y37006899D01*
X115363295Y37006899D02*
X115553771Y36959280D01*
X115553771Y36959280D02*
X115649009Y36911661D01*
X115649009Y36911661D02*
X115696629Y36864042D01*
X115696629Y36864042D02*
X115744248Y36768804D01*
X115744248Y36768804D02*
X115744248Y36673566D01*
X115744248Y36673566D02*
X115696629Y36578328D01*
X115696629Y36578328D02*
X115649009Y36530709D01*
X115649009Y36530709D02*
X115553771Y36483090D01*
X115553771Y36483090D02*
X115363295Y36435471D01*
X115363295Y36435471D02*
X115125200Y36435471D01*
X115125200Y36435471D02*
X114934724Y36483090D01*
X114934724Y36483090D02*
X114839486Y36530709D01*
X114839486Y36530709D02*
X114791867Y36578328D01*
X114791867Y36578328D02*
X114744248Y36673566D01*
D11*
%TO.C,RST1*%
X100979429Y57751185D02*
X100979429Y57501185D01*
X100979429Y60751185D02*
X100979429Y61001185D01*
X101229429Y57501185D02*
X100979429Y57501185D01*
X101229429Y61001185D02*
X100979429Y61001185D01*
X105429429Y57501185D02*
X105679429Y57501185D01*
X105429429Y61001185D02*
X105679429Y61001185D01*
X105679429Y57751185D02*
X105679429Y57501185D01*
X105679429Y60751185D02*
X105679429Y61001185D01*
%TO.C,D10*%
X57579429Y26651185D02*
X58179429Y26251185D01*
X57579429Y26251185D02*
X57079429Y26251185D01*
X57579429Y25851185D02*
X57579429Y26651185D01*
X58179429Y26251185D02*
X57579429Y25851185D01*
X58179429Y26251185D02*
X58179429Y26801185D01*
X58179429Y26251185D02*
X58179429Y25701185D01*
X58579429Y26251185D02*
X58179429Y26251185D01*
%TO.C,D19*%
X109173431Y-31485169D02*
X109898478Y-31147075D01*
X109535954Y-31316122D02*
X109324645Y-30862968D01*
X109789525Y-31859907D02*
X109173431Y-31485169D01*
X109789525Y-31859907D02*
X109291056Y-32092347D01*
X109789525Y-31859907D02*
X110287995Y-31627467D01*
X109898478Y-31147075D02*
X109789525Y-31859907D01*
X109958573Y-32222430D02*
X109789525Y-31859907D01*
%TO.C,D17*%
X71572482Y-4072866D02*
X71711400Y-3285020D01*
X71641941Y-3678943D02*
X71149537Y-3592119D01*
X71711400Y-3285020D02*
X72232826Y-3783132D01*
X72232826Y-3783132D02*
X71572482Y-4072866D01*
X72232826Y-3783132D02*
X72137319Y-4324776D01*
X72232826Y-3783132D02*
X72328332Y-3241488D01*
X72626749Y-3852591D02*
X72232826Y-3783132D01*
D12*
%TO.C,DISP1*%
X85799429Y41341185D02*
X85799429Y54161185D01*
X88459429Y54161185D02*
X85799429Y54161185D01*
X88459429Y41341185D02*
X85799429Y41341185D01*
X88459429Y41341185D02*
X88459429Y54161185D01*
D11*
%TO.C,D13*%
X75579429Y23651185D02*
X76179429Y23251185D01*
X75579429Y23251185D02*
X75079429Y23251185D01*
X75579429Y22851185D02*
X75579429Y23651185D01*
X76179429Y23251185D02*
X75579429Y22851185D01*
X76179429Y23251185D02*
X76179429Y23801185D01*
X76179429Y23251185D02*
X76179429Y22701185D01*
X76579429Y23251185D02*
X76179429Y23251185D01*
%TO.C,D2*%
X-4901759Y21858528D02*
X-4231705Y21592016D01*
X-4818594Y21467269D02*
X-5307668Y21363313D01*
X-4735429Y21076010D02*
X-4901759Y21858528D01*
X-4231705Y21592016D02*
X-4735429Y21076010D01*
X-4231705Y21592016D02*
X-4346057Y22129997D01*
X-4231705Y21592016D02*
X-4117354Y21054035D01*
X-3840446Y21675181D02*
X-4231705Y21592016D01*
%TO.C,D5*%
X16969471Y42725303D02*
X17602050Y42379120D01*
X17004333Y42326825D02*
X16506236Y42283247D01*
X17039196Y41928347D02*
X16969471Y42725303D01*
X17602050Y42379120D02*
X17039196Y41928347D01*
X17602050Y42379120D02*
X17554114Y42927026D01*
X17602050Y42379120D02*
X17649986Y41831211D01*
X18000528Y42413981D02*
X17602050Y42379120D01*
%TO.C,D1*%
X-1367261Y5230019D02*
X-697207Y4963507D01*
X-1284096Y4838760D02*
X-1773170Y4734804D01*
X-1200931Y4447501D02*
X-1367261Y5230019D01*
X-697207Y4963507D02*
X-1200931Y4447501D01*
X-697207Y4963507D02*
X-811559Y5501488D01*
X-697207Y4963507D02*
X-582856Y4425526D01*
X-305948Y5046672D02*
X-697207Y4963507D01*
%TO.C,D7*%
X39579429Y30651185D02*
X40179429Y30251185D01*
X39579429Y30251185D02*
X39079429Y30251185D01*
X39579429Y29851185D02*
X39579429Y30651185D01*
X40179429Y30251185D02*
X39579429Y29851185D01*
X40179429Y30251185D02*
X40179429Y30801185D01*
X40179429Y30251185D02*
X40179429Y29701185D01*
X40579429Y30251185D02*
X40179429Y30251185D01*
%TO.C,D4*%
X18451118Y25789993D02*
X19083697Y25443810D01*
X18485980Y25391515D02*
X17987883Y25347937D01*
X18520843Y24993037D02*
X18451118Y25789993D01*
X19083697Y25443810D02*
X18520843Y24993037D01*
X19083697Y25443810D02*
X19035761Y25991716D01*
X19083697Y25443810D02*
X19131633Y24895901D01*
X19482175Y25478671D02*
X19083697Y25443810D01*
%TO.C,D9*%
X39579429Y64651185D02*
X40179429Y64251185D01*
X39579429Y64251185D02*
X39079429Y64251185D01*
X39579429Y63851185D02*
X39579429Y64651185D01*
X40179429Y64251185D02*
X39579429Y63851185D01*
X40179429Y64251185D02*
X40179429Y64801185D01*
X40179429Y64251185D02*
X40179429Y63701185D01*
X40579429Y64251185D02*
X40179429Y64251185D01*
%TO.C,D8*%
X39579429Y47651185D02*
X40179429Y47251185D01*
X39579429Y47251185D02*
X39079429Y47251185D01*
X39579429Y46851185D02*
X39579429Y47651185D01*
X40179429Y47251185D02*
X39579429Y46851185D01*
X40179429Y47251185D02*
X40179429Y47801185D01*
X40179429Y47251185D02*
X40179429Y46701185D01*
X40579429Y47251185D02*
X40179429Y47251185D01*
%TO.C,D3*%
X-8436258Y38487037D02*
X-7766204Y38220525D01*
X-8353093Y38095778D02*
X-8842167Y37991822D01*
X-8269928Y37704519D02*
X-8436258Y38487037D01*
X-7766204Y38220525D02*
X-8269928Y37704519D01*
X-7766204Y38220525D02*
X-7880556Y38758506D01*
X-7766204Y38220525D02*
X-7651853Y37682544D01*
X-7374945Y38303690D02*
X-7766204Y38220525D01*
%TO.C,D14*%
X75579429Y40651185D02*
X76179429Y40251185D01*
X75579429Y40251185D02*
X75079429Y40251185D01*
X75579429Y39851185D02*
X75579429Y40651185D01*
X76179429Y40251185D02*
X75579429Y39851185D01*
X76179429Y40251185D02*
X76179429Y40801185D01*
X76179429Y40251185D02*
X76179429Y39701185D01*
X76579429Y40251185D02*
X76179429Y40251185D01*
%TO.C,D6*%
X15487823Y59660613D02*
X16120402Y59314430D01*
X15522685Y59262135D02*
X15024588Y59218557D01*
X15557548Y58863657D02*
X15487823Y59660613D01*
X16120402Y59314430D02*
X15557548Y58863657D01*
X16120402Y59314430D02*
X16072466Y59862336D01*
X16120402Y59314430D02*
X16168338Y58766521D01*
X16518880Y59349291D02*
X16120402Y59314430D01*
%TO.C,D12*%
X57579429Y60651185D02*
X58179429Y60251185D01*
X57579429Y60251185D02*
X57079429Y60251185D01*
X57579429Y59851185D02*
X57579429Y60651185D01*
X58179429Y60251185D02*
X57579429Y59851185D01*
X58179429Y60251185D02*
X58179429Y60801185D01*
X58179429Y60251185D02*
X58179429Y59701185D01*
X58579429Y60251185D02*
X58179429Y60251185D01*
D12*
%TO.C,MCU1*%
X88559429Y40701185D02*
X88559429Y38041185D01*
X88559429Y25461185D02*
X88559429Y22801185D01*
X116559429Y38041185D02*
X116559429Y40701185D01*
X119159429Y40701185D02*
X88559429Y40701185D01*
X119159429Y40701185D02*
X119159429Y38041185D01*
X119159429Y38041185D02*
X88559429Y38041185D01*
X119159429Y25461185D02*
X88559429Y25461185D01*
X119159429Y25461185D02*
X119159429Y22801185D01*
X119159429Y22801185D02*
X88559429Y22801185D01*
D11*
%TO.C,D11*%
X57579429Y43651185D02*
X58179429Y43251185D01*
X57579429Y43251185D02*
X57079429Y43251185D01*
X57579429Y42851185D02*
X57579429Y43651185D01*
X58179429Y43251185D02*
X57579429Y42851185D01*
X58179429Y43251185D02*
X58179429Y43801185D01*
X58179429Y43251185D02*
X58179429Y42701185D01*
X58579429Y43251185D02*
X58179429Y43251185D01*
%TO.C,D16*%
X48498248Y-3833336D02*
X49168302Y-4099848D01*
X48581413Y-4224595D02*
X48092339Y-4328551D01*
X48664578Y-4615854D02*
X48498248Y-3833336D01*
X49168302Y-4099848D02*
X48664578Y-4615854D01*
X49168302Y-4099848D02*
X49053950Y-3561867D01*
X49168302Y-4099848D02*
X49282653Y-4637829D01*
X49559561Y-4016683D02*
X49168302Y-4099848D01*
%TO.C,D18*%
X93334796Y-12911408D02*
X93793658Y-12256086D01*
X93564227Y-12583747D02*
X93154651Y-12296959D01*
X93793658Y-12256086D02*
X94055718Y-12927893D01*
X94055718Y-12927893D02*
X93334796Y-12911408D01*
X94055718Y-12927893D02*
X93740251Y-13378426D01*
X94055718Y-12927893D02*
X94371185Y-12477359D01*
X94383379Y-13157323D02*
X94055718Y-12927893D01*
%TO.C,D15*%
X75579429Y57651185D02*
X76179429Y57251185D01*
X75579429Y57251185D02*
X75079429Y57251185D01*
X75579429Y56851185D02*
X75579429Y57651185D01*
X76179429Y57251185D02*
X75579429Y56851185D01*
X76179429Y57251185D02*
X76179429Y57801185D01*
X76179429Y57251185D02*
X76179429Y56701185D01*
X76579429Y57251185D02*
X76179429Y57251185D01*
D10*
%TO.C,T1*%
X114629429Y60601185D02*
X114629429Y57751185D01*
X114629429Y57751185D02*
X108029429Y57751185D01*
X111329429Y60601185D02*
X114629429Y60601185D01*
X111329429Y60601185D02*
X108029429Y60601185D01*
X109379429Y60601185D02*
X113279429Y60601185D01*
X108029429Y57751185D02*
X108029429Y60601185D01*
%TD*%
M02*
