%TF.GenerationSoftware,KiCad,Pcbnew,9.0.1*%
%TF.CreationDate,2025-04-13T19:36:13-06:00*%
%TF.ProjectId,v2board,7632626f-6172-4642-9e6b-696361645f70,v1.0.0*%
%TF.SameCoordinates,Original*%
%TF.FileFunction,Copper,L2,Bot*%
%TF.FilePolarity,Positive*%
%FSLAX46Y46*%
G04 Gerber Fmt 4.6, Leading zero omitted, Abs format (unit mm)*
G04 Created by KiCad (PCBNEW 9.0.1) date 2025-04-13 19:36:13*
%MOMM*%
%LPD*%
G01*
G04 APERTURE LIST*
G04 Aperture macros list*
%AMRotRect*
0 Rectangle, with rotation*
0 The origin of the aperture is its center*
0 $1 length*
0 $2 width*
0 $3 Rotation angle, in degrees counterclockwise*
0 Add horizontal line*
21,1,$1,$2,0,0,$3*%
G04 Aperture macros list end*
%TA.AperFunction,SMDPad,CuDef*%
%ADD10R,1.550000X1.000000*%
%TD*%
%TA.AperFunction,SMDPad,CuDef*%
%ADD11R,0.900000X0.900000*%
%TD*%
%TA.AperFunction,WasherPad*%
%ADD12C,1.000000*%
%TD*%
%TA.AperFunction,SMDPad,CuDef*%
%ADD13R,0.900000X1.250000*%
%TD*%
%TA.AperFunction,SMDPad,CuDef*%
%ADD14R,2.600000X2.600000*%
%TD*%
%TA.AperFunction,ComponentPad*%
%ADD15R,1.778000X1.778000*%
%TD*%
%TA.AperFunction,SMDPad,CuDef*%
%ADD16R,0.900000X1.200000*%
%TD*%
%TA.AperFunction,ComponentPad*%
%ADD17C,1.905000*%
%TD*%
%TA.AperFunction,SMDPad,CuDef*%
%ADD18RotRect,2.600000X2.600000X192.000000*%
%TD*%
%TA.AperFunction,ComponentPad*%
%ADD19RotRect,1.778000X1.778000X115.000000*%
%TD*%
%TA.AperFunction,SMDPad,CuDef*%
%ADD20RotRect,0.900000X1.200000X115.000000*%
%TD*%
%TA.AperFunction,ComponentPad*%
%ADD21RotRect,1.778000X1.778000X170.000000*%
%TD*%
%TA.AperFunction,SMDPad,CuDef*%
%ADD22RotRect,0.900000X1.200000X170.000000*%
%TD*%
%TA.AperFunction,ComponentPad*%
%ADD23O,1.700000X1.700000*%
%TD*%
%TA.AperFunction,ComponentPad*%
%ADD24C,1.700000*%
%TD*%
%TA.AperFunction,ComponentPad*%
%ADD25RotRect,1.778000X1.778000X192.000000*%
%TD*%
%TA.AperFunction,SMDPad,CuDef*%
%ADD26RotRect,0.900000X1.200000X192.000000*%
%TD*%
%TA.AperFunction,ComponentPad*%
%ADD27RotRect,1.778000X1.778000X185.000000*%
%TD*%
%TA.AperFunction,SMDPad,CuDef*%
%ADD28RotRect,0.900000X1.200000X185.000000*%
%TD*%
%TA.AperFunction,SMDPad,CuDef*%
%ADD29RotRect,2.600000X2.600000X185.000000*%
%TD*%
%TA.AperFunction,SMDPad,CuDef*%
%ADD30RotRect,2.600000X2.600000X170.000000*%
%TD*%
%TA.AperFunction,ComponentPad*%
%ADD31R,1.200000X1.700000*%
%TD*%
%TA.AperFunction,ComponentPad*%
%ADD32O,1.200000X1.700000*%
%TD*%
%TA.AperFunction,SMDPad,CuDef*%
%ADD33RotRect,2.600000X2.600000X115.000000*%
%TD*%
%TA.AperFunction,SMDPad,CuDef*%
%ADD34RotRect,2.600000X2.600000X145.000000*%
%TD*%
%TA.AperFunction,ComponentPad*%
%ADD35RotRect,1.778000X1.778000X145.000000*%
%TD*%
%TA.AperFunction,SMDPad,CuDef*%
%ADD36RotRect,0.900000X1.200000X145.000000*%
%TD*%
%TA.AperFunction,ViaPad*%
%ADD37C,0.600000*%
%TD*%
%TA.AperFunction,ViaPad*%
%ADD38C,0.800000*%
%TD*%
%TA.AperFunction,Conductor*%
%ADD39C,0.200000*%
%TD*%
%TA.AperFunction,Conductor*%
%ADD40C,0.250000*%
%TD*%
G04 APERTURE END LIST*
D10*
%TO.P,RST1,4*%
%TO.N,RST*%
X105954429Y58401185D03*
%TO.P,RST1,3*%
%TO.N,GND*%
X105954429Y60101185D03*
%TO.P,RST1,2*%
%TO.N,RST*%
X100704429Y58401185D03*
%TO.P,RST1,1*%
%TO.N,GND*%
X100704429Y60101185D03*
%TD*%
D11*
%TO.P,T1,*%
%TO.N,*%
X107629429Y60351185D03*
X107629429Y58151185D03*
D12*
X109829429Y59251185D03*
X112829429Y59251185D03*
D11*
X115029429Y60351185D03*
X115029429Y58151185D03*
D13*
%TO.P,T1,1*%
%TO.N,pos*%
X109079429Y57176185D03*
%TO.P,T1,2*%
%TO.N,RAW*%
X112079429Y57176185D03*
%TO.P,T1,3*%
%TO.N,N/C*%
X113579429Y57176185D03*
%TD*%
D14*
%TO.P,S11,1*%
%TO.N,P8*%
X61104429Y32301185D03*
%TO.P,S11,2*%
%TO.N,main_pointer_home*%
X49554429Y34501185D03*
%TD*%
D15*
%TO.P,D10,1*%
%TO.N,P5*%
X61639429Y26251185D03*
D16*
X59479429Y26251185D03*
%TO.P,D10,2*%
%TO.N,main_pointer_bottom*%
X56179429Y26251185D03*
D17*
X54019429Y26251185D03*
%TD*%
D18*
%TO.P,S16,1*%
%TO.N,P2*%
X54306016Y-14202422D03*
%TO.P,S16,2*%
%TO.N,thumb_c1*%
X42551005Y-14451878D03*
%TD*%
D19*
%TO.P,D19,1*%
%TO.N,P16*%
X111251785Y-34995732D03*
D20*
X110338929Y-33038107D03*
%TO.P,D19,2*%
%TO.N,thumb_c4*%
X108944289Y-30047291D03*
D17*
X108031433Y-28089666D03*
%TD*%
D21*
%TO.P,D17,1*%
%TO.N,P16*%
X75640263Y-4383955D03*
D22*
X73513076Y-4008874D03*
%TO.P,D17,2*%
%TO.N,thumb_c2*%
X70263210Y-3435836D03*
D17*
X68136023Y-3060755D03*
%TD*%
D23*
%TO.P,DISP1,1*%
%TO.N,P6*%
X87129429Y52831185D03*
%TO.P,DISP1,2*%
%TO.N,P7*%
X87129429Y50291185D03*
%TO.P,DISP1,3*%
%TO.N,VCC*%
X87129429Y47751185D03*
%TO.P,DISP1,4*%
%TO.N,GND*%
X87129429Y45211185D03*
D24*
%TO.P,DISP1,5*%
%TO.N,P10*%
X87129429Y42671185D03*
%TD*%
D15*
%TO.P,D13,1*%
%TO.N,P5*%
X79639429Y23251185D03*
D16*
X77479429Y23251185D03*
%TO.P,D13,2*%
%TO.N,main_inner_bottom*%
X74179429Y23251185D03*
D17*
X72019429Y23251185D03*
%TD*%
D25*
%TO.P,D2,1*%
%TO.N,P3*%
X-847315Y22311392D03*
D26*
X-2960113Y21862301D03*
%TO.P,D2,2*%
%TO.N,main_pinky_home*%
X-6188001Y21176193D03*
D17*
X-8300799Y20727102D03*
%TD*%
D27*
%TO.P,D5,1*%
%TO.N,P3*%
X21048884Y42680677D03*
D28*
X18897103Y42492421D03*
%TO.P,D5,2*%
%TO.N,main_ring_home*%
X15609661Y42204807D03*
D17*
X13457880Y42016551D03*
%TD*%
D29*
%TO.P,S6,1*%
%TO.N,P2*%
X19988627Y48661027D03*
%TO.P,S6,2*%
%TO.N,main_ring_top*%
X8290836Y49846006D03*
%TD*%
D18*
%TO.P,S1,1*%
%TO.N,P1*%
X4440508Y-5139067D03*
%TO.P,S1,2*%
%TO.N,main_pinky_bottom*%
X-7314503Y-5388523D03*
%TD*%
D14*
%TO.P,S14,1*%
%TO.N,P9*%
X79104429Y29301185D03*
%TO.P,S14,2*%
%TO.N,main_inner_home*%
X67554429Y31501185D03*
%TD*%
D25*
%TO.P,D1,1*%
%TO.N,P5*%
X2687183Y5682883D03*
D26*
X574385Y5233792D03*
%TO.P,D1,2*%
%TO.N,main_pinky_bottom*%
X-2653503Y4547684D03*
D17*
X-4766301Y4098593D03*
%TD*%
D14*
%TO.P,S10,1*%
%TO.N,P8*%
X61104429Y15301185D03*
%TO.P,S10,2*%
%TO.N,main_pointer_bottom*%
X49554429Y17501185D03*
%TD*%
D15*
%TO.P,D7,1*%
%TO.N,P5*%
X43639429Y30251185D03*
D16*
X41479429Y30251185D03*
%TO.P,D7,2*%
%TO.N,main_middle_bottom*%
X38179429Y30251185D03*
D17*
X36019429Y30251185D03*
%TD*%
D29*
%TO.P,S4,1*%
%TO.N,P2*%
X22951922Y14790408D03*
%TO.P,S4,2*%
%TO.N,main_ring_bottom*%
X11254131Y15975387D03*
%TD*%
D27*
%TO.P,D4,1*%
%TO.N,P5*%
X22530531Y25745367D03*
D28*
X20378750Y25557111D03*
%TO.P,D4,2*%
%TO.N,main_ring_bottom*%
X17091308Y25269497D03*
D17*
X14939527Y25081241D03*
%TD*%
D15*
%TO.P,D9,1*%
%TO.N,P0*%
X43639429Y64251185D03*
D16*
X41479429Y64251185D03*
%TO.P,D9,2*%
%TO.N,main_middle_top*%
X38179429Y64251185D03*
D17*
X36019429Y64251185D03*
%TD*%
D15*
%TO.P,D8,1*%
%TO.N,P3*%
X43639429Y47251185D03*
D16*
X41479429Y47251185D03*
%TO.P,D8,2*%
%TO.N,main_middle_home*%
X38179429Y47251185D03*
D17*
X36019429Y47251185D03*
%TD*%
D25*
%TO.P,D3,1*%
%TO.N,P0*%
X-4381814Y38939901D03*
D26*
X-6494612Y38490810D03*
%TO.P,D3,2*%
%TO.N,main_pinky_top*%
X-9722500Y37804702D03*
D17*
X-11835298Y37355611D03*
%TD*%
D15*
%TO.P,D14,1*%
%TO.N,P3*%
X79639429Y40251185D03*
D16*
X77479429Y40251185D03*
%TO.P,D14,2*%
%TO.N,main_inner_home*%
X74179429Y40251185D03*
D17*
X72019429Y40251185D03*
%TD*%
D14*
%TO.P,S12,1*%
%TO.N,P8*%
X61104429Y49301185D03*
%TO.P,S12,2*%
%TO.N,main_pointer_top*%
X49554429Y51501185D03*
%TD*%
D30*
%TO.P,S17,1*%
%TO.N,P4*%
X73211941Y-15074698D03*
%TO.P,S17,2*%
%TO.N,thumb_c2*%
X62219437Y-10902484D03*
%TD*%
D18*
%TO.P,S2,1*%
%TO.N,P1*%
X906009Y11489442D03*
%TO.P,S2,2*%
%TO.N,main_pinky_home*%
X-10849002Y11239986D03*
%TD*%
D31*
%TO.P,JST1,1*%
%TO.N,pos*%
X117829429Y-28748815D03*
D32*
%TO.P,JST1,2*%
%TO.N,GND*%
X115829429Y-28748815D03*
%TD*%
D29*
%TO.P,S5,1*%
%TO.N,P2*%
X21470274Y31725717D03*
%TO.P,S5,2*%
%TO.N,main_ring_home*%
X9772483Y32910696D03*
%TD*%
D27*
%TO.P,D6,1*%
%TO.N,P0*%
X19567236Y59615987D03*
D28*
X17415455Y59427731D03*
%TO.P,D6,2*%
%TO.N,main_ring_top*%
X14128013Y59140117D03*
D17*
X11976232Y58951861D03*
%TD*%
D18*
%TO.P,S3,1*%
%TO.N,P1*%
X-2628489Y28117951D03*
%TO.P,S3,2*%
%TO.N,main_pinky_top*%
X-14383500Y27868495D03*
%TD*%
D15*
%TO.P,D12,1*%
%TO.N,P0*%
X61639429Y60251185D03*
D16*
X59479429Y60251185D03*
%TO.P,D12,2*%
%TO.N,main_pointer_top*%
X56179429Y60251185D03*
D17*
X54019429Y60251185D03*
%TD*%
D14*
%TO.P,S7,1*%
%TO.N,P4*%
X43104429Y19301185D03*
%TO.P,S7,2*%
%TO.N,main_middle_bottom*%
X31554429Y21501185D03*
%TD*%
D24*
%TO.P,MCU1,1*%
%TO.N,RAW*%
X117829429Y24131185D03*
%TO.P,MCU1,2*%
%TO.N,GND*%
X115289429Y24131185D03*
%TO.P,MCU1,3*%
%TO.N,RST*%
X112749429Y24131185D03*
%TO.P,MCU1,4*%
%TO.N,VCC*%
X110209429Y24131185D03*
%TO.P,MCU1,5*%
%TO.N,P21*%
X107669429Y24131185D03*
%TO.P,MCU1,6*%
%TO.N,P20*%
X105129429Y24131185D03*
%TO.P,MCU1,7*%
%TO.N,P19*%
X102589429Y24131185D03*
%TO.P,MCU1,8*%
%TO.N,P18*%
X100049429Y24131185D03*
%TO.P,MCU1,9*%
%TO.N,P15*%
X97509429Y24131185D03*
%TO.P,MCU1,10*%
%TO.N,P14*%
X94969429Y24131185D03*
%TO.P,MCU1,11*%
%TO.N,P16*%
X92429429Y24131185D03*
%TO.P,MCU1,12*%
%TO.N,P10*%
X89889429Y24131185D03*
%TO.P,MCU1,13*%
%TO.N,P9*%
X89889429Y39371185D03*
%TO.P,MCU1,14*%
%TO.N,P8*%
X92429429Y39371185D03*
%TO.P,MCU1,15*%
%TO.N,P7*%
X94969429Y39371185D03*
%TO.P,MCU1,16*%
%TO.N,P6*%
X97509429Y39371185D03*
%TO.P,MCU1,17*%
%TO.N,P5*%
X100049429Y39371185D03*
%TO.P,MCU1,18*%
%TO.N,P4*%
X102589429Y39371185D03*
%TO.P,MCU1,19*%
%TO.N,P3*%
X105129429Y39371185D03*
%TO.P,MCU1,20*%
%TO.N,P2*%
X107669429Y39371185D03*
%TO.P,MCU1,21*%
%TO.N,GND*%
X110209429Y39371185D03*
%TO.P,MCU1,22*%
X112749429Y39371185D03*
%TO.P,MCU1,23*%
%TO.N,P0*%
X115289429Y39371185D03*
%TO.P,MCU1,24*%
%TO.N,P1*%
X117829429Y39371185D03*
%TD*%
D33*
%TO.P,S19,1*%
%TO.N,P9*%
X101101613Y-39138528D03*
%TO.P,S19,2*%
%TO.N,thumb_c4*%
X98214250Y-27740913D03*
%TD*%
D34*
%TO.P,S18,1*%
%TO.N,P8*%
X90171076Y-23575318D03*
%TO.P,S18,2*%
%TO.N,thumb_c3*%
X81971738Y-15148376D03*
%TD*%
D14*
%TO.P,S8,1*%
%TO.N,P4*%
X43104429Y36301185D03*
%TO.P,S8,2*%
%TO.N,main_middle_home*%
X31554429Y38501185D03*
%TD*%
D15*
%TO.P,D11,1*%
%TO.N,P3*%
X61639429Y43251185D03*
D16*
X59479429Y43251185D03*
%TO.P,D11,2*%
%TO.N,main_pointer_home*%
X56179429Y43251185D03*
D17*
X54019429Y43251185D03*
%TD*%
D25*
%TO.P,D16,1*%
%TO.N,P16*%
X52552692Y-3380472D03*
D26*
X50439894Y-3829563D03*
%TO.P,D16,2*%
%TO.N,thumb_c1*%
X47212006Y-4515671D03*
D17*
X45099208Y-4964762D03*
%TD*%
D14*
%TO.P,S15,1*%
%TO.N,P9*%
X79104429Y46301185D03*
%TO.P,S15,2*%
%TO.N,main_inner_top*%
X67554429Y48501185D03*
%TD*%
%TO.P,S13,1*%
%TO.N,P9*%
X79104429Y12301185D03*
%TO.P,S13,2*%
%TO.N,main_inner_bottom*%
X67554429Y14501185D03*
%TD*%
D35*
%TO.P,D18,1*%
%TO.N,P16*%
X96889984Y-14912467D03*
D36*
X95120616Y-13673542D03*
%TO.P,D18,2*%
%TO.N,thumb_c3*%
X92417414Y-11780740D03*
D17*
X90648046Y-10541815D03*
%TD*%
D15*
%TO.P,D15,1*%
%TO.N,P0*%
X79639429Y57251185D03*
D16*
X77479429Y57251185D03*
%TO.P,D15,2*%
%TO.N,main_inner_top*%
X74179429Y57251185D03*
D17*
X72019429Y57251185D03*
%TD*%
D14*
%TO.P,S9,1*%
%TO.N,P4*%
X43104429Y53301185D03*
%TO.P,S9,2*%
%TO.N,main_middle_top*%
X31554429Y55501185D03*
%TD*%
D12*
%TO.P,T1,*%
%TO.N,*%
X112829429Y59251185D03*
X109829429Y59251185D03*
%TD*%
D37*
%TO.N,GND*%
X101500000Y55750000D03*
%TO.N,RST*%
X120250000Y49250000D03*
%TO.N,RAW*%
X115750000Y53500000D03*
%TO.N,pos*%
X122772305Y54985942D03*
%TO.N,P1*%
X94500000Y2750000D03*
X109750000Y2750000D03*
X500000Y-3250000D03*
D38*
%TO.N,P2*%
X18070522Y45750000D03*
D37*
X51956008Y-11750000D03*
%TO.N,P4*%
X73211941Y-12250000D03*
D38*
X39750000Y22000000D03*
D37*
%TO.N,P8*%
X91954693Y-20204693D03*
D38*
X59014307Y42014307D03*
X79250000Y38000000D03*
D37*
X71500000Y37000000D03*
D38*
%TO.N,P9*%
X80854429Y42000000D03*
X104250000Y-35750000D03*
%TO.N,P5*%
X79097224Y26251458D03*
%TD*%
D39*
%TO.N,RST*%
X119381429Y55301185D02*
X119381429Y47750000D01*
X119381429Y48381429D02*
X119381429Y47750000D01*
X120250000Y49250000D02*
X119381429Y48381429D01*
D40*
%TO.N,P1*%
X-316528Y4667803D02*
X-316528Y10266905D01*
X250000Y12145451D02*
X250000Y21208524D01*
X533092Y24956370D02*
X-2628489Y28117951D01*
X94500000Y2750000D02*
X109750000Y2750000D01*
X4440508Y-5809492D02*
X4440508Y-5139067D01*
X250000Y21208524D02*
X533092Y21491616D01*
X-316528Y10266905D02*
X906009Y11489442D01*
X4440508Y-5139067D02*
X3794407Y-4492966D01*
X3794407Y556868D02*
X-316528Y4667803D01*
X533092Y21491616D02*
X533092Y24956370D01*
X2551441Y-3250000D02*
X500000Y-3250000D01*
X3794407Y-4492966D02*
X3794407Y556868D01*
X906009Y11489442D02*
X250000Y12145451D01*
X4440508Y-5139067D02*
X2551441Y-3250000D01*
%TO.N,main_pinky_bottom*%
X-7314503Y-5388523D02*
X-7314503Y1550392D01*
X-7314503Y1550392D02*
X-4766301Y4098594D01*
X-3102593Y4098594D02*
X-2653503Y4547684D01*
X-4766301Y4098594D02*
X-3102593Y4098594D01*
%TO.N,main_pinky_home*%
X-10849002Y18178900D02*
X-8300799Y20727103D01*
X-8300799Y20727103D02*
X-6637091Y20727103D01*
X-10849002Y11239986D02*
X-10849002Y18178900D01*
X-6637091Y20727103D02*
X-6188001Y21176193D01*
%TO.N,main_pinky_top*%
X-14383500Y34807410D02*
X-11835298Y37355612D01*
X-11835298Y37355612D02*
X-10171590Y37355612D01*
X-14383500Y27868495D02*
X-14383500Y34807410D01*
X-10171590Y37355612D02*
X-9722500Y37804702D01*
%TO.N,P2*%
X93033429Y54007185D02*
X107669429Y39371185D01*
X30698863Y65529685D02*
X47470315Y65529685D01*
X79021429Y54007185D02*
X93033429Y54007185D01*
X22602616Y15139714D02*
X22602616Y21839279D01*
X19552169Y24889726D02*
X19552169Y29807612D01*
X19552169Y29807612D02*
X21470274Y31725717D01*
X65360693Y59639307D02*
X73389307Y59639307D01*
X22602616Y21839279D02*
X19552169Y24889726D01*
X22951922Y14790408D02*
X22602616Y15139714D01*
X18070522Y46742922D02*
X19988627Y48661027D01*
X51956008Y-7802771D02*
X29362829Y14790408D01*
X29362829Y14790408D02*
X22951922Y14790408D01*
X54306016Y-14202422D02*
X51956008Y-11852414D01*
X47470315Y65529685D02*
X50750000Y62250000D01*
X73389307Y59639307D02*
X79021429Y54007185D01*
X19639321Y49010333D02*
X19639321Y54470143D01*
X62750000Y62250000D02*
X65360693Y59639307D01*
X21470274Y31725717D02*
X20000000Y33195991D01*
X18070522Y41329003D02*
X18070522Y46742922D01*
X50750000Y62250000D02*
X62750000Y62250000D01*
X20000000Y33195991D02*
X20000000Y39399525D01*
X20000000Y39399525D02*
X18070522Y41329003D01*
X19988627Y48661027D02*
X19639321Y49010333D01*
X51956008Y-11750000D02*
X51956008Y-7802771D01*
X51956008Y-11852414D02*
X51956008Y-11750000D01*
X19639321Y54470143D02*
X30698863Y65529685D01*
%TO.N,main_ring_bottom*%
X11254131Y15975387D02*
X11254131Y21395845D01*
X14939527Y25081241D02*
X16903052Y25081241D01*
X11254131Y21395845D02*
X14939527Y25081241D01*
X16903052Y25081241D02*
X17091308Y25269497D01*
%TO.N,main_ring_home*%
X15421405Y42016551D02*
X15609661Y42204807D01*
X9772483Y32910696D02*
X9772483Y38331154D01*
X9772483Y38331154D02*
X13457880Y42016551D01*
X13457880Y42016551D02*
X15421405Y42016551D01*
%TO.N,main_ring_top*%
X8290836Y49846006D02*
X8290836Y55266465D01*
X13939757Y58951861D02*
X14128013Y59140117D01*
X8290836Y55266465D02*
X11976232Y58951861D01*
X11976232Y58951861D02*
X13939757Y58951861D01*
%TO.N,P4*%
X40250000Y22000000D02*
X42948815Y19301185D01*
X70130759Y-1782255D02*
X72250000Y-3901496D01*
X72250000Y-6920079D02*
X73211941Y-7882020D01*
X73211941Y-12250000D02*
X73211941Y-15074698D01*
X39750000Y22000000D02*
X40250000Y22000000D01*
X42953429Y19452185D02*
X43104429Y19301185D01*
X42953429Y41610284D02*
X42953429Y36452185D01*
X73211941Y-7882020D02*
X73211941Y-12250000D01*
X42953429Y24610284D02*
X42953429Y19452185D01*
X43104429Y19301185D02*
X64187869Y-1782255D01*
X44854429Y51551185D02*
X44854429Y43511284D01*
X43104429Y36301185D02*
X44854429Y34551185D01*
X42953429Y36452185D02*
X43104429Y36301185D01*
X72250000Y-3901496D02*
X72250000Y-6920079D01*
X44854429Y43511284D02*
X42953429Y41610284D01*
X43104429Y53301185D02*
X44854429Y51551185D01*
X44854429Y34551185D02*
X44854429Y26511284D01*
X42948815Y19301185D02*
X43104429Y19301185D01*
X64187869Y-1782255D02*
X70130759Y-1782255D01*
X44854429Y26511284D02*
X42953429Y24610284D01*
%TO.N,main_middle_bottom*%
X31554429Y21501185D02*
X31554429Y25786185D01*
X36019429Y30251185D02*
X38179429Y30251185D01*
X31554429Y25786185D02*
X36019429Y30251185D01*
%TO.N,main_middle_home*%
X31554429Y38501185D02*
X31554429Y42786185D01*
X31554429Y42786185D02*
X36019429Y47251185D01*
X36019429Y47251185D02*
X38179429Y47251185D01*
%TO.N,main_middle_top*%
X36019429Y64251185D02*
X38179429Y64251185D01*
X31554429Y55501185D02*
X31554429Y59786185D01*
X31554429Y59786185D02*
X36019429Y64251185D01*
%TO.N,P8*%
X58703429Y46900185D02*
X61104429Y49301185D01*
X72500000Y38000000D02*
X71500000Y37000000D01*
X61104429Y32301185D02*
X60255429Y33150185D01*
X61104429Y15301185D02*
X85668929Y-9263315D01*
X60255429Y33150185D02*
X60255429Y40773185D01*
X59014307Y42014307D02*
X58703429Y42325185D01*
X91307170Y-9263315D02*
X93456178Y-11412323D01*
X79250000Y38000000D02*
X72500000Y38000000D01*
X58703429Y25325185D02*
X58703429Y29900185D01*
X85668929Y-9263315D02*
X91307170Y-9263315D01*
X60255429Y40773185D02*
X59014307Y42014307D01*
X59919929Y24108685D02*
X58703429Y25325185D01*
X93456178Y-18703209D02*
X91954693Y-20204693D01*
X93456178Y-11412323D02*
X93456178Y-18703209D01*
X91954693Y-20204693D02*
X90171076Y-21988311D01*
X58703429Y42325185D02*
X58703429Y46900185D01*
X90171076Y-21988311D02*
X90171076Y-23575318D01*
X58703429Y29900185D02*
X61104429Y32301185D01*
X59919929Y16485685D02*
X59919929Y24108685D01*
X61104429Y15301185D02*
X59919929Y16485685D01*
%TO.N,main_pointer_bottom*%
X54019429Y26251185D02*
X56179429Y26251185D01*
X49554429Y21786185D02*
X54019429Y26251185D01*
X49554429Y17501185D02*
X49554429Y21786185D01*
%TO.N,main_pointer_home*%
X54019429Y43251185D02*
X56179429Y43251185D01*
X49554429Y34501185D02*
X49554429Y38786185D01*
X49554429Y38786185D02*
X54019429Y43251185D01*
%TO.N,main_pointer_top*%
X49554429Y51501185D02*
X49554429Y55786185D01*
X49554429Y55786185D02*
X54019429Y60251185D01*
X54019429Y60251185D02*
X56179429Y60251185D01*
%TO.N,P9*%
X110004252Y-18598638D02*
X110004252Y-31718022D01*
X105975983Y-35746291D02*
X104493850Y-35746291D01*
X78953429Y17610284D02*
X78953429Y12452185D01*
X80854429Y36984598D02*
X78953429Y35083598D01*
X80854429Y19511284D02*
X78953429Y17610284D01*
X78953429Y12452185D02*
X79104429Y12301185D01*
X80854429Y27551185D02*
X80854429Y19511284D01*
X104493850Y-35746291D02*
X101101613Y-39138528D01*
X80854429Y44551185D02*
X80854429Y42000000D01*
X79104429Y46301185D02*
X80854429Y44551185D01*
X78953429Y29452185D02*
X79104429Y29301185D01*
X79104429Y12301185D02*
X110004252Y-18598638D01*
X78953429Y35083598D02*
X78953429Y29452185D01*
X80854429Y42000000D02*
X80854429Y36984598D01*
X110004252Y-31718022D02*
X105975983Y-35746291D01*
X79104429Y29301185D02*
X80854429Y27551185D01*
%TO.N,main_inner_bottom*%
X67554429Y18786185D02*
X72019429Y23251185D01*
X67554429Y14501185D02*
X67554429Y18786185D01*
X72019429Y23251185D02*
X74179429Y23251185D01*
%TO.N,main_inner_home*%
X67554429Y34554430D02*
X72019429Y39019430D01*
X72019429Y40251185D02*
X74179429Y40251185D01*
X72019429Y39019430D02*
X72019429Y40251185D01*
X67554429Y31501185D02*
X67554429Y34554430D01*
%TO.N,main_inner_top*%
X72019429Y57251185D02*
X74179429Y57251185D01*
X67554429Y48501185D02*
X67554429Y52786185D01*
X67554429Y52786185D02*
X72019429Y57251185D01*
%TO.N,thumb_c1*%
X42551005Y-7512964D02*
X45099208Y-4964761D01*
X42551005Y-14451878D02*
X42551005Y-7512964D01*
X45099208Y-4964761D02*
X46762916Y-4964761D01*
X46762916Y-4964761D02*
X47212006Y-4515671D01*
%TO.N,thumb_c2*%
X62219437Y-8977343D02*
X68136025Y-3060755D01*
X69888129Y-3060755D02*
X70263210Y-3435836D01*
X68136025Y-3060755D02*
X69888129Y-3060755D01*
X62219437Y-10902484D02*
X62219437Y-8977343D01*
%TO.N,thumb_c3*%
X86578299Y-10541815D02*
X90648046Y-10541815D01*
X91178489Y-10541815D02*
X92417414Y-11780740D01*
X90648046Y-10541815D02*
X91178489Y-10541815D01*
X81971738Y-15148376D02*
X86578299Y-10541815D01*
%TO.N,thumb_c4*%
X108031433Y-29134435D02*
X108944289Y-30047291D01*
X106704447Y-26762680D02*
X108031433Y-28089666D01*
X98214250Y-27740913D02*
X99192483Y-26762680D01*
X108031433Y-28089666D02*
X108031433Y-29134435D01*
X99192483Y-26762680D02*
X106704447Y-26762680D01*
D39*
%TO.N,RAW*%
X118980429Y25282185D02*
X117829429Y24131185D01*
X112079429Y57176185D02*
X118980429Y50275185D01*
X118980429Y50275185D02*
X118980429Y25282185D01*
%TO.N,GND*%
X110209429Y39371185D02*
X112749429Y39371185D01*
X87129429Y45211185D02*
X88331510Y45211185D01*
X115289429Y36750000D02*
X116678429Y38139000D01*
X115289429Y36831185D02*
X115289429Y36750000D01*
X94492669Y38220185D02*
X109058429Y38220185D01*
X115829429Y23591185D02*
X115289429Y24131185D01*
X116678429Y38139000D02*
X116678429Y40550185D01*
X115829429Y-28748815D02*
X115829429Y23591185D01*
X115289429Y36750000D02*
X115289429Y24131185D01*
X112749429Y39371185D02*
X115289429Y36831185D01*
X105954429Y60101185D02*
X100704429Y60101185D01*
X109058429Y38220185D02*
X110209429Y39371185D01*
X93818429Y39724266D02*
X93818429Y38894425D01*
X99628429Y59025185D02*
X100704429Y60101185D01*
X88331510Y45211185D02*
X93818429Y39724266D01*
X99628429Y57600185D02*
X99628429Y59025185D01*
X116678429Y40550185D02*
X99628429Y57600185D01*
X93818429Y38894425D02*
X94492669Y38220185D01*
%TO.N,RST*%
X111328429Y58102185D02*
X113478429Y58102185D01*
X100704429Y58401185D02*
X105954429Y58401185D01*
X105954429Y58401185D02*
X108105429Y56250185D01*
X116730429Y-29372021D02*
X116202635Y-29899815D01*
X114278429Y58902185D02*
X115780429Y58902185D01*
X116730429Y-27125609D02*
X116730429Y-29372021D01*
X115456223Y-29899815D02*
X112749429Y-27193021D01*
X113478429Y58102185D02*
X114278429Y58902185D01*
X109830429Y56250185D02*
X111328429Y57748185D01*
X116202635Y-29899815D02*
X115456223Y-29899815D01*
X112749429Y-27193021D02*
X112749429Y24131185D01*
X119381429Y47750000D02*
X119381429Y-24474609D01*
X119381429Y-24474609D02*
X116730429Y-27125609D01*
X108105429Y56250185D02*
X109830429Y56250185D01*
X111328429Y57748185D02*
X111328429Y58102185D01*
X115780429Y58902185D02*
X119381429Y55301185D01*
%TO.N,VCC*%
X107078244Y21000000D02*
X110209429Y24131185D01*
X87500000Y21000000D02*
X107078244Y21000000D01*
X85978429Y22521571D02*
X87500000Y21000000D01*
X85978429Y46600185D02*
X85978429Y22521571D01*
X87129429Y47751185D02*
X85978429Y46600185D01*
D40*
%TO.N,P16*%
X110338929Y-33038107D02*
X110338929Y-34082876D01*
X73513076Y-4008874D02*
X74000000Y-4008874D01*
X95120616Y-13673542D02*
X95651059Y-13673542D01*
X95651059Y-13673542D02*
X96889984Y-14912467D01*
X74000000Y-4008874D02*
X74375081Y-4383955D01*
X74375081Y-4383955D02*
X75640261Y-4383955D01*
X52103602Y-3829563D02*
X52552692Y-3380473D01*
X110338929Y-34082876D02*
X111251785Y-34995732D01*
X50439894Y-3829563D02*
X52103602Y-3829563D01*
D39*
%TO.N,P10*%
X87129429Y42671185D02*
X87129429Y26891185D01*
X87129429Y26891185D02*
X89889429Y24131185D01*
D40*
%TO.N,P0*%
X79639429Y57251185D02*
X97409429Y57251185D01*
X17415455Y59427731D02*
X18250000Y59427731D01*
X-6494612Y38490810D02*
X-4830904Y38490810D01*
X59479429Y60251185D02*
X61639429Y60251185D01*
X18438256Y59615987D02*
X19567236Y59615987D01*
X41479429Y64251185D02*
X43639429Y64251185D01*
X77479429Y57251185D02*
X79639429Y57251185D01*
X-4830904Y38490810D02*
X-4381814Y38939900D01*
X97409429Y57251185D02*
X115289429Y39371185D01*
X18250000Y59427731D02*
X18438256Y59615987D01*
%TO.N,P3*%
X-2960113Y21862301D02*
X-1296405Y21862301D01*
X74479429Y43251185D02*
X61639429Y43251185D01*
X77479429Y40251185D02*
X79639429Y40251185D01*
X41479429Y47251185D02*
X43639429Y47251185D01*
X59479429Y43251185D02*
X61639429Y43251185D01*
X26897892Y48529685D02*
X42360929Y48529685D01*
X21048884Y42680677D02*
X26897892Y48529685D01*
X42360929Y48529685D02*
X43639429Y47251185D01*
X18897103Y42492421D02*
X20860628Y42492421D01*
X77479429Y40251185D02*
X74479429Y43251185D01*
X20860628Y42492421D02*
X21048884Y42680677D01*
X-1296405Y21862301D02*
X-847315Y22311391D01*
%TO.N,P5*%
X2238093Y5233792D02*
X2687183Y5682882D01*
X574385Y5233792D02*
X2238093Y5233792D01*
X22342275Y25557111D02*
X22530531Y25745367D01*
X20378750Y25557111D02*
X22342275Y25557111D01*
X41479429Y30251185D02*
X43639429Y30251185D01*
X28314849Y31529685D02*
X42360929Y31529685D01*
X22530531Y25745367D02*
X28314849Y31529685D01*
X74479429Y26251185D02*
X78998815Y26251185D01*
X77479429Y23251185D02*
X79639429Y23251185D01*
X74479429Y26251185D02*
X77479429Y23251185D01*
X42360929Y31529685D02*
X43639429Y30251185D01*
X59479429Y26251185D02*
X61639429Y26251185D01*
X61639429Y26251185D02*
X74479429Y26251185D01*
D39*
%TO.N,P6*%
X97509429Y42451185D02*
X97509429Y39371185D01*
X87129429Y52831185D02*
X97509429Y42451185D01*
%TO.N,P7*%
X87129429Y50291185D02*
X94969429Y42451185D01*
X94969429Y42451185D02*
X94969429Y39371185D01*
%TO.N,pos*%
X109352185Y61102185D02*
X121897815Y61102185D01*
X109028429Y57227185D02*
X109028429Y60778429D01*
X109028429Y60778429D02*
X109352185Y61102185D01*
X109079429Y57176185D02*
X109028429Y57227185D01*
X121897815Y61102185D02*
X122750000Y60250000D01*
X122750000Y-25250000D02*
X119251185Y-28748815D01*
X119251185Y-28748815D02*
X117829429Y-28748815D01*
X122750000Y60250000D02*
X122750000Y-25250000D01*
%TD*%
M02*
